<svg id="Group_195" data-name="Group 195" xmlns="http://www.w3.org/2000/svg" xmlns:xlink="http://www.w3.org/1999/xlink" width="667.563" height="92.707" viewBox="0 0 667.563 92.707">
  <defs>
    <clipPath id="clip-path">
      <rect id="Rectangle_185" data-name="Rectangle 185" width="667.562" height="92.707" transform="translate(0 0)" fill="none"/>
    </clipPath>
  </defs>
  <g id="Group_194" data-name="Group 194" clip-path="url(#clip-path)">
    <path id="Path_275" data-name="Path 275" d="M318.717,73.772l-.59,1.813a85.324,85.324,0,0,1-16.947,2.994l-1.965-1.722q-2.354-8.255-3.4-12.064h-4.536l-1.636,12.879h-16.87l3.2-13.514,5-33.018h24.854q8.435,0,12.4,3.764t2.714,10.84a17.747,17.747,0,0,1-3.377,7.574,26.249,26.249,0,0,1-6.871,6.3q4.9,9.252,8.026,14.151M295.691,42.841l-2.091,9.8,4.924.361a7.824,7.824,0,0,0,2.97-2.175,7.49,7.49,0,0,0,1.363-3.357q.431-2.451-.738-3.537t-4.4-1.27Z" fill="#6d892c"/>
    <path id="Path_276" data-name="Path 276" d="M360.019,64.34l.716,1.087-3.156,12.246H321.568l3.2-13.514,5.006-33.018h36.645l.7,1.179L363.96,44.567l-12.15-.546h-7.618l-.795,3.991h7.257l7.938-.273.7,1.179-3.156,12.248-8.842-.273h-6.531l-.361,1.542-.327,2.359h7.166Z" fill="#6d892c"/>
    <path id="Path_277" data-name="Path 277" d="M391.684,77.673l.138-6.44-6.862-.18-5.49.27-2.118,6.35H360.934l22.628-46.532H403.88l4.857,46.532Zm-3.615-18.594,3.555-.092-.345-12.971h-1l-5.733,12.971Z" fill="#6d892c"/>
    <path id="Path_278" data-name="Path 278" d="M459.158,74.134l-.593,1.815a128.131,128.131,0,0,1-17.244,2.63l-1.729-1q-4.367-11.244-7.574-20.317l-1.092,5.17-1.963,15.238h-16.87l3.2-13.514L420.3,31.14h17.141l-3.928,18.686L444.025,36.49l3.484-5.35H465.2L447.7,53.182a219.158,219.158,0,0,0,11.453,20.952" fill="#6d892c"/>
    <path id="Path_279" data-name="Path 279" d="M491.007,77.673l.138-6.44-6.862-.18-5.49.27-2.118,6.35H460.257l22.628-46.532H503.2l4.857,46.532Zm-3.615-18.594,3.555-.092L490.6,46.016h-1l-5.733,12.971Z" fill="#6d892c"/>
    <path id="Path_280" data-name="Path 280" d="M599.31,77.673l.138-6.44-6.862-.18-5.489.27-2.118,6.35H568.561l22.628-46.532h20.318l4.856,46.532ZM595.7,59.079l3.556-.092-.346-12.971h-1l-5.732,12.971Z" fill="#6d892c"/>
    <path id="Path_281" data-name="Path 281" d="M643.584,65.79l-1.369,11.883H625.433l2.913-11.883.18-1.542-9.945-33.107h17.6L636.7,35.4l2.59,12.064h.907l7.548-11.429,2.678-4.9h17.144L644.025,63.8Z" fill="#6d892c"/>
    <path id="Path_282" data-name="Path 282" d="M559.129,77.673H540.9l-1.137-13.6h-1l-5.484,13.6H515.044l-2.5-46.532h16.6l-.7,8.073-.507,21.407h1l7.97-18.958-.413-10.522h17.324l-.654,9.887.265,19.593h1l8.044-20.411,9.485-22.618h15.694Z" fill="#6d892c"/>
    <path id="Path_283" data-name="Path 283" d="M591.466,19.565l-.559,1.175-2.671,5.616h79.022V19.565Z" fill="#6d892c"/>
    <path id="Path_284" data-name="Path 284" d="M555.934,26.356h7.731l2.842-6.791h-290a16.244,16.244,0,0,1,3.986,6.791H555.934Z" fill="#6d892c"/>
    <path id="Path_285" data-name="Path 285" d="M270.944,41.979a16.805,16.805,0,0,0,3.729-8.026q1.295-7.348-3.649-11.2T256.1,18.9l-26.23.091-6.4,41.452-1.106,4.826,8.79,12.921c2.765.081,5.359.124,7.759.124q14.875,0,23.1-4.219a17.736,17.736,0,0,0,9.843-13.378q.913-5.171-1.106-8.392t-7.443-4.852a19.888,19.888,0,0,0,7.634-5.489M253.573,59.985a6.861,6.861,0,0,1-2.964,4.717,10.748,10.748,0,0,1-6.137,1.632q-1.273,0-5.742-.361l1.023-7.349.795-3.99,8.832-.181a7.755,7.755,0,0,1,3.56,2.177,4.058,4.058,0,0,1,.633,3.355m2.131-23.4a8.129,8.129,0,0,1-1.931,4.264,9.232,9.232,0,0,1-4.135,2.358l-6.754-.272,2.474-11.973h.816q6.077,0,8.083,1.224t1.447,4.4" fill="#6d892c"/>
    <path id="Path_286" data-name="Path 286" d="M230.234,0H211.41L192.3,30.09,173.592.03H140.006V.036H0V92.707H140.009v0H171.96l20.326-31.677L211.7,92.667h18.53V80.455L206.369,45.372l0-.005,23.868-34.614ZM152,84.2V7.425L178.04,46.292Z" fill="#004a99"/>
    <path id="Path_287" data-name="Path 287" d="M46.454,86.194c-24.528,0-41.207-14.6-41.207-39.858,0-25.142,16.188-40.472,41.329-40.472,9.812,0,21.463,2.208,28.821,6.622L69.265,28.8a44.271,44.271,0,0,0-22.076-6.377c-13.735,0-22.565,9.2-22.565,23.423,0,15.33,7.726,24.407,22.32,24.407a33.638,33.638,0,0,0,12.265-2.33V56.637H40.322V41.184H76.869v37.9c-8.34,4.537-19.255,7.113-30.415,7.113" fill="#fff"/>
    <path id="Path_288" data-name="Path 288" d="M111.618,62.033l-7.481.123v22.2h-19.5V7.7h28.33c21.462,0,32.745,10.792,32.745,26.612,0,17.906-12.141,27.717-34.094,27.717M111.5,23.156h-7.849V47.071l7.849-.122c10.057-.123,14.84-4.416,14.84-12.142s-5.028-11.651-14.84-11.651" fill="#fff"/>
  </g>
</svg>
