<svg xmlns="http://www.w3.org/2000/svg" xmlns:xlink="http://www.w3.org/1999/xlink" width="718.376" height="139.706" viewBox="0 0 718.376 139.706">
  <defs>
    <filter id="Union_1" x="0" y="0" width="718.376" height="139.706" filterUnits="userSpaceOnUse">
      <feOffset input="SourceAlpha"/>
      <feGaussianBlur stdDeviation="6.5" result="blur"/>
      <feFlood flood-color="#0053a7"/>
      <feComposite operator="in" in2="blur"/>
      <feComposite in="SourceGraphic"/>
    </filter>
  </defs>
  <g id="Group_188" data-name="Group 188" transform="translate(10730.499 9072.5)">
    <rect id="Rectangle_182" data-name="Rectangle 182" width="147" height="93" transform="translate(-10707 -9049)" fill="#0053a7"/>
    <g id="Group_186" data-name="Group 186" transform="translate(-10769.219 -9308.647)">
      <g transform="matrix(1, 0, 0, 1, 38.72, 236.15)" filter="url(#Union_1)">
        <g id="Union_1-2" data-name="Union 1" transform="translate(-10745.72 -9285.15)" fill="#fff">
          <path d="M 10911.2255859375 9403.3544921875 L 10909.2255859375 9403.3544921875 L 10861.09375 9403.3544921875 L 10814.943359375 9403.3544921875 L 10769.2197265625 9403.3544921875 L 10767.2197265625 9403.3544921875 L 10767.2197265625 9401.3544921875 L 10767.2197265625 9308.6826171875 L 10767.2197265625 9306.6826171875 L 10769.2197265625 9306.6826171875 L 10814.943359375 9306.6826171875 L 10861.09375 9306.6826171875 L 10907.22265625 9306.6826171875 L 10909.22265625 9306.6796875 L 10921.142578125 9306.6796875 L 10921.22265625 9306.6796875 L 10942.810546875 9306.6796875 L 10943.921875 9306.6796875 L 10944.5087890625 9307.623046875 L 10961.5361328125 9334.9794921875 L 10978.9404296875 9307.576171875 L 10979.5302734375 9306.6484375 L 10980.62890625 9306.6484375 L 10999.4521484375 9306.6484375 L 11001.4521484375 9306.6484375 L 11001.4521484375 9308.6484375 L 11001.4521484375 9319.400390625 L 11001.4521484375 9320.0234375 L 11001.0986328125 9320.5361328125 L 10997.5791015625 9325.6396484375 L 10999.0830078125 9325.634765625 L 11025.314453125 9325.54296875 L 11025.3173828125 9325.54296875 L 11025.3212890625 9325.54296875 C 11028.798828125 9325.54296875 11031.900390625 9325.888671875 11034.5390625 9326.5703125 C 11037.279296875 9327.279296875 11039.611328125 9328.3720703125 11041.4697265625 9329.8193359375 C 11043.431640625 9331.3505859375 11044.7958984375 9333.263671875 11045.5263671875 9335.5068359375 C 11046.234375 9337.6806640625 11046.345703125 9340.18359375 11045.8583984375 9342.9482421875 C 11045.26953125 9346.3046875 11043.869140625 9349.322265625 11041.6953125 9351.9130859375 C 11040.4267578125 9353.4248046875 11038.9248046875 9354.7529296875 11037.2060546875 9355.8837890625 C 11039.173828125 9356.96875 11040.666015625 9358.314453125 11041.6650390625 9359.9072265625 C 11043.275390625 9362.4755859375 11043.740234375 9365.7724609375 11043.0458984375 9369.70703125 C 11041.8603515625 9376.4326171875 11038.1943359375 9381.416015625 11032.1474609375 9384.517578125 C 11029.2421875 9386.0068359375 11025.7294921875 9387.134765625 11021.7041015625 9387.8701171875 C 11017.7529296875 9388.5908203125 11013.1865234375 9388.95703125 11008.1318359375 9388.95703125 C 11006.099609375 9388.95703125 11003.857421875 9388.92578125 11001.4521484375 9388.8642578125 L 11001.4521484375 9389.1015625 L 11001.4521484375 9401.3115234375 L 11001.4521484375 9403.3115234375 L 10999.4521484375 9403.3115234375 L 10980.9208984375 9403.3115234375 L 10979.8017578125 9403.3115234375 L 10979.216796875 9402.357421875 L 10961.4658203125 9373.4345703125 L 10942.8603515625 9402.4287109375 L 10942.26953125 9403.3486328125 L 10941.1767578125 9403.3486328125 L 10921.22265625 9403.3486328125 L 10921.142578125 9403.3486328125 L 10911.2255859375 9403.3486328125 L 10911.2255859375 9403.3544921875 Z M 10815.7958984375 9316.51171875 C 10803.9267578125 9316.51171875 10794.0029296875 9320.0546875 10787.0966796875 9326.7568359375 C 10780.142578125 9333.5 10776.466796875 9343.259765625 10776.466796875 9354.982421875 C 10776.466796875 9360.9228515625 10777.4248046875 9366.357421875 10779.314453125 9371.1357421875 C 10781.1279296875 9375.7177734375 10783.794921875 9379.685546875 10787.2412109375 9382.9296875 C 10794.1318359375 9389.412109375 10803.962890625 9392.8388671875 10815.671875 9392.8388671875 C 10821.0595703125 9392.8388671875 10826.37890625 9392.2333984375 10831.482421875 9391.0400390625 C 10836.09765625 9389.9580078125 10840.33203125 9388.439453125 10844.087890625 9386.5224609375 L 10844.087890625 9351.8330078125 L 10811.541015625 9351.8330078125 L 10811.541015625 9363.287109375 L 10828.4248046875 9363.287109375 L 10830.4248046875 9363.287109375 L 10830.4248046875 9365.287109375 L 10830.4248046875 9376.5693359375 L 10830.4248046875 9377.89453125 L 10829.2041015625 9378.4111328125 C 10825.580078125 9379.9443359375 10820.5830078125 9380.8974609375 10816.1630859375 9380.8974609375 C 10812.3095703125 9380.8974609375 10808.818359375 9380.2939453125 10805.787109375 9379.1025390625 C 10802.7412109375 9377.9052734375 10800.1357421875 9376.11328125 10798.041015625 9373.77734375 C 10795.98046875 9371.4833984375 10794.408203125 9368.6552734375 10793.3701171875 9365.3740234375 C 10792.35546875 9362.1650390625 10791.8408203125 9358.5029296875 10791.8408203125 9354.4892578125 C 10791.8408203125 9346.9794921875 10794.1552734375 9340.6064453125 10798.5341796875 9336.05859375 C 10802.9375 9331.484375 10809.1181640625 9329.0673828125 10816.41015625 9329.0673828125 C 10820.2314453125 9329.0673828125 10824.1455078125 9329.640625 10828.0458984375 9330.771484375 C 10831.1806640625 9331.6826171875 10834.326171875 9332.9609375 10837.4228515625 9334.5810546875 L 10842.138671875 9322.041015625 C 10839.0390625 9320.4296875 10835.1240234375 9319.0859375 10830.7001953125 9318.1220703125 C 10825.8681640625 9317.068359375 10820.7138671875 9316.51171875 10815.7958984375 9316.51171875 Z M 10855.85546875 9390.9990234375 L 10871.35546875 9390.9990234375 L 10871.35546875 9370.8037109375 L 10871.35546875 9368.8359375 L 10873.3232421875 9368.8037109375 L 10880.8037109375 9368.6826171875 L 10880.8193359375 9368.6826171875 L 10880.8359375 9368.6826171875 C 10886.099609375 9368.6826171875 10890.8291015625 9368.0966796875 10894.890625 9366.94140625 C 10898.8349609375 9365.8193359375 10902.19140625 9364.1484375 10904.865234375 9361.974609375 C 10910.2158203125 9357.6240234375 10912.9287109375 9351.228515625 10912.9287109375 9342.96484375 C 10912.9287109375 9339.28515625 10912.27734375 9335.9072265625 10910.9931640625 9332.923828125 C 10909.7109375 9329.943359375 10907.798828125 9327.3623046875 10905.310546875 9325.2509765625 C 10902.724609375 9323.052734375 10899.513671875 9321.353515625 10895.765625 9320.197265625 C 10891.8017578125 9318.97265625 10887.232421875 9318.3515625 10882.1845703125 9318.3515625 L 10855.85546875 9318.3515625 L 10855.85546875 9390.9990234375 Z M 10923.22265625 9322.6533203125 L 10923.22265625 9386.3994140625 L 10944.8388671875 9354.92578125 L 10923.22265625 9322.6533203125 Z M 11010.220703125 9372.791015625 C 11012.3212890625 9372.9453125 11013.265625 9372.982421875 11013.6884765625 9372.982421875 C 11015.75 9372.982421875 11017.439453125 9372.5478515625 11018.7099609375 9371.69140625 C 11019.86328125 9370.9130859375 11020.5537109375 9369.7998046875 11020.8203125 9368.2861328125 C 11021.0341796875 9367.0810546875 11020.69921875 9366.6572265625 11020.5888671875 9366.5185546875 C 11020.3623046875 9366.23046875 11019.7685546875 9365.685546875 11018.2607421875 9365.107421875 L 11011.412109375 9365.2490234375 L 11010.9423828125 9367.6064453125 L 11010.220703125 9372.791015625 Z M 10978.0068359375 9354.0234375 L 10990.037109375 9371.70703125 L 10990.7236328125 9368.7099609375 L 10997.11328125 9327.330078125 L 10997.3154296875 9326.0224609375 L 10978.0068359375 9354.0234375 Z M 11014.5361328125 9349.6767578125 L 11018.5869140625 9349.8388671875 C 11019.875 9349.41015625 11020.8662109375 9348.833984375 11021.5341796875 9348.1240234375 C 11022.224609375 9347.390625 11022.701171875 9346.2998046875 11022.9521484375 9344.880859375 C 11023.275390625 9343.0537109375 11022.6845703125 9342.6923828125 11022.431640625 9342.5380859375 C 11022.001953125 9342.2763671875 11020.546875 9341.681640625 11016.203125 9341.615234375 L 11014.5361328125 9349.6767578125 Z M 11069.705078125 9389.27734375 L 11069.0810546875 9388.7314453125 L 11067.115234375 9387.009765625 L 11066.6708984375 9386.6201171875 L 11066.5087890625 9386.052734375 C 11065.181640625 9381.392578125 11064.1923828125 9377.896484375 11063.5078125 9375.44140625 L 11062.2548828125 9375.44140625 L 11060.841796875 9386.5751953125 L 11060.619140625 9388.3232421875 L 11058.857421875 9388.3232421875 L 11041.986328125 9388.3232421875 L 11039.4580078125 9388.3232421875 L 11040.0400390625 9385.8623046875 L 11043.21875 9372.42578125 L 11048.21484375 9339.490234375 L 11048.47265625 9337.7900390625 L 11050.1923828125 9337.7900390625 L 11075.04296875 9337.7900390625 C 11078.0390625 9337.7900390625 11080.6962890625 9338.1357421875 11082.94140625 9338.8173828125 C 11085.2978515625 9339.5322265625 11087.275390625 9340.6376953125 11088.818359375 9342.1015625 C 11091.966796875 9345.0927734375 11093.080078125 9349.3447265625 11092.126953125 9354.7392578125 C 11091.6083984375 9357.6923828125 11090.349609375 9360.5263671875 11088.3857421875 9363.1611328125 C 11086.798828125 9365.2861328125 11084.828125 9367.212890625 11082.51171875 9368.9072265625 C 11085.365234375 9374.2431640625 11087.75390625 9378.4208984375 11089.6201171875 9381.341796875 L 11089.83203125 9381.671875 L 11092.021484375 9372.4267578125 L 11097.0146484375 9339.490234375 L 11097.2724609375 9337.7900390625 L 11098.9921875 9337.7900390625 L 11135.63671875 9337.7900390625 L 11136.7744140625 9337.7900390625 L 11137.35546875 9338.767578125 L 11138.0556640625 9339.9443359375 L 11138.4814453125 9340.66015625 L 11138.2734375 9341.4658203125 L 11135.1162109375 9353.7138671875 L 11134.7109375 9355.2861328125 L 11133.08984375 9355.212890625 L 11129.3369140625 9355.0439453125 L 11129.529296875 9355.3681640625 L 11130.2294921875 9356.5478515625 L 11130.654296875 9357.2626953125 L 11130.4462890625 9358.0673828125 L 11127.2890625 9370.3125 L 11127.095703125 9371.0625 L 11129.1650390625 9370.98828125 L 11130.2880859375 9370.9482421875 L 11130.90625 9371.88671875 L 11131.623046875 9372.974609375 L 11132.111328125 9373.7158203125 L 11131.8896484375 9374.57421875 L 11129.9111328125 9382.2490234375 L 11150.9814453125 9338.9150390625 L 11151.529296875 9337.7900390625 L 11152.7802734375 9337.7900390625 L 11173.0966796875 9337.7900390625 L 11174.8984375 9337.7900390625 L 11175.0859375 9339.58203125 L 11179.7490234375 9384.236328125 L 11182.5439453125 9372.42578125 L 11187.537109375 9339.490234375 L 11187.794921875 9337.7900390625 L 11189.5146484375 9337.7900390625 L 11206.658203125 9337.7900390625 L 11209.123046875 9337.7900390625 L 11208.615234375 9340.201171875 L 11206.4423828125 9350.53515625 L 11211.615234375 9343.9736328125 L 11215.0517578125 9338.6982421875 L 11215.6435546875 9337.7900390625 L 11216.7275390625 9337.7900390625 L 11234.4140625 9337.7900390625 L 11238.5546875 9337.7900390625 L 11235.98046875 9341.033203125 L 11219.2666015625 9362.09375 C 11222.3212890625 9368.4091796875 11225.841796875 9374.826171875 11229.74609375 9381.1953125 L 11250.3037109375 9338.9150390625 L 11250.8515625 9337.7900390625 L 11252.1025390625 9337.7900390625 L 11272.421875 9337.7900390625 L 11274.2236328125 9337.7900390625 L 11274.4111328125 9339.58203125 L 11279.267578125 9386.115234375 L 11279.498046875 9388.3232421875 L 11277.2783203125 9388.3232421875 L 11260.2255859375 9388.3232421875 L 11258.1826171875 9388.3232421875 L 11258.2255859375 9386.2802734375 L 11258.3212890625 9381.8291015625 L 11253.5234375 9381.7021484375 L 11249.4775390625 9381.9013671875 L 11247.7919921875 9386.9560546875 L 11247.3359375 9388.3232421875 L 11245.89453125 9388.3232421875 L 11229.4765625 9388.3232421875 L 11226.2802734375 9388.3232421875 L 11227.017578125 9386.806640625 C 11221.2978515625 9388.0087890625 11215.8125 9388.8203125 11210.6953125 9389.220703125 L 11210.076171875 9389.2685546875 L 11209.5390625 9388.958984375 L 11207.810546875 9387.9609375 L 11207.201171875 9387.6083984375 L 11206.9462890625 9386.9521484375 C 11205.1005859375 9382.19921875 11203.3955078125 9377.697265625 11201.8486328125 9373.494140625 L 11200.1630859375 9386.5791015625 L 11199.9384765625 9388.3232421875 L 11198.1796875 9388.3232421875 L 11181.310546875 9388.3232421875 L 11180.17578125 9388.3232421875 L 11177.9560546875 9388.3232421875 L 11160.9033203125 9388.3232421875 L 11158.8603515625 9388.3232421875 L 11158.9033203125 9386.2802734375 L 11158.9990234375 9381.8291015625 L 11154.1982421875 9381.7021484375 L 11150.15234375 9381.9013671875 L 11148.466796875 9386.9560546875 L 11148.0107421875 9388.3232421875 L 11146.5693359375 9388.3232421875 L 11130.154296875 9388.3232421875 L 11128.345703125 9388.3232421875 L 11126.7958984375 9388.3232421875 L 11090.7861328125 9388.3232421875 L 11088.2578125 9388.3232421875 L 11088.83203125 9385.8974609375 L 11087.876953125 9386.1611328125 C 11081.85546875 9387.82421875 11076.01953125 9388.853515625 11070.5322265625 9389.2216796875 L 11069.705078125 9389.27734375 Z M 11156.8017578125 9365.712890625 L 11157.287109375 9365.7255859375 L 11158.7880859375 9365.6875 L 11158.6767578125 9361.4736328125 L 11156.8017578125 9365.712890625 Z M 11256.1259765625 9365.712890625 L 11256.6103515625 9365.7255859375 L 11258.1123046875 9365.6875 L 11258.0009765625 9361.470703125 L 11256.1259765625 9365.712890625 Z M 11065.2529296875 9359.4619140625 L 11067.349609375 9359.6162109375 C 11068.146484375 9359.201171875 11068.74609375 9358.7392578125 11069.134765625 9358.2412109375 C 11069.591796875 9357.658203125 11069.91796875 9356.826171875 11070.10546875 9355.7666015625 C 11070.2548828125 9354.919921875 11070.205078125 9354.2587890625 11069.9755859375 9354.044921875 C 11069.8681640625 9353.9453125 11069.2412109375 9353.4619140625 11066.962890625 9353.314453125 L 11066.556640625 9353.3505859375 L 11065.2529296875 9359.4619140625 Z M 11413.212890625 9388.3232421875 L 11411.4306640625 9388.3232421875 L 11394.6513671875 9388.3232421875 L 11392.1015625 9388.3232421875 L 11392.708984375 9385.8466796875 L 11395.5927734375 9374.0849609375 L 11395.7109375 9373.07421875 L 11385.884765625 9340.365234375 L 11385.1103515625 9337.7900390625 L 11387.7998046875 9337.7900390625 L 11405.3974609375 9337.7900390625 L 11407.169921875 9337.7900390625 L 11407.3828125 9339.5498046875 L 11407.888671875 9343.7216796875 L 11409.681640625 9352.076171875 L 11415.244140625 9343.6533203125 L 11417.8818359375 9338.830078125 L 11418.451171875 9337.7900390625 L 11419.63671875 9337.7900390625 L 11436.78125 9337.7900390625 L 11440.6884765625 9337.7900390625 L 11438.4033203125 9340.9599609375 L 11415.1064453125 9373.279296875 L 11414.7783203125 9374.7705078125 L 11413.41796875 9386.552734375 L 11413.212890625 9388.3232421875 Z M 11387.80078125 9388.3232421875 L 11385.5810546875 9388.3232421875 L 11368.529296875 9388.3232421875 L 11366.486328125 9388.3232421875 L 11366.529296875 9386.2802734375 L 11366.625 9381.8291015625 L 11361.826171875 9381.7021484375 L 11357.78125 9381.9013671875 L 11356.095703125 9386.9560546875 L 11355.6396484375 9388.3232421875 L 11354.1982421875 9388.3232421875 L 11337.7802734375 9388.3232421875 L 11334.583984375 9388.3232421875 L 11335.9814453125 9385.4482421875 L 11358.607421875 9338.9150390625 L 11359.1552734375 9337.7900390625 L 11360.40625 9337.7900390625 L 11380.724609375 9337.7900390625 L 11382.5263671875 9337.7900390625 L 11382.7138671875 9339.58203125 L 11387.5703125 9386.115234375 L 11387.80078125 9388.3232421875 Z M 11364.4296875 9365.712890625 L 11364.9130859375 9365.7255859375 L 11366.416015625 9365.6875 L 11366.3037109375 9361.4716796875 L 11364.4296875 9365.712890625 Z M 11329.6103515625 9388.3232421875 L 11328.345703125 9388.3232421875 L 11310.11328125 9388.3232421875 L 11308.2734375 9388.3232421875 L 11308.1201171875 9386.490234375 L 11307.5126953125 9379.2236328125 L 11304.3515625 9387.0703125 L 11303.8466796875 9388.3232421875 L 11302.49609375 9388.3232421875 L 11284.26171875 9388.3232421875 L 11282.3662109375 9388.3232421875 L 11282.2646484375 9386.4306640625 L 11279.767578125 9339.8974609375 L 11279.654296875 9337.7900390625 L 11281.7646484375 9337.7900390625 L 11298.36328125 9337.7900390625 L 11300.5439453125 9337.7900390625 L 11300.35546875 9339.962890625 L 11299.6630859375 9347.97265625 L 11299.34765625 9361.2666015625 L 11304.1083984375 9349.9443359375 L 11303.712890625 9339.8681640625 L 11303.630859375 9337.7900390625 L 11305.7109375 9337.7900390625 L 11323.03515625 9337.7900390625 L 11325.171875 9337.7900390625 L 11325.03125 9339.921875 L 11324.3818359375 9349.728515625 L 11324.541015625 9361.5322265625 L 11329.826171875 9348.126953125 L 11329.833984375 9348.1064453125 L 11329.841796875 9348.0869140625 L 11339.328125 9325.466796875 L 11339.8427734375 9324.240234375 L 11341.1728515625 9324.240234375 L 11356.8642578125 9324.240234375 L 11360.02734375 9324.240234375 L 11358.6708984375 9327.09765625 L 11330.15234375 9387.1806640625 L 11329.6103515625 9388.3232421875 Z M 10870.865234375 9357.751953125 L 10870.865234375 9355.7197265625 L 10870.865234375 9355.7177734375 L 10870.865234375 9331.8056640625 L 10870.865234375 9329.8056640625 L 10872.865234375 9329.8056640625 L 10880.71484375 9329.8056640625 C 10886.05859375 9329.8056640625 10890.2080078125 9330.93359375 10893.0478515625 9333.1591796875 C 10894.5498046875 9334.337890625 10895.6943359375 9335.830078125 10896.451171875 9337.5947265625 C 10897.181640625 9339.298828125 10897.5517578125 9341.271484375 10897.5517578125 9343.4560546875 C 10897.5517578125 9345.654296875 10897.193359375 9347.64453125 10896.4873046875 9349.3720703125 C 10895.7548828125 9351.1640625 10894.64453125 9352.6904296875 10893.1865234375 9353.91015625 C 10890.349609375 9356.2861328125 10886.1640625 9357.5263671875 10880.7470703125 9357.59375 L 10880.7470703125 9357.59375 L 10872.8974609375 9357.7197265625 L 10870.865234375 9357.751953125 Z M 11438.4765625 9337.005859375 L 11436.4765625 9337.005859375 L 11357.453125 9337.005859375 L 11354.287109375 9337.005859375 L 11355.6474609375 9334.146484375 L 11358.3193359375 9328.529296875 L 11358.87890625 9327.3544921875 L 11359.4228515625 9326.21484375 L 11360.6845703125 9326.21484375 L 11436.4765625 9326.21484375 L 11438.4765625 9326.21484375 L 11438.4765625 9328.21484375 L 11438.4765625 9335.005859375 L 11438.4765625 9337.005859375 Z M 11334.21484375 9337.0029296875 L 11332.8837890625 9337.0029296875 L 11325.154296875 9337.0029296875 L 11287.1865234375 9337.0029296875 L 11049.712890625 9337.0029296875 L 11048.2255859375 9337.0029296875 L 11047.796875 9335.578125 C 11047.1083984375 9333.2822265625 11045.931640625 9331.275390625 11044.30078125 9329.6123046875 L 11040.9658203125 9326.2119140625 L 11045.728515625 9326.2119140625 L 11286.5263671875 9326.2119140625 L 11328.40625 9326.2119140625 L 11335.7275390625 9326.2119140625 L 11338.7333984375 9326.2119140625 L 11337.572265625 9328.984375 L 11334.728515625 9335.775390625 L 11334.21484375 9337.0029296875 Z" stroke="none"/>
          <path d="M 10909.2255859375 9401.3544921875 L 10909.2255859375 9401.3486328125 L 10921.142578125 9401.3486328125 L 10921.22265625 9401.3486328125 L 10941.1767578125 9401.3486328125 L 10961.50390625 9369.6728515625 L 10980.9208984375 9401.3115234375 L 10999.4521484375 9401.3115234375 L 10999.4521484375 9389.1015625 L 10975.5830078125 9354.015625 L 10999.4521484375 9319.400390625 L 10999.4521484375 9308.6484375 L 10980.62890625 9308.6484375 L 10961.5185546875 9338.7373046875 L 10942.810546875 9308.6796875 L 10921.22265625 9308.6796875 L 10921.142578125 9308.6796875 L 10909.22265625 9308.6796875 L 10909.22265625 9308.6826171875 L 10861.09375 9308.6826171875 L 10814.943359375 9308.6826171875 L 10769.2197265625 9308.6826171875 L 10769.2197265625 9401.3544921875 L 10814.943359375 9401.3544921875 L 10861.09375 9401.3544921875 L 10909.2255859375 9401.3544921875 M 10815.7958984375 9314.51171875 C 10820.861328125 9314.51171875 10826.1630859375 9315.0859375 10831.1259765625 9316.16796875 C 10836.484375 9317.3359375 10841.1513671875 9319.0556640625 10844.6162109375 9321.1337890625 L 10838.482421875 9337.4453125 C 10834.8623046875 9335.3583984375 10831.1630859375 9333.759765625 10827.4892578125 9332.6923828125 C 10823.77734375 9331.6162109375 10820.0498046875 9331.0673828125 10816.41015625 9331.0673828125 C 10809.673828125 9331.0673828125 10803.990234375 9333.2744140625 10799.974609375 9337.4453125 C 10795.9619140625 9341.61328125 10793.8408203125 9347.5087890625 10793.8408203125 9354.4892578125 C 10793.8408203125 9358.3037109375 10794.326171875 9361.7646484375 10795.2763671875 9364.7705078125 C 10796.2294921875 9367.78125 10797.6611328125 9370.361328125 10799.5302734375 9372.4423828125 C 10801.416015625 9374.5458984375 10803.7666015625 9376.1591796875 10806.5185546875 9377.2412109375 C 10809.3173828125 9378.3408203125 10812.5634765625 9378.8974609375 10816.1630859375 9378.8974609375 C 10820.3330078125 9378.8974609375 10825.0322265625 9378.0048828125 10828.4248046875 9376.5693359375 L 10828.4248046875 9365.287109375 L 10809.541015625 9365.287109375 L 10809.541015625 9349.8330078125 L 10846.087890625 9349.8330078125 L 10846.087890625 9387.7294921875 C 10841.9267578125 9389.9912109375 10837.1650390625 9391.76171875 10831.9375 9392.9873046875 C 10826.685546875 9394.2158203125 10821.21484375 9394.8388671875 10815.671875 9394.8388671875 C 10803.4453125 9394.8388671875 10793.140625 9391.2255859375 10785.8701171875 9384.3857421875 C 10782.2109375 9380.94140625 10779.3779296875 9376.73046875 10777.455078125 9371.87109375 C 10775.4716796875 9366.8564453125 10774.466796875 9361.173828125 10774.466796875 9354.982421875 C 10774.466796875 9342.708984375 10778.3505859375 9332.451171875 10785.7041015625 9325.3212890625 C 10792.9912109375 9318.2490234375 10803.396484375 9314.51171875 10815.7958984375 9314.51171875 M 10853.85546875 9316.3515625 L 10882.1845703125 9316.3515625 C 10887.4345703125 9316.3515625 10892.2021484375 9317.0029296875 10896.35546875 9318.2861328125 C 10900.3671875 9319.5234375 10903.814453125 9321.3544921875 10906.6044921875 9323.7255859375 C 10909.333984375 9326.0419921875 10911.4267578125 9328.8720703125 10912.830078125 9332.1328125 C 10914.22265625 9335.3671875 10914.9287109375 9339.0126953125 10914.9287109375 9342.96484375 C 10914.9287109375 9360.837890625 10902.8212890625 9370.6826171875 10880.8359375 9370.6826171875 L 10873.35546875 9370.8037109375 L 10873.35546875 9392.9990234375 L 10853.85546875 9392.9990234375 L 10853.85546875 9316.3515625 M 10921.22265625 9316.0732421875 L 10947.255859375 9354.939453125 L 10921.22265625 9392.84375 L 10921.22265625 9316.0732421875 M 11210.5390625 9387.2265625 C 11215.9345703125 9386.8046875 11221.68359375 9385.9296875 11227.783203125 9384.59765625 L 11228.375 9382.7841796875 C 11224.048828125 9375.7685546875 11220.2314453125 9368.78515625 11216.921875 9361.8310546875 L 11234.4140625 9339.7900390625 L 11216.7275390625 9339.7900390625 L 11213.2421875 9345.140625 L 11202.728515625 9358.4755859375 L 11206.658203125 9339.7900390625 L 11189.5146484375 9339.7900390625 L 11184.5087890625 9372.806640625 L 11181.310546875 9386.3232421875 L 11198.1796875 9386.3232421875 L 11200.142578125 9371.08203125 L 11201.236328125 9365.912109375 C 11203.375 9371.9599609375 11205.900390625 9378.734375 11208.810546875 9386.228515625 L 11210.5390625 9387.2265625 M 11070.3984375 9387.2265625 C 11075.783203125 9386.865234375 11081.431640625 9385.8662109375 11087.3447265625 9384.2333984375 L 11087.935546875 9382.4189453125 C 11085.849609375 9379.15625 11083.173828125 9374.4404296875 11079.908203125 9368.271484375 C 11082.708984375 9366.4580078125 11084.9970703125 9364.3564453125 11086.7822265625 9361.9658203125 C 11088.5615234375 9359.578125 11089.689453125 9357.0546875 11090.1572265625 9354.3916015625 C 11090.990234375 9349.67578125 11090.0830078125 9346.0615234375 11087.4423828125 9343.552734375 C 11084.798828125 9341.044921875 11080.66796875 9339.7900390625 11075.04296875 9339.7900390625 L 11050.1923828125 9339.7900390625 L 11045.18359375 9372.806640625 L 11041.986328125 9386.3232421875 L 11058.857421875 9386.3232421875 L 11060.4931640625 9373.44140625 L 11065.0283203125 9373.44140625 C 11065.728515625 9375.978515625 11066.865234375 9380.0029296875 11068.4326171875 9385.5048828125 L 11070.3984375 9387.2265625 M 11066.9345703125 9351.30859375 C 11069.08984375 9351.431640625 11070.556640625 9351.8515625 11071.3369140625 9352.580078125 C 11072.115234375 9353.3037109375 11072.3623046875 9354.4833984375 11072.0751953125 9356.1162109375 C 11071.828125 9357.5087890625 11071.375 9358.625 11070.7119140625 9359.4716796875 C 11070.048828125 9360.3212890625 11069.05859375 9361.044921875 11067.7412109375 9361.650390625 L 11062.818359375 9361.2880859375 L 11064.908203125 9351.4892578125 L 11066.9345703125 9351.30859375 M 11008.1318359375 9386.95703125 C 11018.0478515625 9386.95703125 11025.7490234375 9385.55078125 11031.234375 9382.73828125 C 11036.71875 9379.9248046875 11040 9375.4677734375 11041.076171875 9369.359375 C 11041.6845703125 9365.912109375 11041.3173828125 9363.1171875 11039.970703125 9360.9697265625 C 11038.625 9358.8232421875 11036.142578125 9357.2041015625 11032.5283203125 9356.1162109375 C 11035.6630859375 9354.787109375 11038.208984375 9352.9560546875 11040.1630859375 9350.6279296875 C 11042.115234375 9348.30078125 11043.3583984375 9345.6259765625 11043.888671875 9342.6005859375 C 11044.7529296875 9337.701171875 11043.5361328125 9333.9697265625 11040.2412109375 9331.3974609375 C 11036.943359375 9328.8291015625 11031.9716796875 9327.54296875 11025.3212890625 9327.54296875 L 10999.08984375 9327.634765625 L 10992.689453125 9369.0869140625 L 10991.583984375 9373.912109375 L 11000.373046875 9386.833984375 C 11003.13671875 9386.9140625 11005.7314453125 9386.95703125 11008.1318359375 9386.95703125 M 11018.5966796875 9363.099609375 C 11020.3037109375 9363.705078125 11021.4921875 9364.431640625 11022.158203125 9365.2783203125 C 11022.8271484375 9366.125 11023.0361328125 9367.244140625 11022.7900390625 9368.6337890625 C 11022.427734375 9370.6884765625 11021.4404296875 9372.26171875 11019.828125 9373.349609375 C 11018.21484375 9374.4375 11016.16796875 9374.982421875 11013.6884765625 9374.982421875 C 11012.841796875 9374.982421875 11010.9296875 9374.8623046875 11007.947265625 9374.62109375 L 11008.9697265625 9367.2734375 L 11009.7646484375 9363.283203125 L 11018.5966796875 9363.099609375 M 11014.5751953125 9339.609375 L 11015.390625 9339.609375 C 11019.443359375 9339.609375 11022.1357421875 9340.0166015625 11023.4755859375 9340.83203125 C 11024.8134765625 9341.650390625 11025.2958984375 9343.1142578125 11024.921875 9345.2294921875 C 11024.6005859375 9347.0458984375 11023.9580078125 9348.466796875 11022.990234375 9349.4951171875 C 11022.0234375 9350.5224609375 11020.6455078125 9351.30859375 11018.857421875 9351.8515625 L 11012.1005859375 9351.5810546875 L 11014.5751953125 9339.609375 M 11411.4306640625 9386.3232421875 L 11412.802734375 9374.4404296875 L 11413.2421875 9372.4453125 L 11436.78125 9339.7900390625 L 11419.63671875 9339.7900390625 L 11416.958984375 9344.6865234375 L 11409.41015625 9356.1162109375 L 11408.5029296875 9356.1162109375 L 11405.9140625 9344.052734375 L 11405.3974609375 9339.7900390625 L 11387.7998046875 9339.7900390625 L 11397.7451171875 9372.8955078125 L 11397.564453125 9374.4404296875 L 11394.6513671875 9386.3232421875 L 11411.4306640625 9386.3232421875 M 11385.5810546875 9386.3232421875 L 11380.724609375 9339.7900390625 L 11360.40625 9339.7900390625 L 11337.7802734375 9386.3232421875 L 11354.1982421875 9386.3232421875 L 11356.31640625 9379.970703125 L 11361.8037109375 9379.701171875 L 11368.6669921875 9379.8818359375 L 11368.529296875 9386.3232421875 L 11385.5810546875 9386.3232421875 M 11367.1259765625 9354.6640625 L 11368.1240234375 9354.6640625 L 11368.46875 9367.634765625 L 11364.912109375 9367.7265625 L 11361.3935546875 9367.634765625 L 11367.1259765625 9354.6640625 M 11328.345703125 9386.3232421875 L 11356.8642578125 9326.240234375 L 11341.1728515625 9326.240234375 L 11331.6865234375 9348.8603515625 L 11323.6416015625 9369.267578125 L 11322.6455078125 9369.267578125 L 11322.380859375 9349.67578125 L 11323.03515625 9339.7900390625 L 11305.7109375 9339.7900390625 L 11306.1240234375 9350.3095703125 L 11298.1533203125 9369.267578125 L 11297.1572265625 9369.267578125 L 11297.6650390625 9347.861328125 L 11298.36328125 9339.7900390625 L 11281.7646484375 9339.7900390625 L 11284.26171875 9386.3232421875 L 11302.49609375 9386.3232421875 L 11307.978515625 9372.71484375 L 11308.974609375 9372.71484375 L 11310.11328125 9386.3232421875 L 11328.345703125 9386.3232421875 M 11277.2783203125 9386.3232421875 L 11272.421875 9339.7900390625 L 11252.1025390625 9339.7900390625 L 11229.4765625 9386.3232421875 L 11245.89453125 9386.3232421875 L 11248.0126953125 9379.970703125 L 11253.5009765625 9379.701171875 L 11260.36328125 9379.8818359375 L 11260.2255859375 9386.3232421875 L 11277.2783203125 9386.3232421875 M 11258.822265625 9354.6640625 L 11259.8212890625 9354.6640625 L 11260.1650390625 9367.634765625 L 11256.609375 9367.7265625 L 11253.0908203125 9367.634765625 L 11258.822265625 9354.6640625 M 11177.9560546875 9386.3232421875 L 11173.0966796875 9339.7900390625 L 11152.7802734375 9339.7900390625 L 11130.154296875 9386.3232421875 L 11146.5693359375 9386.3232421875 L 11148.6875 9379.970703125 L 11154.17578125 9379.701171875 L 11161.041015625 9379.8818359375 L 11160.9033203125 9386.3232421875 L 11177.9560546875 9386.3232421875 M 11159.5 9354.6640625 L 11160.49609375 9354.6640625 L 11160.8408203125 9367.634765625 L 11157.287109375 9367.7265625 L 11153.765625 9367.634765625 L 11159.5 9354.6640625 M 11126.7958984375 9386.3232421875 L 11129.953125 9374.0751953125 L 11129.236328125 9372.9873046875 L 11116.4580078125 9373.44140625 L 11109.291015625 9373.44140625 L 11109.6181640625 9371.08203125 L 11109.9794921875 9369.5400390625 L 11116.51171875 9369.5400390625 L 11125.3525390625 9369.8134765625 L 11128.509765625 9357.568359375 L 11127.8095703125 9356.388671875 L 11119.873046875 9356.6591796875 L 11112.6142578125 9356.6591796875 L 11113.4091796875 9352.6689453125 L 11121.0302734375 9352.6689453125 L 11133.1796875 9353.21484375 L 11136.3369140625 9340.966796875 L 11135.63671875 9339.7900390625 L 11098.9921875 9339.7900390625 L 11093.986328125 9372.806640625 L 11090.7861328125 9386.3232421875 L 11126.7958984375 9386.3232421875 M 10872.865234375 9355.7197265625 L 10880.71484375 9355.59375 C 10885.6630859375 9355.533203125 10889.42578125 9354.451171875 10891.9033203125 9352.3759765625 C 10894.326171875 9350.349609375 10895.5517578125 9347.34765625 10895.5517578125 9343.4560546875 C 10895.5517578125 9339.6123046875 10894.2939453125 9336.6787109375 10891.814453125 9334.7333984375 C 10889.333984375 9332.7900390625 10885.6005859375 9331.8056640625 10880.71484375 9331.8056640625 L 10872.865234375 9331.8056640625 L 10872.865234375 9355.7177734375 L 10872.865234375 9355.7197265625 M 11436.4765625 9335.005859375 L 11436.4765625 9328.21484375 L 11360.6845703125 9328.21484375 L 11360.125 9329.388671875 L 11357.453125 9335.005859375 L 11436.4765625 9335.005859375 M 11332.8837890625 9335.0029296875 L 11335.7275390625 9328.2119140625 L 11328.40625 9328.2119140625 L 11286.5263671875 9328.2119140625 L 11045.728515625 9328.2119140625 C 11047.623046875 9330.1435546875 11048.943359375 9332.439453125 11049.712890625 9335.0029296875 L 11287.1865234375 9335.0029296875 L 11325.154296875 9335.0029296875 L 11332.8837890625 9335.0029296875 M 10913.2255859375 9405.3544921875 L 10909.2255859375 9405.3544921875 L 10861.09375 9405.3544921875 L 10814.943359375 9405.3544921875 L 10769.2197265625 9405.3544921875 L 10765.2197265625 9405.3544921875 L 10765.2197265625 9401.3544921875 L 10765.2197265625 9308.6826171875 L 10765.2197265625 9304.6826171875 L 10769.2197265625 9304.6826171875 L 10814.943359375 9304.6826171875 L 10861.09375 9304.6826171875 L 10905.22265625 9304.6826171875 L 10909.22265625 9304.6796875 L 10921.142578125 9304.6796875 L 10921.22265625 9304.6796875 L 10942.810546875 9304.6796875 L 10945.0322265625 9304.6796875 L 10946.2060546875 9306.56640625 L 10961.552734375 9331.22265625 L 10977.251953125 9306.50390625 L 10978.4306640625 9304.6484375 L 10980.62890625 9304.6484375 L 10999.4521484375 9304.6484375 L 11003.4521484375 9304.6484375 L 11003.4521484375 9308.6484375 L 11003.4521484375 9319.400390625 L 11003.4521484375 9320.6455078125 L 11002.7451171875 9321.6708984375 L 11001.396484375 9323.626953125 L 11025.3076171875 9323.54296875 L 11025.314453125 9323.54296875 L 11025.3212890625 9323.54296875 C 11028.9677734375 9323.54296875 11032.2373046875 9323.91015625 11035.0390625 9324.634765625 C 11035.822265625 9324.8369140625 11036.5751953125 9325.068359375 11037.2978515625 9325.3291015625 L 11036.2021484375 9324.2119140625 L 11045.728515625 9324.2119140625 L 11286.5263671875 9324.2119140625 L 11328.40625 9324.2119140625 L 11335.7275390625 9324.2119140625 L 11337.685546875 9324.2119140625 L 11338.5126953125 9322.240234375 L 11341.1728515625 9322.240234375 L 11356.8642578125 9322.240234375 L 11363.1904296875 9322.240234375 L 11362.2529296875 9324.21484375 L 11436.4765625 9324.21484375 L 11440.4765625 9324.21484375 L 11440.4765625 9328.21484375 L 11440.4765625 9335.005859375 L 11440.4765625 9335.7900390625 L 11444.595703125 9335.7900390625 L 11440.0263671875 9342.12890625 L 11416.970703125 9374.11328125 L 11416.7529296875 9375.1015625 L 11415.404296875 9386.7822265625 L 11414.9951171875 9390.3232421875 L 11411.4306640625 9390.3232421875 L 11394.6513671875 9390.3232421875 L 11390.0205078125 9390.3232421875 L 11385.5810546875 9390.3232421875 L 11368.529296875 9390.3232421875 L 11364.4423828125 9390.3232421875 L 11364.5302734375 9386.2373046875 L 11364.5830078125 9383.775390625 L 11361.8486328125 9383.7041015625 L 11359.2451171875 9383.83203125 L 11357.9931640625 9387.5888671875 L 11357.0810546875 9390.3232421875 L 11354.1982421875 9390.3232421875 L 11337.7802734375 9390.3232421875 L 11331.3876953125 9390.3232421875 L 11334.1826171875 9384.57421875 L 11356.33984375 9339.005859375 L 11355.232421875 9339.005859375 L 11331.958984375 9388.0380859375 L 11330.875 9390.3232421875 L 11328.345703125 9390.3232421875 L 11310.11328125 9390.3232421875 L 11306.43359375 9390.3232421875 L 11306.2216796875 9387.78125 L 11306.2060546875 9387.818359375 L 11305.197265625 9390.3232421875 L 11302.49609375 9390.3232421875 L 11284.26171875 9390.3232421875 L 11281.7177734375 9390.3232421875 L 11277.2783203125 9390.3232421875 L 11260.2255859375 9390.3232421875 L 11256.1396484375 9390.3232421875 L 11256.2265625 9386.2373046875 L 11256.279296875 9383.775390625 L 11253.5458984375 9383.7041015625 L 11250.94140625 9383.83203125 L 11249.689453125 9387.5888671875 L 11248.77734375 9390.3232421875 L 11245.89453125 9390.3232421875 L 11229.4765625 9390.3232421875 L 11223.083984375 9390.3232421875 L 11223.462890625 9389.54296875 C 11219.08203125 9390.3408203125 11214.857421875 9390.9013671875 11210.8505859375 9391.21484375 L 11209.61328125 9391.3115234375 L 11208.5390625 9390.6904296875 L 11206.810546875 9389.6923828125 L 11205.591796875 9388.98828125 L 11205.08203125 9387.6767578125 C 11204.2958984375 9385.6533203125 11203.5361328125 9383.6748046875 11202.8017578125 9381.74609375 L 11202.1474609375 9386.833984375 L 11201.697265625 9390.3232421875 L 11198.1796875 9390.3232421875 L 11182.3955078125 9390.3232421875 L 11177.9560546875 9390.3232421875 L 11160.9033203125 9390.3232421875 L 11156.8173828125 9390.3232421875 L 11156.904296875 9386.2373046875 L 11156.95703125 9383.775390625 L 11154.220703125 9383.7041015625 L 11151.6162109375 9383.83203125 L 11150.3642578125 9387.5888671875 L 11149.4521484375 9390.3232421875 L 11146.5693359375 9390.3232421875 L 11130.154296875 9390.3232421875 L 11129.8955078125 9390.3232421875 L 11126.7958984375 9390.3232421875 L 11090.7861328125 9390.3232421875 L 11085.728515625 9390.3232421875 L 11086.1142578125 9388.6953125 C 11080.7724609375 9390.0400390625 11075.5859375 9390.8876953125 11070.666015625 9391.2177734375 L 11069.0107421875 9391.3291015625 L 11067.7626953125 9390.2353515625 L 11065.796875 9388.513671875 L 11064.9091796875 9387.736328125 L 11064.5859375 9386.6005859375 C 11064.1513671875 9385.07421875 11063.751953125 9383.6728515625 11063.388671875 9382.3916015625 L 11062.8251953125 9386.8271484375 L 11062.3818359375 9390.3232421875 L 11058.857421875 9390.3232421875 L 11041.986328125 9390.3232421875 L 11036.9296875 9390.3232421875 L 11038.09375 9385.40234375 L 11038.8623046875 9382.1552734375 C 11037.21875 9383.7734375 11035.2763671875 9385.16015625 11033.060546875 9386.296875 C 11029.98046875 9387.8759765625 11026.28125 9389.0673828125 11022.0634765625 9389.8369140625 C 11017.994140625 9390.580078125 11013.306640625 9390.95703125 11008.1318359375 9390.95703125 C 11006.6728515625 9390.95703125 11005.107421875 9390.94140625 11003.4521484375 9390.9091796875 L 11003.4521484375 9401.3115234375 L 11003.4521484375 9405.3115234375 L 10999.4521484375 9405.3115234375 L 10980.9208984375 9405.3115234375 L 10978.6826171875 9405.3115234375 L 10977.51171875 9403.4033203125 L 10961.4287109375 9377.197265625 L 10944.54296875 9403.5087890625 L 10943.3623046875 9405.3486328125 L 10941.1767578125 9405.3486328125 L 10921.22265625 9405.3486328125 L 10921.142578125 9405.3486328125 L 10913.2255859375 9405.3486328125 L 10913.2255859375 9405.3544921875 Z M 10815.7958984375 9318.51171875 C 10804.45703125 9318.51171875 10795.0146484375 9321.859375 10788.490234375 9328.19140625 C 10781.9326171875 9334.5498046875 10778.466796875 9343.8134765625 10778.466796875 9354.982421875 C 10778.466796875 9360.669921875 10779.3779296875 9365.8564453125 10781.1748046875 9370.400390625 C 10782.87890625 9374.7060546875 10785.380859375 9378.431640625 10788.611328125 9381.47265625 C 10795.1240234375 9387.599609375 10804.4814453125 9390.8388671875 10815.671875 9390.8388671875 C 10820.90625 9390.8388671875 10826.072265625 9390.2509765625 10831.0263671875 9389.0927734375 C 10835.0419921875 9388.1513671875 10838.751953125 9386.8720703125 10842.087890625 9385.2802734375 L 10842.087890625 9353.8330078125 L 10813.541015625 9353.8330078125 L 10813.541015625 9361.287109375 L 10828.4248046875 9361.287109375 L 10832.4248046875 9361.287109375 L 10832.4248046875 9365.287109375 L 10832.4248046875 9376.5693359375 L 10832.4248046875 9379.2197265625 L 10829.9833984375 9380.2529296875 C 10826.0703125 9381.9091796875 10820.904296875 9382.8974609375 10816.1630859375 9382.8974609375 C 10812.0576171875 9382.8974609375 10808.3212890625 9382.2470703125 10805.0556640625 9380.9638671875 C 10801.716796875 9379.6513671875 10798.8564453125 9377.6826171875 10796.5517578125 9375.1123046875 C 10794.3017578125 9372.6064453125 10792.587890625 9369.5322265625 10791.462890625 9365.9775390625 C 10790.38671875 9362.572265625 10789.8408203125 9358.7080078125 10789.8408203125 9354.4892578125 C 10789.8408203125 9346.4521484375 10792.3486328125 9339.599609375 10797.0927734375 9334.6708984375 C 10799.498046875 9332.1728515625 10802.40234375 9330.2529296875 10805.724609375 9328.962890625 C 10808.9658203125 9327.705078125 10812.5615234375 9327.0673828125 10816.41015625 9327.0673828125 C 10820.419921875 9327.0673828125 10824.521484375 9327.6669921875 10828.603515625 9328.8505859375 C 10831.1845703125 9329.6005859375 10833.771484375 9330.5888671875 10836.3310546875 9331.802734375 L 10839.6240234375 9323.0458984375 C 10836.96875 9321.8544921875 10833.7958984375 9320.84375 10830.2744140625 9320.076171875 C 10825.5791015625 9319.052734375 10820.5732421875 9318.51171875 10815.7958984375 9318.51171875 Z M 10857.85546875 9388.9990234375 L 10869.35546875 9388.9990234375 L 10869.35546875 9370.8037109375 L 10869.35546875 9366.8681640625 L 10873.291015625 9366.8046875 L 10880.771484375 9366.68359375 L 10880.8037109375 9366.6826171875 L 10880.8359375 9366.6826171875 C 10885.9150390625 9366.6826171875 10890.4599609375 9366.1220703125 10894.34375 9365.017578125 C 10898.025390625 9363.970703125 10901.1416015625 9362.4248046875 10903.603515625 9360.4228515625 C 10905.9833984375 9358.4873046875 10907.8056640625 9356.076171875 10909.01953125 9353.2548828125 C 10910.2861328125 9350.3095703125 10910.9287109375 9346.84765625 10910.9287109375 9342.96484375 C 10910.9287109375 9339.55859375 10910.33203125 9336.4462890625 10909.15625 9333.71484375 C 10907.99609375 9331.0205078125 10906.267578125 9328.685546875 10904.0166015625 9326.775390625 C 10901.6376953125 9324.75390625 10898.6640625 9323.18359375 10895.1767578125 9322.1083984375 C 10891.40234375 9320.9423828125 10887.0322265625 9320.3515625 10882.1845703125 9320.3515625 L 10857.85546875 9320.3515625 L 10857.85546875 9388.9990234375 Z M 11385.34375 9345.5185546875 L 11389.5595703125 9385.908203125 L 11389.880859375 9388.984375 L 11390.7666015625 9385.37109375 L 11393.6201171875 9373.728515625 L 11393.67578125 9373.25390625 L 11385.34375 9345.5185546875 Z M 10925.22265625 9329.232421875 L 10925.22265625 9379.9541015625 L 10942.4228515625 9354.9111328125 L 10925.22265625 9329.232421875 Z M 11221.6162109375 9362.3505859375 C 11224.001953125 9367.203125 11226.662109375 9372.1123046875 11229.55859375 9377.0078125 L 11248.037109375 9339.0029296875 L 11240.1455078125 9339.0029296875 L 11237.546875 9342.2763671875 L 11221.6162109375 9362.3505859375 Z M 11085.0751953125 9369.4521484375 C 11086.51953125 9372.1240234375 11087.83203125 9374.4716796875 11089.005859375 9376.48046875 L 11090.0556640625 9372.0458984375 L 11091.5908203125 9361.919921875 C 11091.1162109375 9362.748046875 11090.58203125 9363.560546875 11089.9892578125 9364.35546875 C 11088.609375 9366.205078125 11086.9638671875 9367.91015625 11085.0751953125 9369.4521484375 Z M 11177.0361328125 9339.0029296875 L 11177.0751953125 9339.375 L 11180.5146484375 9372.314453125 L 11180.578125 9372.044921875 L 11185.5595703125 9339.1904296875 L 11185.587890625 9339.0029296875 L 11177.0361328125 9339.0029296875 Z M 11131.33984375 9368.91015625 L 11132.576171875 9370.787109375 L 11132.970703125 9371.384765625 L 11148.71484375 9339.0029296875 L 11139.8232421875 9339.0029296875 L 11140.6259765625 9340.3525390625 L 11140.2099609375 9341.96484375 L 11137.052734375 9354.212890625 L 11136.2431640625 9357.3564453125 L 11133 9357.2109375 L 11132.7353515625 9357.19921875 L 11132.3828125 9358.5673828125 L 11129.701171875 9368.96875 L 11131.33984375 9368.91015625 Z M 11012.498046875 9370.9375 C 11013.1552734375 9370.9736328125 11013.5048828125 9370.982421875 11013.6884765625 9370.982421875 C 11015.3447265625 9370.982421875 11016.6572265625 9370.6630859375 11017.591796875 9370.033203125 C 11018.0908203125 9369.6962890625 11018.630859375 9369.18359375 11018.8505859375 9367.939453125 C 11018.873046875 9367.8154296875 11018.8828125 9367.7197265625 11018.88671875 9367.6484375 C 11018.732421875 9367.53515625 11018.4296875 9367.34375 11017.892578125 9367.115234375 L 11013.0595703125 9367.2158203125 L 11012.9150390625 9367.9404296875 L 11012.498046875 9370.9375 Z M 10980.431640625 9354.03125 L 10989.017578125 9366.65234375 L 10994.0068359375 9334.34375 L 10980.431640625 9354.03125 Z M 11276.361328125 9339.0029296875 L 11276.400390625 9339.375 L 11279.1513671875 9365.73046875 L 11277.7705078125 9340.0048828125 L 11277.716796875 9339.0029296875 L 11276.361328125 9339.0029296875 Z M 11040.6484375 9355.796875 C 11041.7041015625 9356.6650390625 11042.58203125 9357.6376953125 11043.2763671875 9358.712890625 L 11044.3291015625 9351.767578125 C 11043.984375 9352.2568359375 11043.6171875 9352.7333984375 11043.2275390625 9353.1982421875 C 11042.4453125 9354.1298828125 11041.5849609375 9354.9970703125 11040.6484375 9355.796875 Z M 11326.3828125 9349.78125 L 11326.404296875 9351.353515625 L 11327.96484375 9347.3935546875 L 11327.9814453125 9347.353515625 L 11327.998046875 9347.3134765625 L 11331.4833984375 9339.0029296875 L 11327.095703125 9339.0029296875 L 11327.0263671875 9340.0546875 L 11326.3828125 9349.78125 Z M 11301.6611328125 9348.080078125 L 11301.59765625 9350.7548828125 L 11302.091796875 9349.578125 L 11301.9169921875 9345.1201171875 L 11301.6611328125 9348.080078125 Z M 11016.97265625 9347.7724609375 L 11018.283203125 9347.8251953125 C 11019.0810546875 9347.525390625 11019.6953125 9347.16015625 11020.0771484375 9346.75390625 C 11020.490234375 9346.314453125 11020.8037109375 9345.546875 11020.9833984375 9344.5322265625 C 11021.0126953125 9344.3642578125 11021.029296875 9344.2275390625 11021.037109375 9344.1181640625 C 11020.5751953125 9343.98046875 11019.6181640625 9343.775390625 11017.8203125 9343.6728515625 L 11016.97265625 9347.7724609375 Z M 11409.86328125 9343.390625 L 11410.6376953125 9347 L 11413.529296875 9342.62109375 L 11415.5068359375 9339.005859375 L 11409.33203125 9339.005859375 L 11409.3681640625 9339.30859375 L 11409.86328125 9343.390625 Z M 11088.1044921875 9339.0029296875 C 11088.8603515625 9339.4970703125 11089.55859375 9340.046875 11090.1953125 9340.650390625 C 11091.978515625 9342.345703125 11093.2177734375 9344.4111328125 11093.8837890625 9346.798828125 L 11095.037109375 9339.1904296875 L 11095.0654296875 9339.0029296875 L 11088.1044921875 9339.0029296875 Z M 11210.9111328125 9339.0029296875 L 11210.572265625 9340.61328125 L 11210.169921875 9342.5283203125 L 11212.466796875 9339.0029296875 L 11210.9111328125 9339.0029296875 Z M 10868.865234375 9359.7841796875 L 10868.865234375 9355.7197265625 L 10868.865234375 9355.7177734375 L 10868.865234375 9331.8056640625 L 10868.865234375 9327.8056640625 L 10872.865234375 9327.8056640625 L 10880.71484375 9327.8056640625 C 10886.5166015625 9327.8056640625 10891.0810546875 9329.0771484375 10894.28125 9331.5849609375 C 10896.0517578125 9332.9736328125 10897.3994140625 9334.73046875 10898.2890625 9336.8076171875 C 10899.126953125 9338.76171875 10899.5517578125 9340.9990234375 10899.5517578125 9343.4560546875 C 10899.5517578125 9345.9150390625 10899.1435546875 9348.16015625 10898.3388671875 9350.12890625 C 10897.4814453125 9352.2255859375 10896.1796875 9354.013671875 10894.4697265625 9355.4443359375 C 10891.26953125 9358.125 10886.6572265625 9359.521484375 10880.763671875 9359.59375 L 10872.9296875 9359.71875 L 10868.865234375 9359.7841796875 Z" stroke="none" fill="#0053a7"/>
        </g>
      </g>
    </g>
  </g>
</svg>
