<svg xmlns="http://www.w3.org/2000/svg" width="667.562" height="92.707" viewBox="0 0 667.562 92.707">
  <g id="Group_186" data-name="Group 186" transform="translate(-62.22 -259.646)">
    <path id="Path_246" data-name="Path 246" d="M380.936,333.418l-.591,1.814a85.294,85.294,0,0,1-16.945,2.994l-1.965-1.722q-2.354-8.254-3.406-12.064h-4.536l-1.636,12.88h-16.87l3.2-13.515,5.006-33.018h24.853q8.434,0,12.4,3.764t2.714,10.84a17.75,17.75,0,0,1-3.376,7.574,26.29,26.29,0,0,1-6.872,6.3Q377.809,328.521,380.936,333.418Zm-23.026-30.93-2.091,9.8,4.924.362a7.826,7.826,0,0,0,2.97-2.176,7.479,7.479,0,0,0,1.363-3.357q.432-2.45-.738-3.537t-4.4-1.27Z" fill="#fff"/>
    <path id="Path_247" data-name="Path 247" d="M422.238,323.986l.716,1.087L419.8,337.32H383.787l3.2-13.515,5.005-33.018h36.646l.7,1.179-3.157,12.246-12.15-.545h-7.619l-.8,3.991h7.257l7.939-.272.7,1.179-3.157,12.247-8.842-.273h-6.531l-.361,1.542-.327,2.359h7.166Z" fill="#fff"/>
    <path id="Path_248" data-name="Path 248" d="M453.9,337.32l.138-6.44-6.863-.181-5.489.27-2.118,6.351H423.154l22.627-46.533H466.1l4.857,46.533Zm-3.615-18.6,3.555-.091-.345-12.973h-1l-5.732,12.973Z" fill="#fff"/>
    <path id="Path_249" data-name="Path 249" d="M521.377,333.781l-.593,1.816a128.3,128.3,0,0,1-17.244,2.629l-1.729-1q-4.367-11.244-7.574-20.317l-1.093,5.17-1.962,15.239h-16.87l3.2-13.515,5.005-33.018h17.143l-3.93,18.686,10.515-13.335,3.484-5.351h17.687l-17.492,22.042A219.615,219.615,0,0,0,521.377,333.781Z" fill="#fff"/>
    <path id="Path_250" data-name="Path 250" d="M553.227,337.32l.137-6.44L546.5,330.7l-5.489.27L538.9,337.32H522.477L545.1,290.787h20.317l4.857,46.533Zm-3.616-18.6,3.555-.091-.345-12.973h-1l-5.732,12.973Z" fill="#fff"/>
    <path id="Path_251" data-name="Path 251" d="M661.53,337.32l.137-6.44L654.8,330.7l-5.489.27L647.2,337.32H630.78l22.628-46.533h20.317l4.857,46.533Zm-3.616-18.6,3.555-.091-.345-12.973h-1L654.4,318.634Z" fill="#fff"/>
    <path id="Path_252" data-name="Path 252" d="M705.8,325.437l-1.37,11.883H687.651l2.913-11.883.181-1.542L680.8,290.787h17.6l.519,4.263,2.589,12.064h.907l7.548-11.429,2.677-4.9h17.144l-23.537,32.655Z" fill="#fff"/>
    <g id="Group_184" data-name="Group 184">
      <path id="Path_253" data-name="Path 253" d="M621.348,337.32H603.115l-1.138-13.606h-1L595.5,337.32H577.263l-2.5-46.533h16.6l-.7,8.073-.508,21.407h1l7.971-18.958-.413-10.522h17.324l-.654,9.887.265,19.593h1l8.044-20.41,9.486-22.619h15.693Z" fill="#fff"/>
    </g>
    <g id="Group_185" data-name="Group 185">
      <path id="Path_254" data-name="Path 254" d="M653.684,279.211l-.559,1.175L650.455,286h79.022v-6.791Z" fill="#fff"/>
      <path id="Path_255" data-name="Path 255" d="M618.154,286h7.73l2.843-6.791h-290A16.25,16.25,0,0,1,342.715,286H618.154Z" fill="#fff"/>
    </g>
    <path id="Path_256" data-name="Path 256" d="M333.163,301.626a16.8,16.8,0,0,0,3.728-8.027q1.3-7.348-3.648-11.2t-14.922-3.855l-26.231.091-6.4,41.452-1.1,4.826,8.79,12.921c2.765.081,5.359.124,7.759.124q14.874,0,23.1-4.219a17.736,17.736,0,0,0,9.843-13.378q.912-5.17-1.106-8.391t-7.443-4.853A19.9,19.9,0,0,0,333.163,301.626Zm-17.371,18.006a6.863,6.863,0,0,1-2.964,4.717,10.757,10.757,0,0,1-6.138,1.631q-1.272,0-5.741-.361l1.023-7.348.8-3.991,8.831-.181a7.754,7.754,0,0,1,3.561,2.177A4.056,4.056,0,0,1,315.792,319.632Zm2.131-23.4a8.126,8.126,0,0,1-1.931,4.264,9.232,9.232,0,0,1-4.135,2.358l-6.755-.272,2.475-11.972h.815q6.076,0,8.084,1.223T317.923,296.229Z" fill="#fff"/>
    <path id="Subtraction_1" data-name="Subtraction 1" d="M10936.228,9326.354H10796.22v-92.671h140v0h33.586l18.71,30.058,19.108-30.089h18.825V9244.4l-23.87,34.613,23.87,35.086v12.212h-18.532l-19.418-31.641-20.326,31.677h-31.95v0Zm-93.432-86.843c-12.4,0-22.8,3.737-30.092,10.809-7.352,7.131-11.237,17.389-11.237,29.663a45.772,45.772,0,0,0,2.989,16.887,34.372,34.372,0,0,0,8.416,12.516c7.271,6.839,17.575,10.454,29.8,10.454a71.433,71.433,0,0,0,16.265-1.854,56.677,56.677,0,0,0,14.15-5.258v-37.9h-36.547v15.453h18.884v11.282a33.6,33.6,0,0,1-12.262,2.33,26.336,26.336,0,0,1-9.645-1.658,18.225,18.225,0,0,1-6.989-4.8,20.718,20.718,0,0,1-4.252-7.672,34.183,34.183,0,0,1-1.436-10.281c0-6.982,2.12-12.877,6.132-17.045s9.7-6.377,16.436-6.377a39.768,39.768,0,0,1,11.081,1.625,50.161,50.161,0,0,1,10.993,4.751l6.133-16.311a45.69,45.69,0,0,0-13.49-4.966A73.057,73.057,0,0,0,10842.8,9239.511Zm38.061,1.84V9318h19.5v-22.2l7.48-.122c21.985,0,34.093-9.844,34.093-27.717a27.25,27.25,0,0,0-2.1-10.833,22.742,22.742,0,0,0-6.226-8.406,28.82,28.82,0,0,0-10.25-5.44,48.185,48.185,0,0,0-14.171-1.934Zm67.367-.28h0v76.772l26.034-37.906-26.034-38.866Zm-48.358,39.648h0V9256.8h7.851c4.885,0,8.619.985,11.1,2.928s3.739,4.88,3.739,8.723c0,3.892-1.228,6.894-3.648,8.921-2.478,2.075-6.242,3.158-11.189,3.219l-7.85.125Z" transform="translate(-10734 -8974)" fill="#fff"/>
  </g>
</svg>
