<svg xmlns="http://www.w3.org/2000/svg" width="164" height="159" viewBox="0 0 164 159">
  <g id="Group_203" data-name="Group 203" transform="translate(-1663 -1736)">
    <g id="Union_5" data-name="Union 5" transform="translate(1663 1736)" fill="#fff">
      <path d="M 82.75975799560547 151.4659118652344 L 69.11900329589844 120.0431365966797 L 68.33527374267578 118.2377471923828 L 66.36711120605469 118.2377471923828 L 3 118.2377471923828 L 3 3 L 161 3 L 161 118.2377471923828 L 99.15145111083984 118.2377471923828 L 97.1832275390625 118.2377471923828 L 96.39952087402344 120.0432052612305 L 82.75975799560547 151.4659118652344 Z" stroke="none"/>
      <path d="M 82.75967407226562 143.9318389892578 L 93.64760589599609 118.8486557006836 L 95.21499633789062 115.2377395629883 L 99.15145111083984 115.2377395629883 L 158 115.2377395629883 L 158 6 L 6 6 L 6 115.2377395629883 L 66.36710357666016 115.2377395629883 L 70.30342102050781 115.2377395629883 L 71.87089538574219 118.8485260009766 L 82.75967407226562 143.9318389892578 M 82.75986480712891 159 L 66.36710357666016 121.2377395629883 L 0 121.2377395629883 L 0 0 L 164 0 L 164 121.2377395629883 L 99.15145111083984 121.2377395629883 L 82.75986480712891 159 Z" stroke="none" fill="#0053a7"/>
    </g>
    <path id="Path_262" data-name="Path 262" d="M-47.272-10.5v3.945h-4.05V-10.5h-2.97V0h2.97V-4.1h4.05V0h2.97V-10.5Zm8.01,8.2v-1.92H-34.6v-2.22h-4.665V-8.2h5.295v-2.3H-42.2V0h8.43V-2.3Zm7.14,2.3h7.98V-2.355h-5.01V-10.5h-2.97Zm13.95-10.5h-4.8V0H-20V-2.745h1.83c2.865,0,4.665-1.485,4.665-3.87S-15.307-10.5-18.172-10.5Zm-.18,5.415H-20V-8.16h1.65c1.23,0,1.845.57,1.845,1.545S-17.122-5.085-18.352-5.085ZM-2.317.21A5.554,5.554,0,0,0,2.2-1.77L.308-3.48A3.1,3.1,0,0,1-2.167-2.25a2.815,2.815,0,0,1-2.925-3,2.815,2.815,0,0,1,2.925-3A3.1,3.1,0,0,1,.308-7.02L2.2-8.73a5.554,5.554,0,0,0-4.515-1.98A5.431,5.431,0,0,0-8.092-5.25,5.431,5.431,0,0,0-2.317.21ZM6.458-2.3v-1.92h4.665v-2.22H6.458V-8.2h5.3v-2.3H3.518V0h8.43V-2.3Zm14.22-8.2v5.6l-4.635-5.6H13.6V0h2.91V-5.595L21.143,0h2.445V-10.5ZM27.923,0h2.97V-8.145H34.1V-10.5H24.7v2.355h3.225Zm10.23-2.3v-1.92h4.665v-2.22H38.153V-8.2h5.295v-2.3H35.212V0h8.43V-2.3ZM51.787,0h3.18L52.7-3.3a3.484,3.484,0,0,0,2.055-3.315c0-2.4-1.8-3.885-4.665-3.885h-4.8V0h2.97V-2.79h1.62Zm-.03-6.615c0,.96-.615,1.53-1.845,1.53h-1.65V-8.16h1.65C51.143-8.16,51.757-7.59,51.757-6.615Z" transform="translate(1749 1833)" fill="rgba(0,83,167,0.9)"/>
    <path id="question-circle" d="M32.275-4.332v-6.916a1.122,1.122,0,0,0-.324-.828,1.122,1.122,0,0,0-.828-.324H24.206a1.122,1.122,0,0,0-.828.324,1.122,1.122,0,0,0-.324.828v6.916a1.122,1.122,0,0,0,.324.828,1.122,1.122,0,0,0,.828.324h6.916A1.122,1.122,0,0,0,31.95-3.5,1.122,1.122,0,0,0,32.275-4.332ZM41.5-28.538a9.666,9.666,0,0,0-2-5.871,13.641,13.641,0,0,0-4.989-4.178,13.681,13.681,0,0,0-6.124-1.477,14.71,14.71,0,0,0-13.364,7.672,1.029,1.029,0,0,0,.288,1.513l4.755,3.6a1.017,1.017,0,0,0,.684.216,1.062,1.062,0,0,0,.9-.432,17.967,17.967,0,0,1,3.1-3.314,5.244,5.244,0,0,1,3.1-.865,5.275,5.275,0,0,1,3.08.937,2.623,2.623,0,0,1,1.351,2.125,3.23,3.23,0,0,1-.72,2.2A7.285,7.285,0,0,1,29.1-24.792a12.337,12.337,0,0,0-4.16,3.116,6.666,6.666,0,0,0-1.891,4.521v1.3a1.122,1.122,0,0,0,.324.828,1.122,1.122,0,0,0,.828.324h6.916a1.122,1.122,0,0,0,.828-.324,1.122,1.122,0,0,0,.324-.828,3.429,3.429,0,0,1,.774-1.783,6.083,6.083,0,0,1,1.963-1.783q1.153-.648,1.765-1.027a15.168,15.168,0,0,0,1.657-1.261,8.362,8.362,0,0,0,1.6-1.729,9.511,9.511,0,0,0,1.009-2.179A9.066,9.066,0,0,0,41.5-28.538Zm13.832,6.916a27.062,27.062,0,0,1-3.71,13.886A27.54,27.54,0,0,1,41.55,2.332a27.062,27.062,0,0,1-13.886,3.71,27.062,27.062,0,0,1-13.886-3.71A27.54,27.54,0,0,1,3.71-7.736,27.062,27.062,0,0,1,0-21.622,27.062,27.062,0,0,1,3.71-35.508,27.54,27.54,0,0,1,13.778-45.576a27.062,27.062,0,0,1,13.886-3.71,27.062,27.062,0,0,1,13.886,3.71A27.54,27.54,0,0,1,51.618-35.508,27.062,27.062,0,0,1,55.328-21.622Zm0,0" transform="translate(1721 1802.765)" fill="#0053a7"/>
  </g>
</svg>
