<svg xmlns="http://www.w3.org/2000/svg" width="164" height="159" viewBox="0 0 164 159">
  <g id="Group_201" data-name="Group 201" transform="translate(-1577 -1507)">
    <g id="Union_3" data-name="Union 3" transform="translate(1577 1507)" fill="#fff">
      <path d="M 82.75975799560547 151.4659118652344 L 69.11900329589844 120.0431365966797 L 68.33527374267578 118.2377471923828 L 66.36711120605469 118.2377471923828 L 3 118.2377471923828 L 3 3 L 161 3 L 161 118.2377471923828 L 99.15145111083984 118.2377471923828 L 97.1832275390625 118.2377471923828 L 96.39952087402344 120.0432052612305 L 82.75975799560547 151.4659118652344 Z" stroke="none"/>
      <path d="M 82.75967407226562 143.9318389892578 L 93.64760589599609 118.8486557006836 L 95.21499633789062 115.2377395629883 L 99.15145111083984 115.2377395629883 L 158 115.2377395629883 L 158 6 L 6 6 L 6 115.2377395629883 L 66.36710357666016 115.2377395629883 L 70.30342102050781 115.2377395629883 L 71.87089538574219 118.8485260009766 L 82.75967407226562 143.9318389892578 M 82.75986480712891 159 L 66.36710357666016 121.2377395629883 L 0 121.2377395629883 L 0 0 L 164 0 L 164 121.2377395629883 L 99.15145111083984 121.2377395629883 L 82.75986480712891 159 Z" stroke="none" fill="#0053a7"/>
    </g>
    <path id="Path_260" data-name="Path 260" d="M-47.107.21c3.12,0,4.65-1.56,4.65-3.39,0-3.87-5.955-2.67-5.955-4.275,0-.525.45-.945,1.695-.945a6.2,6.2,0,0,1,2.91.81l.915-2.205a7.863,7.863,0,0,0-3.81-.915c-3.12,0-4.65,1.53-4.65,3.405,0,3.9,5.97,2.685,5.97,4.35,0,.51-.48.855-1.71.855a6.621,6.621,0,0,1-3.465-1.035l-.975,2.19A8.27,8.27,0,0,0-47.107.21ZM-34.073-10.5v3.945h-4.05V-10.5h-2.97V0h2.97V-4.1h4.05V0h2.97V-10.5ZM-23.708.21a5.491,5.491,0,0,0,5.835-5.46,5.491,5.491,0,0,0-5.835-5.46,5.491,5.491,0,0,0-5.835,5.46A5.491,5.491,0,0,0-23.708.21Zm0-2.46a2.812,2.812,0,0,1-2.835-3,2.812,2.812,0,0,1,2.835-3,2.812,2.812,0,0,1,2.835,3A2.812,2.812,0,0,1-23.708-2.25Zm20.67-8.25-2.2,6.765L-7.358-10.5h-2.73l-2.22,6.705L-14.422-10.5h-3.06L-14.077,0h3.18l2.1-6.39L-6.788,0h3.18L-.2-10.5Zm9,10.71a5.554,5.554,0,0,0,4.515-1.98L8.588-3.48A3.1,3.1,0,0,1,6.113-2.25a2.815,2.815,0,0,1-2.925-3,2.815,2.815,0,0,1,2.925-3A3.1,3.1,0,0,1,8.588-7.02l1.89-1.71a5.554,5.554,0,0,0-4.515-1.98A5.431,5.431,0,0,0,.188-5.25,5.431,5.431,0,0,0,5.963.21ZM19.478,0h3.09l-4.65-10.5H14.993L10.358,0h3.03l.825-2.04h4.44Zm-4.4-4.23,1.35-3.36,1.35,3.36ZM27.1.21c3.12,0,4.65-1.56,4.65-3.39,0-3.87-5.955-2.67-5.955-4.275,0-.525.45-.945,1.7-.945a6.2,6.2,0,0,1,2.91.81L31.313-9.8a7.864,7.864,0,0,0-3.81-.915c-3.12,0-4.65,1.53-4.65,3.405,0,3.9,5.97,2.685,5.97,4.35,0,.51-.48.855-1.71.855a6.621,6.621,0,0,1-3.465-1.035l-.975,2.19A8.27,8.27,0,0,0,27.1.21ZM36.053-2.3v-1.92h4.665v-2.22H36.053V-8.2h5.295v-2.3H33.113V0h8.43V-2.3ZM46.882.21c3.12,0,4.65-1.56,4.65-3.39,0-3.87-5.955-2.67-5.955-4.275,0-.525.45-.945,1.695-.945a6.2,6.2,0,0,1,2.91.81L51.1-9.8a7.863,7.863,0,0,0-3.81-.915c-3.12,0-4.65,1.53-4.65,3.405,0,3.9,5.97,2.685,5.97,4.35,0,.51-.48.855-1.71.855a6.621,6.621,0,0,1-3.465-1.035l-.975,2.19A8.27,8.27,0,0,0,46.882.21Z" transform="translate(1663 1604)" fill="rgba(0,83,167,0.9)"/>
    <path id="person-booth" d="M18.022,46.558a1.506,1.506,0,0,0,1.5,1.5h3a1.506,1.506,0,0,0,1.5-1.5V30.037H18.022Zm3-25.532H16.248l-4.243-4.252a5.965,5.965,0,0,0-4.243-1.755H6.007A6.009,6.009,0,0,0,0,21.036l.019,9L0,45.056a3,3,0,1,0,6,0L6.007,35.6c.084.047.15.122.235.16L8.974,39.8v5.257a3,3,0,0,0,6.007,0v-5.3a6.033,6.033,0,0,0-.629-2.685l-3.867-5.754V23.748l1.962,1.962a4.467,4.467,0,0,0,3.182,1.324h5.4a3,3,0,0,0,0-6.007ZM6.007,12.015A4.506,4.506,0,1,0,1.5,7.509,4.507,4.507,0,0,0,6.007,12.015ZM27.034,3,29.99,23.945l-2.9,14.512a3,3,0,0,0,2.947,3.6c1.427,0,2.628-.854,3.032-2.854a2.991,2.991,0,0,0,5.979-.15,3,3,0,0,0,6.007,0V0H27.034ZM18.022,3V18.022H24.03V0h-3A3,3,0,0,0,18.022,3ZM51.064,0h-3V46.558a1.506,1.506,0,0,0,1.5,1.5h3a1.506,1.506,0,0,0,1.5-1.5V3A3,3,0,0,0,51.064,0Z" transform="translate(1635.614 1527)" fill="#0053a7"/>
  </g>
</svg>
