<svg xmlns="http://www.w3.org/2000/svg" width="164" height="159" viewBox="0 0 164 159">
  <g id="Group_223" data-name="Group 223" transform="translate(-894 357)">
    <g id="Group_222" data-name="Group 222">
      <g id="Union_7" data-name="Union 7" transform="translate(894 -357)" fill="#fff">
        <path d="M 82.75975799560547 151.4659118652344 L 69.11900329589844 120.0431365966797 L 68.33527374267578 118.2377471923828 L 66.36711120605469 118.2377471923828 L 3 118.2377471923828 L 3 3 L 161 3 L 161 118.2377471923828 L 99.15145111083984 118.2377471923828 L 97.1832275390625 118.2377471923828 L 96.39952087402344 120.0432052612305 L 82.75975799560547 151.4659118652344 Z" stroke="none"/>
        <path d="M 82.75967407226562 143.9318389892578 L 93.64760589599609 118.8486557006836 L 95.21499633789062 115.2377395629883 L 99.15145111083984 115.2377395629883 L 158 115.2377395629883 L 158 6 L 6 6 L 6 115.2377395629883 L 66.36710357666016 115.2377395629883 L 70.30342102050781 115.2377395629883 L 71.87089538574219 118.8485260009766 L 82.75967407226562 143.9318389892578 M 82.75986480712891 159 L 66.36710357666016 121.2377395629883 L 0 121.2377395629883 L 0 0 L 164 0 L 164 121.2377395629883 L 99.15145111083984 121.2377395629883 L 82.75986480712891 159 Z" stroke="none" fill="#0053a7"/>
      </g>
      <path id="Path_266" data-name="Path 266" d="M-43.478-5.475a2.479,2.479,0,0,0,1.41-2.28c0-1.62-1.35-2.745-4.11-2.745h-5.37V0h5.67c2.82,0,4.32-1.065,4.32-2.88A2.651,2.651,0,0,0-43.478-5.475Zm-3.09-2.88c.99,0,1.5.345,1.5,1,0,.675-.51,1.02-1.5,1.02h-2.04V-8.355Zm.45,6.21h-2.49v-2.13h2.49c1.02,0,1.56.345,1.56,1.065S-45.1-2.145-46.118-2.145ZM-33.518,0h3.18L-32.6-3.3a3.484,3.484,0,0,0,2.055-3.315c0-2.4-1.8-3.885-4.665-3.885h-4.8V0h2.97V-2.79h1.62Zm-.03-6.615c0,.96-.615,1.53-1.845,1.53h-1.65V-8.16h1.65C-34.162-8.16-33.548-7.59-33.548-6.615Zm7.575,4.32v-1.92h4.665v-2.22h-4.665V-8.2h5.3v-2.3h-8.235V0h8.43V-2.3Zm15,2.3h3.09l-4.65-10.5h-2.925L-20.092,0h3.03l.825-2.04h4.44Zm-4.4-4.23,1.35-3.36,1.35,3.36ZM.008,0h3.45L-1.057-5.85l4.29-4.65H-.037L-4.1-6.135V-10.5h-2.94V0H-4.1V-2.625l1.11-1.185ZM11.6,0h3.09l-4.65-10.5H7.118L2.483,0h3.03l.825-2.04h4.44ZM7.208-4.23l1.35-3.36,1.35,3.36ZM28.583-10.5l-2.2,6.765L24.263-10.5h-2.73l-2.22,6.705L17.2-10.5h-3.06L17.543,0h3.18l2.1-6.39L24.833,0h3.18l3.405-10.5ZM39.982,0h3.09l-4.65-10.5H35.5L30.862,0h3.03l.825-2.04h4.44Zm-4.4-4.23,1.35-3.36,1.35,3.36ZM52.9-10.5h-2.88l-2.49,4.17-2.49-4.17H41.9l4,6.69V0h2.97V-3.765Zm-65.3,21.025A2.479,2.479,0,0,0-11,8.245c0-1.62-1.35-2.745-4.11-2.745h-5.37V16h5.67c2.82,0,4.32-1.065,4.32-2.88A2.651,2.651,0,0,0-12.405,10.525Zm-3.09-2.88c.99,0,1.5.345,1.5,1,0,.675-.51,1.02-1.5,1.02h-2.04V7.645Zm.45,6.21h-2.49v-2.13h2.49c1.02,0,1.56.345,1.56,1.065S-14.025,13.855-15.045,13.855ZM-4.1,16.21C-.99,16.21.84,14.455.84,11.32V5.5H-2.085v5.73c0,1.8-.75,2.52-1.98,2.52-1.245,0-2-.72-2-2.52V5.5H-9.03v5.82C-9.03,14.455-7.2,16.21-4.1,16.21ZM12.345,5.5H9.465L6.975,9.67,4.485,5.5H1.35l4,6.69V16h2.97V12.235ZM16.56,16.21c3.12,0,4.65-1.56,4.65-3.39,0-3.87-5.955-2.67-5.955-4.275,0-.525.45-.945,1.7-.945a6.2,6.2,0,0,1,2.91.81l.915-2.2a7.864,7.864,0,0,0-3.81-.915c-3.12,0-4.65,1.53-4.65,3.4,0,3.9,5.97,2.685,5.97,4.35,0,.51-.48.855-1.71.855a6.621,6.621,0,0,1-3.465-1.035l-.975,2.19A8.27,8.27,0,0,0,16.56,16.21Z" transform="translate(980 -271)" fill="rgba(0,83,167,0.9)"/>
      <path id="money" d="M24.692-14.049H37.039v-3.087H32.923v-14.4H29.258l-4.758,4.4,2.476,2.572A10.7,10.7,0,0,0,28.743-26.4h.064v9.26H24.692ZM41.154-22.28a16.25,16.25,0,0,1-.675,4.566,17.313,17.313,0,0,1-1.913,4.308A9.949,9.949,0,0,1,35.3-10.159a8.268,8.268,0,0,1-4.437,1.254,8.268,8.268,0,0,1-4.437-1.254,9.949,9.949,0,0,1-3.263-3.247,17.313,17.313,0,0,1-1.913-4.308,16.25,16.25,0,0,1-.675-4.566,16.25,16.25,0,0,1,.675-4.566,17.313,17.313,0,0,1,1.913-4.308A9.949,9.949,0,0,1,26.429-34.4a8.268,8.268,0,0,1,4.437-1.254A8.268,8.268,0,0,1,35.3-34.4a9.949,9.949,0,0,1,3.263,3.247,17.313,17.313,0,0,1,1.913,4.308A16.25,16.25,0,0,1,41.154-22.28Zm16.462,8.231V-30.511A7.93,7.93,0,0,1,51.8-32.922a7.93,7.93,0,0,1-2.411-5.819H12.346a7.93,7.93,0,0,1-2.411,5.819,7.93,7.93,0,0,1-5.819,2.411v16.462a7.93,7.93,0,0,1,5.819,2.411,7.93,7.93,0,0,1,2.411,5.819H49.385A7.93,7.93,0,0,1,51.8-11.638,7.93,7.93,0,0,1,57.616-14.049ZM61.731-40.8V-3.761a1.977,1.977,0,0,1-.611,1.447,1.977,1.977,0,0,1-1.447.611H2.058A1.977,1.977,0,0,1,.611-2.314,1.977,1.977,0,0,1,0-3.761V-40.8a1.977,1.977,0,0,1,.611-1.447,1.977,1.977,0,0,1,1.447-.611H59.673a1.977,1.977,0,0,1,1.447.611A1.977,1.977,0,0,1,61.731-40.8Zm0,0" transform="translate(945 -294.143)" fill="#0053a7"/>
    </g>
  </g>
</svg>
