<svg xmlns="http://www.w3.org/2000/svg" width="164" height="159" viewBox="0 0 164 159">
  <g id="Group_226" data-name="Group 226" transform="translate(-585 726)">
    <g id="Union_8" data-name="Union 8" transform="translate(585 -726)" fill="#fff">
      <path d="M 82.75975799560547 151.4659118652344 L 69.11900329589844 120.0431365966797 L 68.33527374267578 118.2377471923828 L 66.36711120605469 118.2377471923828 L 3 118.2377471923828 L 3 3 L 161 3 L 161 118.2377471923828 L 99.15145111083984 118.2377471923828 L 97.1832275390625 118.2377471923828 L 96.39952087402344 120.0432052612305 L 82.75975799560547 151.4659118652344 Z" stroke="none"/>
      <path d="M 82.75967407226562 143.9318389892578 L 93.64760589599609 118.8486557006836 L 95.21499633789062 115.2377395629883 L 99.15145111083984 115.2377395629883 L 158 115.2377395629883 L 158 6 L 6 6 L 6 115.2377395629883 L 66.36710357666016 115.2377395629883 L 70.30342102050781 115.2377395629883 L 71.87089538574219 118.8485260009766 L 82.75967407226562 143.9318389892578 M 82.75986480712891 159 L 66.36710357666016 121.2377395629883 L 0 121.2377395629883 L 0 0 L 164 0 L 164 121.2377395629883 L 99.15145111083984 121.2377395629883 L 82.75986480712891 159 Z" stroke="none" fill="#0053a7"/>
    </g>
    <path id="Path_269" data-name="Path 269" d="M-42.345-2.3v-1.92h4.665v-2.22h-4.665V-8.2h5.295v-2.3h-8.235V0h8.43V-2.3Zm14.7-8.2-2.91,6.84-2.85-6.84h-3.21L-32.13,0h2.925l4.5-10.5Zm6.495,8.2v-1.92h4.665v-2.22H-21.15V-8.2h5.3v-2.3H-24.09V0h8.43V-2.3Zm14.22-8.2v5.6l-4.635-5.6H-14.01V0h2.91V-5.595L-6.465,0H-4.02V-10.5ZM.315,0h2.97V-8.145h3.21V-10.5H-2.91v2.355H.315ZM18.99-10.5v3.945H14.94V-10.5H11.97V0h2.97V-4.1h4.05V0h2.97V-10.5ZM28.9.21c3.1,0,4.935-1.755,4.935-4.89V-10.5H30.915v5.73c0,1.8-.75,2.52-1.98,2.52S26.94-2.97,26.94-4.77V-10.5H23.97v5.82C23.97-1.545,25.8.21,28.9.21ZM43.92-5.475a2.479,2.479,0,0,0,1.41-2.28c0-1.62-1.35-2.745-4.11-2.745H35.85V0h5.67c2.82,0,4.32-1.065,4.32-2.88A2.651,2.651,0,0,0,43.92-5.475Zm-3.09-2.88c.99,0,1.5.345,1.5,1,0,.675-.51,1.02-1.5,1.02H38.79V-8.355Zm.45,6.21H38.79v-2.13h2.49c1.02,0,1.56.345,1.56,1.065S42.3-2.145,41.28-2.145Z" transform="translate(671 -629)" fill="rgba(0,83,167,0.9)"/>
    <g id="home-round-24px" transform="translate(634.984 -712.531)">
      <path id="Path_267" data-name="Path 267" d="M0,0H68.031V68.031H0Z" fill="none"/>
      <path id="Path_268" data-name="Path 268" d="M23.205,47.721V33.548H34.544V47.721a2.843,2.843,0,0,0,2.835,2.835h8.5a2.843,2.843,0,0,0,2.835-2.835V27.879h4.819a1.406,1.406,0,0,0,.935-2.466L30.774,4.068a2.856,2.856,0,0,0-3.8,0L3.278,25.413a1.412,1.412,0,0,0,.935,2.466H9.032V47.721a2.843,2.843,0,0,0,2.835,2.835h8.5A2.843,2.843,0,0,0,23.205,47.721Z" transform="translate(5.141 6.137)" fill="#0053a7"/>
    </g>
  </g>
</svg>
