<svg xmlns="http://www.w3.org/2000/svg" width="164" height="154" viewBox="0 0 164 154">
  <g id="Group_202" data-name="Group 202" transform="translate(-1790 -1507)">
    <g id="Union_4" data-name="Union 4" transform="translate(1790 1507)" fill="#fff">
      <path d="M 82.75977325439453 146.6647644042969 L 69.10472869873047 116.1982498168945 L 68.31006622314453 114.4252471923828 L 66.36711120605469 114.4252471923828 L 3 114.4252471923828 L 3 3 L 161 3 L 161 114.4252471923828 L 99.15145111083984 114.4252471923828 L 97.20845794677734 114.4252471923828 L 96.413818359375 116.1983413696289 L 82.75977325439453 146.6647644042969 Z" stroke="none"/>
      <path d="M 82.75965881347656 139.3295288085938 L 93.67615509033203 114.9713973999023 L 95.26544952392578 111.4252395629883 L 99.15145111083984 111.4252395629883 L 158 111.4252395629883 L 158 6 L 6 6 L 6 111.4252395629883 L 66.36710357666016 111.4252395629883 L 70.25299835205078 111.4252395629883 L 71.84231567382812 114.9712600708008 L 82.75965881347656 139.3295288085938 M 82.75986480712891 154 L 66.36710357666016 117.4252395629883 L 0 117.4252395629883 L 0 0 L 164 0 L 164 117.4252395629883 L 99.15145111083984 117.4252395629883 L 82.75986480712891 154 Z" stroke="none" fill="#0053a7"/>
    </g>
    <path id="chalkboard-teacher" d="M22.093,37.39a2.43,2.43,0,0,0-.75.116,14.012,14.012,0,0,1-4.349.734,14.024,14.024,0,0,1-4.35-.734,2.423,2.423,0,0,0-.749-.116A11.9,11.9,0,0,0,0,49.353a5.086,5.086,0,0,0,5.1,5.033H28.891a5.086,5.086,0,0,0,5.1-5.033A11.9,11.9,0,0,0,22.093,37.39Zm-5.1-3.4a10.2,10.2,0,1,0-10.2-10.2A10.2,10.2,0,0,0,16.994,33.991ZM62.882,0H22.093a5.191,5.191,0,0,0-5.1,5.268V10.2a13.442,13.442,0,0,1,6.8,1.891V6.8h37.39V37.39h-6.8v-6.8h-13.6v6.8h-8.1a13.538,13.538,0,0,1,4.216,6.8H62.882a5.191,5.191,0,0,0,5.1-5.268V5.268A5.191,5.191,0,0,0,62.882,0Z" transform="translate(1838.002 1527)" fill="#0053a7"/>
    <path id="Path_261" data-name="Path 261" d="M-60.81-10.5h-4.8V0h2.97V-2.745h1.83c2.865,0,4.665-1.485,4.665-3.87S-57.945-10.5-60.81-10.5Zm-.18,5.415h-1.65V-8.16h1.65c1.23,0,1.845.57,1.845,1.545S-59.76-5.085-60.99-5.085ZM-48.21,0h3.18l-2.265-3.3A3.484,3.484,0,0,0-45.24-6.615c0-2.4-1.8-3.885-4.665-3.885h-4.8V0h2.97V-2.79h1.62Zm-.03-6.615c0,.96-.615,1.53-1.845,1.53h-1.65V-8.16h1.65C-48.855-8.16-48.24-7.59-48.24-6.615Zm7.575,4.32v-1.92H-36v-2.22h-4.665V-8.2h5.295v-2.3H-43.6V0h8.43V-2.3ZM-29.835.21c3.12,0,4.65-1.56,4.65-3.39,0-3.87-5.955-2.67-5.955-4.275,0-.525.45-.945,1.7-.945a6.2,6.2,0,0,1,2.91.81L-25.62-9.8a7.864,7.864,0,0,0-3.81-.915c-3.12,0-4.65,1.53-4.65,3.405,0,3.9,5.97,2.685,5.97,4.35,0,.51-.48.855-1.71.855a6.621,6.621,0,0,1-3.465-1.035l-.975,2.19A8.27,8.27,0,0,0-29.835.21ZM-20.88-2.3v-1.92h4.665v-2.22H-20.88V-8.2h5.3v-2.3H-23.82V0h8.43V-2.3Zm14.22-8.2v5.6l-4.635-5.6H-13.74V0h2.91V-5.595L-6.195,0H-3.75V-10.5ZM.585,0h2.97V-8.145h3.21V-10.5H-2.64v2.355H.585ZM15.21,0H18.3L13.65-10.5H10.725L6.09,0H9.12l.825-2.04h4.44Zm-4.4-4.23,1.35-3.36,1.35,3.36ZM20.85,0h2.97V-8.145h3.21V-10.5H17.625v2.355H20.85Zm7.29,0h2.97V-10.5H28.14ZM38.52.21a5.491,5.491,0,0,0,5.835-5.46,5.491,5.491,0,0,0-5.835-5.46,5.491,5.491,0,0,0-5.835,5.46A5.491,5.491,0,0,0,38.52.21Zm0-2.46a2.812,2.812,0,0,1-2.835-3,2.812,2.812,0,0,1,2.835-3,2.812,2.812,0,0,1,2.835,3A2.812,2.812,0,0,1,38.52-2.25ZM53-10.5v5.6L48.36-10.5H45.915V0h2.91V-5.595L53.46,0h2.445V-10.5ZM61.7.21c3.12,0,4.65-1.56,4.65-3.39,0-3.87-5.955-2.67-5.955-4.275,0-.525.45-.945,1.695-.945A6.2,6.2,0,0,1,65-7.59L65.91-9.8a7.864,7.864,0,0,0-3.81-.915c-3.12,0-4.65,1.53-4.65,3.405,0,3.9,5.97,2.685,5.97,4.35,0,.51-.48.855-1.71.855a6.621,6.621,0,0,1-3.465-1.035L57.27-.945A8.27,8.27,0,0,0,61.7.21Z" transform="translate(1872 1604)" fill="rgba(0,83,167,0.9)"/>
  </g>
</svg>
