<svg xmlns="http://www.w3.org/2000/svg" width="164" height="159" viewBox="0 0 164 159">
  <g id="Group_204" data-name="Group 204" transform="translate(-1781 -1707)">
    <g id="Union_6" data-name="Union 6" transform="translate(1781 1707)" fill="#fff">
      <path d="M 82.75975799560547 151.4659118652344 L 69.11900329589844 120.0431365966797 L 68.33527374267578 118.2377471923828 L 66.36711120605469 118.2377471923828 L 3 118.2377471923828 L 3 3 L 161 3 L 161 118.2377471923828 L 99.15145111083984 118.2377471923828 L 97.1832275390625 118.2377471923828 L 96.39952087402344 120.0432052612305 L 82.75975799560547 151.4659118652344 Z" stroke="none"/>
      <path d="M 82.75967407226562 143.9318389892578 L 93.64760589599609 118.8486557006836 L 95.21499633789062 115.2377395629883 L 99.15145111083984 115.2377395629883 L 158 115.2377395629883 L 158 6 L 6 6 L 6 115.2377395629883 L 66.36710357666016 115.2377395629883 L 70.30342102050781 115.2377395629883 L 71.87089538574219 118.8485260009766 L 82.75967407226562 143.9318389892578 M 82.75986480712891 159 L 66.36710357666016 121.2377395629883 L 0 121.2377395629883 L 0 0 L 164 0 L 164 121.2377395629883 L 99.15145111083984 121.2377395629883 L 82.75986480712891 159 Z" stroke="none" fill="#0053a7"/>
    </g>
    <path id="Path_263" data-name="Path 263" d="M-43.47,0h2.97V-8.145h3.21V-10.5h-9.4v2.355h3.225Zm14.625,0h3.09l-4.65-10.5H-33.33L-37.965,0h3.03l.825-2.04h4.44Zm-4.4-4.23,1.35-3.36,1.35,3.36ZM-24.915,0h7.98V-2.355h-5.01V-10.5h-2.97Zm16.2,0h3.45L-9.78-5.85l4.29-4.65H-8.76l-4.065,4.365V-10.5h-2.94V0h2.94V-2.625l1.11-1.185ZM2.115,0h2.97V-8.145h3.21V-10.5H-1.11v2.355H2.115ZM14.55.21a5.491,5.491,0,0,0,5.835-5.46,5.491,5.491,0,0,0-5.835-5.46A5.491,5.491,0,0,0,8.715-5.25,5.491,5.491,0,0,0,14.55.21Zm0-2.46a2.812,2.812,0,0,1-2.835-3,2.812,2.812,0,0,1,2.835-3,2.812,2.812,0,0,1,2.835,3A2.812,2.812,0,0,1,14.55-2.25ZM31.155.21c3.1,0,4.935-1.755,4.935-4.89V-10.5H33.165v5.73c0,1.8-.75,2.52-1.98,2.52S29.19-2.97,29.19-4.77V-10.5H26.22v5.82C26.22-1.545,28.05.21,31.155.21ZM41.79.21c3.12,0,4.65-1.56,4.65-3.39,0-3.87-5.955-2.67-5.955-4.275,0-.525.45-.945,1.695-.945a6.2,6.2,0,0,1,2.91.81L46-9.8a7.863,7.863,0,0,0-3.81-.915c-3.12,0-4.65,1.53-4.65,3.405,0,3.9,5.97,2.685,5.97,4.35,0,.51-.48.855-1.71.855A6.621,6.621,0,0,1,38.34-3.135l-.975,2.19A8.27,8.27,0,0,0,41.79.21Z" transform="translate(1867 1804)" fill="rgba(0,83,167,0.9)"/>
    <path id="chat-alt" d="M51.218,9.152V33.761a6.152,6.152,0,0,1-6.152,6.152H29.685L14.3,52.218v-12.3H8.152A6.152,6.152,0,0,1,2,33.761V9.152A6.152,6.152,0,0,1,8.152,3H45.066A6.152,6.152,0,0,1,51.218,9.152ZM17.381,18.381H11.228v6.152h6.152Zm6.152,0h6.152v6.152H23.533Zm18.457,0H35.838v6.152H41.99Z" transform="translate(1835 1728)" fill="#0053a7" fill-rule="evenodd"/>
  </g>
</svg>
