<svg xmlns="http://www.w3.org/2000/svg" width="164" height="158.999" viewBox="0 0 164 158.999">
  <g id="Group_238" data-name="Group 238" transform="translate(-1356 724)">
    <g id="Group_237" data-name="Group 237" transform="translate(771 2)">
      <g id="Union_8" data-name="Union 8" transform="translate(585 -726)" fill="#fff">
        <path d="M 82.75942993164062 151.4656982421875 L 69.117919921875 120.0425415039062 L 68.33419799804688 118.2372055053711 L 66.36605834960938 118.2372055053711 L 2.999991655349731 118.2372055053711 L 2.999991655349731 2.999997854232788 L 160.9998168945312 2.999997854232788 L 160.9998168945312 118.2372055053711 L 99.15217590332031 118.2372055053711 L 97.18401336669922 118.2372055053711 L 96.40028381347656 120.0425872802734 L 82.75942993164062 151.4656982421875 Z" stroke="none"/>
        <path d="M 82.75936889648438 143.9319610595703 L 93.64837646484375 118.8479919433594 L 95.2158203125 115.2372055053711 L 99.15216064453125 115.2372055053711 L 157.9998016357422 115.2372055053711 L 157.9998016357422 5.999991893768311 L 6.000006198883057 5.999991893768311 L 6.000006198883057 115.2372055053711 L 66.36605834960938 115.2372055053711 L 70.30232238769531 115.2372055053711 L 71.86979675292969 118.8478851318359 L 82.75936889648438 143.9319610595703 M 82.75950622558594 158.9994201660156 L 66.36605834960938 121.2372055053711 L 6.081028914195485e-06 121.2372055053711 L 6.081028914195485e-06 -8.072702257777564e-06 L 163.9998016357422 -8.072702257777564e-06 L 163.9998016357422 121.2372055053711 L 99.15216064453125 121.2372055053711 L 82.75950622558594 158.9994201660156 Z" stroke="none" fill="#0053a7"/>
      </g>
      <g id="home-round-24px" transform="translate(634.984 -712.531)">
        <path id="Path_267" data-name="Path 267" d="M0,0H68.031V68.031H0Z" fill="none"/>
      </g>
    </g>
    <g id="film-reel-cinema-svgrepo-com" transform="translate(1411.083 -705)">
      <g id="Group_236" data-name="Group 236">
        <path id="Path_272" data-name="Path 272" d="M52.078,50.323H40.184a26.909,26.909,0,1,0-14.049,3.491,1.733,1.733,0,0,0,.2.02H52.078a1.755,1.755,0,1,0,0-3.511ZM36.953,15.042a5.275,5.275,0,0,1,7.194,1.928h0a5.266,5.266,0,1,1-7.194-1.928ZM16.881,38.792A5.266,5.266,0,1,1,18.808,31.6,5.274,5.274,0,0,1,16.881,38.792Zm1.927-16.557a5.266,5.266,0,1,1-1.927-7.194A5.266,5.266,0,0,1,18.808,22.235Zm8.109,24.577a5.266,5.266,0,1,1,5.266-5.266A5.272,5.272,0,0,1,26.917,46.812Zm0-29.257a5.266,5.266,0,1,1,5.266-5.266A5.272,5.272,0,0,1,26.917,17.555ZM36.953,38.793a5.266,5.266,0,1,1,7.194-1.929h0A5.274,5.274,0,0,1,36.953,38.793Z" fill="#0053a7"/>
      </g>
    </g>
    <path id="Path_273" data-name="Path 273" d="M-60.668,0h3.18l-2.265-3.3A3.484,3.484,0,0,0-57.7-6.615c0-2.4-1.8-3.885-4.665-3.885h-4.8V0h2.97V-2.79h1.62Zm-.03-6.615c0,.96-.615,1.53-1.845,1.53h-1.65V-8.16h1.65C-61.312-8.16-60.7-7.59-60.7-6.615Zm7.575,4.32v-1.92h4.665v-2.22h-4.665V-8.2h5.295v-2.3h-8.235V0h8.43V-2.3Zm10.08,0v-1.92h4.665v-2.22h-4.665V-8.2h5.295v-2.3h-8.235V0h8.43V-2.3ZM-35.9,0h7.98V-2.355h-5.01V-10.5H-35.9Zm23.9-.315A2.218,2.218,0,0,1-13.6.42a1.562,1.562,0,0,1-1.23-.6,5.288,5.288,0,0,0,3.57-5.07,5.491,5.491,0,0,0-5.835-5.46,5.491,5.491,0,0,0-5.835,5.46A5.375,5.375,0,0,0-18.248.12c1.755,1.83,2.88,2.415,4.59,2.415a3.705,3.705,0,0,0,2.94-1.32Zm-7.92-4.935a2.812,2.812,0,0,1,2.835-3,2.812,2.812,0,0,1,2.835,3,2.812,2.812,0,0,1-2.835,3A2.812,2.812,0,0,1-19.927-5.25ZM-4.853.21C-1.748.21.082-1.545.082-4.68V-10.5H-2.843v5.73c0,1.8-.75,2.52-1.98,2.52-1.245,0-2-.72-2-2.52V-10.5h-2.97v5.82C-9.788-1.545-7.958.21-4.853.21ZM2.092,0h2.97V-10.5H2.092Zm10.32.21a5.554,5.554,0,0,0,4.515-1.98l-1.89-1.71a3.1,3.1,0,0,1-2.475,1.23,2.815,2.815,0,0,1-2.925-3,2.815,2.815,0,0,1,2.925-3,3.1,3.1,0,0,1,2.475,1.23l1.89-1.71a5.554,5.554,0,0,0-4.515-1.98A5.431,5.431,0,0,0,6.637-5.25,5.431,5.431,0,0,0,12.412.21ZM25.3,0h3.45L24.233-5.85l4.29-4.65h-3.27L21.188-6.135V-10.5h-2.94V0h2.94V-2.625L22.3-3.81Zm10.83,0H39.1V-8.145h3.21V-10.5H32.9v2.355h3.225Zm7.29,0h2.97V-10.5h-2.97ZM53.3-10.5H48.5V0h2.97V-2.745H53.3c2.865,0,4.665-1.485,4.665-3.87S56.167-10.5,53.3-10.5Zm-.18,5.415h-1.65V-8.16h1.65c1.23,0,1.845.57,1.845,1.545S54.353-5.085,53.122-5.085ZM63.248.21c3.12,0,4.65-1.56,4.65-3.39,0-3.87-5.955-2.67-5.955-4.275,0-.525.45-.945,1.695-.945a6.2,6.2,0,0,1,2.91.81L67.463-9.8a7.864,7.864,0,0,0-3.81-.915C60.533-10.71,59-9.18,59-7.3c0,3.9,5.97,2.685,5.97,4.35,0,.51-.48.855-1.71.855A6.621,6.621,0,0,1,59.8-3.135l-.975,2.19A8.27,8.27,0,0,0,63.248.21Z" transform="translate(1439 -626)" fill="rgba(0,83,167,0.9)"/>
  </g>
</svg>
