<svg xmlns="http://www.w3.org/2000/svg" xmlns:xlink="http://www.w3.org/1999/xlink" width="243" height="73" viewBox="0 0 243 73">
  <defs>
    <filter id="Rectangle_9" x="0" y="0" width="243" height="73" filterUnits="userSpaceOnUse">
      <feOffset dy="3" input="SourceAlpha"/>
      <feGaussianBlur stdDeviation="3" result="blur"/>
      <feFlood flood-opacity="0.161"/>
      <feComposite operator="in" in2="blur"/>
      <feComposite in="SourceGraphic"/>
    </filter>
  </defs>
  <g id="Group_154" data-name="Group 154" transform="translate(-1679 -1227)">
    <g id="Group_153" data-name="Group 153" transform="translate(1368 27)">
      <g transform="matrix(1, 0, 0, 1, 311, 1200)" filter="url(#Rectangle_9)">
        <g id="Rectangle_9-2" data-name="Rectangle 9" transform="translate(9 6)" fill="#fff" stroke="#0053a7" stroke-width="2">
          <rect width="225" height="55" rx="27.5" stroke="none"/>
          <rect x="1" y="1" width="223" height="53" rx="26.5" fill="none"/>
        </g>
      </g>
      <path id="Path_47" data-name="Path 47" d="M3.416-1.82V-4.088h4.55V-5.852H3.416V-7.98H8.568V-9.8H1.162V0H8.75V-1.82ZM17.584-9.8l-3.024,7-2.982-7H9.128L13.356,0H15.6l4.242-9.8ZM22.9-1.82V-4.088h4.55V-5.852H22.9V-7.98h5.152V-9.8H20.65V0h7.588V-1.82ZM36.792-9.8v5.95L31.92-9.8H30.044V0h2.24V-5.95L37.17,0h1.862V-9.8ZM43.386,0h2.268V-7.952H48.79V-9.8H40.25v1.848h3.136ZM53.97,0h2.268V-9.8H53.97ZM65.31-9.8v5.95L60.438-9.8H58.562V0H60.8V-5.95L65.688,0H67.55V-9.8Zm12.768,0H73.836V0H76.1V-2.7h1.974c2.618,0,4.256-1.358,4.256-3.542S80.7-9.8,78.078-9.8Zm-.126,5.25H76.1v-3.4h1.848c1.386,0,2.086.63,2.086,1.708S79.338-4.55,77.952-4.55ZM92.624,0l-2.2-3.15a3.186,3.186,0,0,0,2.016-3.094c0-2.2-1.638-3.556-4.256-3.556H83.944V0h2.268V-2.73H88.3L90.188,0ZM90.146-6.244c0,1.064-.7,1.708-2.086,1.708H86.212V-7.952H88.06C89.446-7.952,90.146-7.322,90.146-6.244ZM98.98.168A5.071,5.071,0,0,0,104.342-4.9,5.071,5.071,0,0,0,98.98-9.968,5.071,5.071,0,0,0,93.618-4.9,5.071,5.071,0,0,0,98.98.168Zm0-1.932A2.989,2.989,0,0,1,95.914-4.9,2.989,2.989,0,0,1,98.98-8.036,2.99,2.99,0,0,1,102.046-4.9,2.99,2.99,0,0,1,98.98-1.764Zm13.692-.42a3.6,3.6,0,0,1-1.764.42A3.025,3.025,0,0,1,107.73-4.9a3.017,3.017,0,0,1,3.206-3.136A3.316,3.316,0,0,1,113.47-6.93l1.456-1.344a5.224,5.224,0,0,0-4.1-1.694,5.055,5.055,0,0,0-5.39,5.068A5.043,5.043,0,0,0,110.782.168a6.763,6.763,0,0,0,3.962-1.246V-5.054h-2.072ZM125.524,0l-2.2-3.15a3.186,3.186,0,0,0,2.016-3.094c0-2.2-1.638-3.556-4.256-3.556h-4.242V0h2.268V-2.73H121.2L123.088,0Zm-2.478-6.244c0,1.064-.7,1.708-2.086,1.708h-1.848V-7.952h1.848C122.346-7.952,123.046-7.322,123.046-6.244Zm6.342,4.424V-4.088h4.55V-5.852h-4.55V-7.98h5.152V-9.8h-7.406V0h7.588V-1.82ZM139.748.168c2.8,0,4.158-1.4,4.158-3.038,0-3.6-5.7-2.352-5.7-4.158,0-.616.518-1.12,1.862-1.12a5.535,5.535,0,0,1,2.716.77l.7-1.722a6.574,6.574,0,0,0-3.4-.868c-2.786,0-4.13,1.386-4.13,3.052,0,3.64,5.7,2.38,5.7,4.214,0,.6-.546,1.05-1.89,1.05a5.764,5.764,0,0,1-3.234-1.022l-.77,1.708A6.985,6.985,0,0,0,139.748.168Zm8.932,0c2.8,0,4.158-1.4,4.158-3.038,0-3.6-5.7-2.352-5.7-4.158,0-.616.518-1.12,1.862-1.12a5.535,5.535,0,0,1,2.716.77l.7-1.722a6.574,6.574,0,0,0-3.4-.868c-2.786,0-4.13,1.386-4.13,3.052,0,3.64,5.7,2.38,5.7,4.214,0,.6-.546,1.05-1.89,1.05a5.764,5.764,0,0,1-3.234-1.022l-.77,1.708A6.985,6.985,0,0,0,148.68.168Z" transform="translate(369 1231)" fill="#0053a7"/>
    </g>
    <path id="bell" d="M10.217,23.354a2.919,2.919,0,0,0,2.918-2.919H7.3A2.919,2.919,0,0,0,10.217,23.354Zm9.825-6.829c-.881-.947-2.53-2.371-2.53-7.038A7.2,7.2,0,0,0,11.675,2.41V1.46a1.459,1.459,0,1,0-2.917,0V2.41A7.2,7.2,0,0,0,2.922,9.488c0,4.666-1.649,6.091-2.53,7.038a1.425,1.425,0,0,0-.393.99,1.461,1.461,0,0,0,1.464,1.46H18.97a1.461,1.461,0,0,0,1.464-1.46A1.424,1.424,0,0,0,20.041,16.525Z" transform="translate(1704.055 1248.674)" fill="#0053a7"/>
    <path id="Path_48" data-name="Path 48" d="M5.016.1a4.168,4.168,0,0,0,3.2-1.32L7.44-1.98A3.124,3.124,0,0,1,5.076-.972,3.173,3.173,0,0,1,1.776-4.2a3.173,3.173,0,0,1,3.3-3.228,3.112,3.112,0,0,1,2.364,1l.78-.756A4.151,4.151,0,0,0,5.028-8.5,4.249,4.249,0,0,0,.576-4.2,4.246,4.246,0,0,0,5.016.1ZM9.768,0H10.92V-8.9H9.768Zm3.924-7.584a.754.754,0,0,0,.78-.768.747.747,0,0,0-.78-.732.758.758,0,0,0-.78.756A.749.749,0,0,0,13.692-7.584ZM13.116,0h1.152V-6.36H13.116Zm6.12.072A2.845,2.845,0,0,0,21.828-1.3l-.876-.552a1.983,1.983,0,0,1-1.728.912A2.107,2.107,0,0,1,17.04-3.18a2.111,2.111,0,0,1,2.184-2.232,1.983,1.983,0,0,1,1.728.912l.876-.564A2.836,2.836,0,0,0,19.236-6.42a3.178,3.178,0,0,0-3.36,3.24A3.187,3.187,0,0,0,19.236.072ZM28.092,0h1.416l-2.94-3.732L29.244-6.36H27.852L24.384-3.192V-8.9H23.232V0h1.152V-1.74L25.7-2.964Zm9.156-6.42A2.758,2.758,0,0,0,35-5.46V-8.9H33.852V0H35V-3.276A1.889,1.889,0,0,1,37.02-5.388c1.092,0,1.716.612,1.716,1.86V0h1.152V-3.66A2.464,2.464,0,0,0,37.248-6.42Zm10.56,3.276A3.067,3.067,0,0,0,44.664-6.42a3.115,3.115,0,0,0-3.192,3.24A3.184,3.184,0,0,0,44.892.072,3.192,3.192,0,0,0,47.4-.96L46.764-1.7a2.375,2.375,0,0,1-1.836.768,2.154,2.154,0,0,1-2.3-1.86h5.16C47.8-2.9,47.808-3.048,47.808-3.144Zm-3.144-2.3A1.983,1.983,0,0,1,46.7-3.624h-4.08A1.982,1.982,0,0,1,44.664-5.448Zm5.844.156V-6.36H49.4V0h1.152V-3.168a1.9,1.9,0,0,1,2-2.148,2.034,2.034,0,0,1,.264.012V-6.42A2.428,2.428,0,0,0,50.508-5.292Zm9.42,2.148A3.067,3.067,0,0,0,56.784-6.42a3.115,3.115,0,0,0-3.192,3.24A3.184,3.184,0,0,0,57.012.072,3.192,3.192,0,0,0,59.52-.96L58.884-1.7a2.375,2.375,0,0,1-1.836.768,2.154,2.154,0,0,1-2.3-1.86H59.9C59.916-2.9,59.928-3.048,59.928-3.144Zm-3.144-2.3a1.983,1.983,0,0,1,2.04,1.824h-4.08A1.982,1.982,0,0,1,56.784-5.448ZM67.968-1.2a1.451,1.451,0,0,1-.9.3.937.937,0,0,1-1-1.068V-5.412H67.9V-6.36H66.072V-7.752H64.92V-6.36H63.84v.948h1.08V-1.92A1.815,1.815,0,0,0,66.936.072a2.173,2.173,0,0,0,1.392-.444ZM72.228.072a3.164,3.164,0,0,0,3.3-3.252,3.155,3.155,0,0,0-3.3-3.24,3.165,3.165,0,0,0-3.312,3.24A3.174,3.174,0,0,0,72.228.072Zm0-1.008A2.106,2.106,0,0,1,70.08-3.18a2.1,2.1,0,0,1,2.148-2.232A2.087,2.087,0,0,1,74.364-3.18,2.1,2.1,0,0,1,72.228-.936Zm8.76-6.648a.754.754,0,0,0,.78-.768.747.747,0,0,0-.78-.732.758.758,0,0,0-.78.756A.749.749,0,0,0,80.988-7.584ZM79.536,2.4A1.9,1.9,0,0,0,81.564.288V-6.36H80.412V.312c0,.732-.336,1.116-.948,1.116a1.458,1.458,0,0,1-.936-.3l-.372.888A2.262,2.262,0,0,0,79.536,2.4ZM86.484.072a3.164,3.164,0,0,0,3.3-3.252,3.155,3.155,0,0,0-3.3-3.24,3.165,3.165,0,0,0-3.312,3.24A3.174,3.174,0,0,0,86.484.072Zm0-1.008A2.106,2.106,0,0,1,84.336-3.18a2.1,2.1,0,0,1,2.148-2.232A2.087,2.087,0,0,1,88.62-3.18,2.1,2.1,0,0,1,86.484-.936Zm5.472-6.648a.754.754,0,0,0,.78-.768.747.747,0,0,0-.78-.732.758.758,0,0,0-.78.756A.749.749,0,0,0,91.956-7.584ZM91.38,0h1.152V-6.36H91.38Zm6.744-6.42A2.726,2.726,0,0,0,95.832-5.4v-.96h-1.1V0H95.88V-3.276A1.889,1.889,0,0,1,97.9-5.388c1.092,0,1.716.612,1.716,1.86V0h1.152V-3.66A2.464,2.464,0,0,0,98.124-6.42Z" transform="translate(1737 1274)" fill="#3e3e3e"/>
  </g>
</svg>
