<svg xmlns="http://www.w3.org/2000/svg" xmlns:xlink="http://www.w3.org/1999/xlink" width="185.283" height="40.882" viewBox="0 0 185.283 40.882">
  <defs>
    <clipPath id="clip-path">
      <rect id="Rectangle_184" data-name="Rectangle 184" width="185.283" height="40.882" transform="translate(0.001 0)" fill="none"/>
    </clipPath>
  </defs>
  <g id="Group_191" data-name="Group 191" transform="translate(-0.001)">
    <path id="Path_260" data-name="Path 260" d="M96.286,14.667v25.6H114.78V35.025H102.6v-5h12.12v-5.2H102.6V19.91h12.18V14.667Z" fill="#fff"/>
    <g id="Group_190" data-name="Group 190">
      <g id="Group_189" data-name="Group 189" clip-path="url(#clip-path)">
        <path id="Path_261" data-name="Path 261" d="M160.075,23.555a8.566,8.566,0,0,0-1.382-4.845,8.013,8.013,0,0,0-2.945-2.624,11.384,11.384,0,0,0-2.939-1.052,16.033,16.033,0,0,0-2.367-.326c-.422-.028-.855-.041-1.3-.041h-9.462v25.6h6.513V32.854l2.5-.042c7.333,0,11.388-3.277,11.388-9.257m-14.05,4.26h0V19.828h2.621a7.081,7.081,0,0,1,3.009.55,3.637,3.637,0,0,1,.7.428,3.083,3.083,0,0,1,.761.867,3.265,3.265,0,0,1,.175.35,4.259,4.259,0,0,1,.314,1.7,4.857,4.857,0,0,1-.17,1.329,3.3,3.3,0,0,1-.761,1.379,3.333,3.333,0,0,1-.615.515,4.895,4.895,0,0,1-1.706.664,9.008,9.008,0,0,1-1.705.168Z" fill="#fff"/>
        <path id="Path_262" data-name="Path 262" d="M138.044,36.894l-6.6-9.693,6.6-9.563V14.666h-5.2l-5.284,8.316L122.4,14.666h-5.987v2.01l7.215,10.771-7.215,10.5v2.317h5.535l5.531-8.724,5.448,8.724h5.119Z" fill="#fff"/>
        <path id="Path_263" data-name="Path 263" d="M171.889,14.053a13.163,13.163,0,0,0-10.97,5.333,10.812,10.812,0,0,1,.787,4.17,10.16,10.16,0,0,1-2.88,7.559c1.386,6.35,6.529,9.768,12.981,9.768,7.619,0,13.477-5.407,13.477-13.517,0-8.643-5.776-13.313-13.395-13.313m.041,21.587c-4.382,0-6.922-3.359-6.922-8.274,0-4.793,2.457-8.07,6.8-8.07s6.923,3.318,6.923,8.233c0,4.793-2.5,8.111-6.8,8.111" fill="#fff"/>
        <path id="Path_264" data-name="Path 264" d="M156.631,14.346V0h1.354V15.278Z" fill="#fff"/>
        <rect id="Rectangle_183" data-name="Rectangle 183" width="2.328" height="9.157" transform="translate(136.68 2.833)" fill="#fff"/>
        <path id="Path_265" data-name="Path 265" d="M146.921,5.25a4.571,4.571,0,0,0-2.316-.66A2.525,2.525,0,0,0,142,7.389a2.527,2.527,0,0,0,2.623,2.842,4.405,4.405,0,0,0,2.418-.747l.484,2.066a6.9,6.9,0,0,1-3,.659c-2.932,0-4.865-1.685-4.865-4.761a4.559,4.559,0,0,1,4.938-4.835,7.065,7.065,0,0,1,3.032.688Z" fill="#fff"/>
        <path id="Path_266" data-name="Path 266" d="M152.752,9.418c0-.615-.659-.82-1.875-1.157-1.333-.366-2.945-.982-2.945-2.814,0-1.7,1.246-2.827,3.515-2.827a6.959,6.959,0,0,1,3.429.806l-.454,1.919a6.812,6.812,0,0,0-2.959-.806c-.807,0-1.2.279-1.2.777,0,.6.836.835,1.934,1.143,1.407.38,2.871,1.025,2.871,2.769s-1.347,2.974-3.751,2.974a7.528,7.528,0,0,1-3.53-.835l.44-1.934a6.806,6.806,0,0,0,3.134.849c.822,0,1.393-.307,1.393-.864" fill="#fff"/>
        <path id="Path_267" data-name="Path 267" d="M179.576,12.21A4.473,4.473,0,0,1,174.8,7.434a4.627,4.627,0,0,1,4.8-4.821A4.467,4.467,0,0,1,184.4,7.375a4.65,4.65,0,0,1-4.82,4.835m0-7.721c-1.553,0-2.432,1.172-2.432,2.886,0,1.758.91,2.96,2.476,2.96,1.539,0,2.433-1.187,2.433-2.9,0-1.759-.923-2.945-2.477-2.945" fill="#fff"/>
        <path id="Path_268" data-name="Path 268" d="M163.155,9.324l-.893.014V11.99h-2.33V2.833h3.384c2.565,0,3.912,1.289,3.912,3.179,0,2.139-1.45,3.312-4.073,3.312m-.014-4.645H162.2V7.536l.937-.015c1.2-.014,1.772-.527,1.772-1.45s-.6-1.392-1.772-1.392" fill="#fff"/>
        <path id="Path_269" data-name="Path 269" d="M99.943,12.21c-2.931,0-4.923-1.743-4.923-4.762,0-3,1.934-4.834,4.938-4.834A7.27,7.27,0,0,1,103.4,3.4l-.733,1.948a5.292,5.292,0,0,0-2.637-.762,2.574,2.574,0,0,0-2.7,2.8c0,1.831.922,2.915,2.667,2.915a4.01,4.01,0,0,0,1.464-.278V8.679H99.21V6.833h4.366V11.36a7.777,7.777,0,0,1-3.633.85" fill="#fff"/>
        <path id="Path_270" data-name="Path 270" d="M123.473,4.679h-.938V7.536l.938-.015c1.2-.014,1.773-.527,1.773-1.45s-.6-1.392-1.773-1.392m-7.6-.044-1.216,3.59h2.387Zm4.393,6.549V2.833h3.384c2.564,0,3.912,1.289,3.912,3.179,0,2.14-1.45,3.311-4.073,3.311l-.894.015V11.99H118.23l-.674-1.948h-3.4L113.5,11.99h-3.913l-1.832-3.077L106.684,9V11.99h-2.33V2.833h3.678c2.432,0,3.706,1.128,3.706,2.9a2.685,2.685,0,0,1-1.875,2.637l1.683,2.6,2.89-8.136h2.915l2.914,8.351M107.812,7.243c1-.073,1.539-.484,1.539-1.363,0-.805-.557-1.2-1.729-1.2h-.982V7.272Z" fill="#fff"/>
        <path id="Path_271" data-name="Path 271" d="M133.557,2.833v3.56H129.88V2.833h-2.33V3.3a3.9,3.9,0,0,1,1,2.708,4.076,4.076,0,0,1-1,2.827V11.99h2.33V8.357h3.677V11.99h2.33V2.833Z" fill="#fff"/>
        <path id="Path_272" data-name="Path 272" d="M172.546,8.371a2.686,2.686,0,0,0,1.875-2.637c0-1.773-1.275-2.9-3.706-2.9h-3.679V3.2a3.812,3.812,0,0,1,1.128,2.813,3.973,3.973,0,0,1-1.128,2.931V11.99h2.33V9l1.069-.088,1.832,3.077h2.623Zm-2.052-1.128-1.172.029V4.679h.983c1.171,0,1.727.4,1.727,1.2,0,.879-.541,1.29-1.538,1.363" fill="#fff"/>
        <path id="Path_273" data-name="Path 273" d="M92.917,2.863h-7.6L77.609,15.007,70.058,2.875H56.5v0H0v37.4H56.505v0H69.4l8.2-12.785,7.837,12.77h7.477V35.333L83.286,21.175v0L92.917,7.2ZM31.023,34.778a26.273,26.273,0,0,1-12.276,2.871c-9.9,0-16.63-5.89-16.63-16.086C2.117,11.417,8.651,5.23,18.8,5.23c3.96,0,8.661.891,11.632,2.672l-2.476,6.583a17.861,17.861,0,0,0-8.909-2.574c-5.544,0-9.107,3.713-9.107,9.454,0,6.187,3.119,9.85,9.009,9.85a13.547,13.547,0,0,0,4.949-.941V25.721H16.273V19.484h14.75ZM45.047,27.9l-3.02.05v8.959H34.158V5.972H45.591c8.661,0,13.216,4.356,13.216,10.741,0,7.226-4.9,11.185-13.76,11.185m16.3,8.945V5.859L71.854,21.546Z" fill="#fff"/>
        <path id="Path_274" data-name="Path 274" d="M45,12.208H41.83v9.651L45,21.81c4.058-.049,5.989-1.782,5.989-4.9s-2.029-4.7-5.989-4.7" fill="#fff"/>
      </g>
    </g>
  </g>
</svg>
