<svg xmlns="http://www.w3.org/2000/svg" xmlns:xlink="http://www.w3.org/1999/xlink" width="225.361" height="26.479" viewBox="0 0 225.361 26.479">
  <defs>
    <clipPath id="clip-path">
      <rect id="Rectangle_167" data-name="Rectangle 167" width="225.361" height="26.479" transform="translate(328.673 353.619)" fill="none"/>
    </clipPath>
  </defs>
  <g id="Group_157" data-name="Group 157" transform="translate(-328.673 -353.619)">
    <rect id="Rectangle_164" data-name="Rectangle 164" width="2.434" height="26.479" transform="translate(492.372 353.619)" fill="#fff"/>
    <rect id="Rectangle_165" data-name="Rectangle 165" width="4.202" height="16.516" transform="translate(403.813 358.383)" fill="#fff"/>
    <g id="Group_156" data-name="Group 156">
      <g id="Group_155" data-name="Group 155" clip-path="url(#clip-path)">
        <path id="Path_49" data-name="Path 49" d="M422.284,362.743a8.235,8.235,0,0,0-4.175-1.19c-2.855,0-4.7,1.93-4.7,5.048,0,3.145,1.743,5.127,4.73,5.127a7.941,7.941,0,0,0,4.36-1.348l.873,3.726a12.433,12.433,0,0,1-5.417,1.189c-5.287,0-8.774-3.039-8.774-8.588,0-5.338,3.462-8.72,8.9-8.72a12.749,12.749,0,0,1,5.471,1.241Z" fill="#fff"/>
        <path id="Path_50" data-name="Path 50" d="M432.8,370.26c0-1.11-1.19-1.479-3.382-2.088-2.4-.66-5.312-1.769-5.312-5.073,0-3.065,2.246-5.1,6.342-5.1a12.569,12.569,0,0,1,6.184,1.453l-.819,3.461a12.287,12.287,0,0,0-5.338-1.452c-1.454,0-2.167.5-2.167,1.4,0,1.084,1.506,1.506,3.488,2.062,2.537.687,5.179,1.849,5.179,4.993s-2.431,5.365-6.765,5.365a13.565,13.565,0,0,1-6.368-1.506l.793-3.489a12.263,12.263,0,0,0,5.655,1.533c1.479,0,2.51-.555,2.51-1.559" fill="#fff"/>
        <rect id="Rectangle_166" data-name="Rectangle 166" width="2.434" height="26.478" transform="translate(439.961 353.619)" fill="#fff"/>
        <path id="Path_51" data-name="Path 51" d="M481.185,375.3c-4.889,0-8.615-3.04-8.615-8.616a8.346,8.346,0,0,1,8.668-8.693c4.915,0,8.64,3.012,8.64,8.588a8.389,8.389,0,0,1-8.693,8.721m0-13.927c-2.8,0-4.386,2.114-4.386,5.206,0,3.171,1.638,5.337,4.465,5.337,2.775,0,4.387-2.139,4.387-5.232,0-3.17-1.665-5.311-4.466-5.311" fill="#fff"/>
        <path id="Path_52" data-name="Path 52" d="M451.568,370.089l-1.613.026V374.9h-4.2V358.382h6.105c4.624,0,7.054,2.326,7.054,5.735,0,3.858-2.616,5.972-7.345,5.972m-.027-8.377H449.85v5.153l1.691-.027c2.167-.026,3.2-.951,3.2-2.616s-1.084-2.51-3.2-2.51" fill="#fff"/>
        <path id="Path_53" data-name="Path 53" d="M337.552,375.3c-5.285,0-8.879-3.145-8.879-8.588,0-5.417,3.488-8.72,8.9-8.72a13.134,13.134,0,0,1,6.211,1.426l-1.322,3.515a9.547,9.547,0,0,0-4.757-1.374c-2.959,0-4.861,1.981-4.861,5.048,0,3.3,1.664,5.258,4.809,5.258a7.233,7.233,0,0,0,2.642-.5v-2.431h-4.069V365.6h7.875v8.165a14.03,14.03,0,0,1-6.554,1.533" fill="#fff"/>
        <path id="Path_54" data-name="Path 54" d="M379.993,361.712H378.3v5.153l1.691-.026c2.167-.027,3.2-.951,3.2-2.617s-1.084-2.51-3.2-2.51m-13.711-.079-2.193,6.474h4.306Zm7.924,11.812V358.382h6.1c4.625,0,7.056,2.326,7.056,5.735,0,3.857-2.617,5.972-7.347,5.972l-1.611.026V374.9h-7.871l-1.216-3.515H363.19L362,374.9h-7.058l-3.3-5.55-1.929.159V374.9h-4.2V358.382h6.634c4.386,0,6.685,2.035,6.685,5.232a4.845,4.845,0,0,1-3.383,4.757l3.036,4.686,5.212-14.675h5.259l5.255,15.063m-22.461-7.109c1.8-.131,2.775-.872,2.775-2.458,0-1.452-1-2.166-3.118-2.166h-1.771v4.677Z" fill="#fff"/>
        <path id="Path_55" data-name="Path 55" d="M398.181,358.382V364.8h-6.633v-6.421h-4.2v.849a7.037,7.037,0,0,1,1.8,4.885,7.354,7.354,0,0,1-1.8,5.1V374.9h4.2v-6.554h6.633V374.9h4.2V358.382Z" fill="#fff"/>
        <path id="Path_56" data-name="Path 56" d="M468.5,368.371a4.845,4.845,0,0,0,3.383-4.757c0-3.2-2.3-5.232-6.685-5.232h-6.634v.66a6.893,6.893,0,0,1,2.034,5.075,7.17,7.17,0,0,1-2.034,5.286V374.9h4.2v-5.391l1.93-.159,3.3,5.55h4.729Zm-3.7-2.035-2.114.053v-4.678h1.77c2.114,0,3.119.715,3.119,2.167,0,1.586-.978,2.327-2.775,2.458" fill="#fff"/>
        <path id="Path_57" data-name="Path 57" d="M509.482,365.155H501.83v-3.1h7.691v-3.311H497.844V374.9h11.677v-3.31H501.83v-3.155h7.652Z" fill="#fff"/>
        <path id="Path_58" data-name="Path 58" d="M538.117,364.353a5.409,5.409,0,0,0-.872-3.059,5.06,5.06,0,0,0-1.86-1.657,7.2,7.2,0,0,0-1.856-.664,10.013,10.013,0,0,0-1.494-.2c-.265-.019-.54-.027-.823-.027h-5.974V374.9h4.113v-4.681l1.576-.025c4.629,0,7.19-2.069,7.19-5.845m-8.87,2.689h0V362H530.9a4.442,4.442,0,0,1,1.9.349,2.248,2.248,0,0,1,.441.269,2.057,2.057,0,0,1,.184.163,1.857,1.857,0,0,1,.3.384,1.7,1.7,0,0,1,.111.222,2.681,2.681,0,0,1,.2,1.07,3.115,3.115,0,0,1-.107.84,2.051,2.051,0,0,1-.869,1.2,3.109,3.109,0,0,1-1.077.42,5.7,5.7,0,0,1-1.077.106Z" fill="#fff"/>
        <path id="Path_59" data-name="Path 59" d="M524.208,372.774l-4.163-6.119,4.163-6.038v-1.876h-3.284l-3.336,5.25-3.258-5.25h-3.78v1.269l4.555,6.8-4.555,6.631V374.9h3.495l3.491-5.508,3.44,5.508h3.232Z" fill="#fff"/>
        <path id="Path_60" data-name="Path 60" d="M545.576,358.353a8.4,8.4,0,0,0-6.474,2.811,7.25,7.25,0,0,1,.7,3.189,6.978,6.978,0,0,1-2.266,5.455c1.085,3.556,4.158,5.485,7.985,5.485a8.21,8.21,0,0,0,8.509-8.534c0-5.458-3.647-8.406-8.457-8.406m.026,13.629c-2.767,0-4.37-2.12-4.37-5.223,0-3.027,1.55-5.1,4.292-5.1s4.372,2.1,4.372,5.2c0,3.025-1.578,5.12-4.294,5.12" fill="#fff"/>
      </g>
    </g>
  </g>
</svg>
