<svg xmlns="http://www.w3.org/2000/svg" xmlns:xlink="http://www.w3.org/1999/xlink" width="476.783" height="230.935" viewBox="0 0 476.783 230.935">
  <defs>
    <clipPath id="clip-path">
      <rect id="Rectangle_172" data-name="Rectangle 172" width="476.783" height="230.935" transform="translate(67.609 280.533)" fill="#fff"/>
    </clipPath>
  </defs>
  <g id="Group_180" data-name="Group 180" transform="translate(-67.608 -280.533)">
    <g id="Group_167" data-name="Group 167">
      <g id="Group_166" data-name="Group 166" clip-path="url(#clip-path)">
        <path id="Path_84" data-name="Path 84" d="M341.512,288.1l-3.778,6.837-1.152-6.837h-2.531l-3.815,6.837-1.114-6.837h-2.683l1.8,10.161h2.871l3.494-6.327,1.171,6.327h2.908l5.61-10.161Zm-22.282,7.876a2.106,2.106,0,0,1-2.323-2.248,3.044,3.044,0,0,1,2.984-3.343,2.091,2.091,0,0,1,2.305,2.247,3.041,3.041,0,0,1-2.966,3.344m-.188,2.436a5.838,5.838,0,0,0,6.138-5.912c0-2.758-2-4.552-5.118-4.552a5.849,5.849,0,0,0-6.139,5.912c0,2.739,2.021,4.552,5.119,4.552m-10.328-10.464a4.841,4.841,0,0,0-3.343,1.247l.226-1.1H302.8l-2.021,10.161h2.947l1.02-5.156a2.811,2.811,0,0,1,2.89-2.607c1.17,0,1.737.586,1.737,1.624a3.148,3.148,0,0,1-.076.7l-1.1,5.439h2.946l1.134-5.629a5.811,5.811,0,0,0,.132-1.227c0-2.248-1.473-3.457-3.7-3.457m-19.83,10.464c2.928,0,5.119-1.228,5.119-3.551,0-3.38-5.364-2.191-5.364-3.683,0-.548.6-1,1.964-1a5.748,5.748,0,0,1,3,.775l1.058-2.154a8.018,8.018,0,0,0-3.758-.85c-2.966,0-5.1,1.285-5.1,3.57,0,3.437,5.383,2.248,5.383,3.683,0,.6-.6.982-1.983.982a6.737,6.737,0,0,1-3.532-.963l-1.134,2.134a8.235,8.235,0,0,0,4.344,1.058m-9.453-.151h2.928L284.38,288.1h-2.928Zm3.986-11.578a1.8,1.8,0,0,0,1.964-1.813,1.563,1.563,0,0,0-1.738-1.473,1.793,1.793,0,0,0-1.945,1.756,1.576,1.576,0,0,0,1.719,1.53" fill="#fff"/>
      </g>
    </g>
    <path id="Path_85" data-name="Path 85" d="M171.662,426.652H107.64V400.689h64.345V372.994H74.293V508.222h97.692V480.527H107.64v-26.4h64.022Z" fill="#fff"/>
    <g id="Group_169" data-name="Group 169">
      <g id="Group_168" data-name="Group 168" clip-path="url(#clip-path)">
        <path id="Path_86" data-name="Path 86" d="M337.023,442.446h0V400.255H350.87q9.736,0,15.891,2.91a19.34,19.34,0,0,1,3.691,2.256,16.714,16.714,0,0,1,1.541,1.368A15.924,15.924,0,0,1,374.466,410a16.747,16.747,0,0,1,.928,1.845,22.549,22.549,0,0,1,1.657,8.963h0a25.791,25.791,0,0,1-.9,7.019,17.429,17.429,0,0,1-4.021,7.284,17.729,17.729,0,0,1-3.247,2.717,25.733,25.733,0,0,1-9.012,3.511,47.941,47.941,0,0,1-9.005.889Zm74.212-22.5c0-9.777-2.5-18.432-7.3-25.6a42.426,42.426,0,0,0-15.553-13.859,60.215,60.215,0,0,0-15.527-5.555,84.555,84.555,0,0,0-12.5-1.721q-3.338-.219-6.888-.221h-49.98V508.222H337.89V469.06l13.195-.217c38.731,0,60.15-17.309,60.15-48.9" fill="#fff"/>
      </g>
    </g>
    <path id="Path_87" data-name="Path 87" d="M294.868,490.4l-34.829-51.2,34.829-50.509v-15.7H267.394l-27.91,43.921-27.264-43.921H180.6v10.614L218.712,440.5,180.6,495.981v12.241h29.238l29.21-46.086,28.777,46.086h27.04Z" fill="#fff"/>
    <g id="Group_171" data-name="Group 171">
      <g id="Group_170" data-name="Group 170" clip-path="url(#clip-path)">
        <path id="Path_88" data-name="Path 88" d="M473.857,483.773c-23.15,0-36.563-17.742-36.563-43.706,0-25.316,12.98-42.624,35.914-42.624s36.566,17.525,36.566,43.489c0,25.316-13.2,42.841-35.917,42.841m-.215-114.024c-24.392,0-45.272,10.426-57.947,28.167a57.087,57.087,0,0,1,4.157,22.03c0,16.765-5.287,30.239-15.213,39.927,7.322,33.542,34.488,51.594,68.569,51.594,40.244,0,71.183-28.56,71.183-71.4,0-45.653-30.505-70.318-70.749-70.318" fill="#fff"/>
        <path id="Path_89" data-name="Path 89" d="M243.3,328.4c0-8.5-3.735-11.875-3.735-11.875v-5.477h12.344v18.867H271.4V311.046h12.344V359.57H271.4V340.316H251.913V359.57H239.569V339.891s3.735-3.923,3.735-11.493" fill="#fff"/>
      </g>
    </g>
    <rect id="Rectangle_175" data-name="Rectangle 175" width="12.344" height="48.524" transform="translate(287.947 311.046)" fill="#fff"/>
    <g id="Group_173" data-name="Group 173">
      <g id="Group_172" data-name="Group 172" clip-path="url(#clip-path)">
        <path id="Path_90" data-name="Path 90" d="M342.214,323.856a24.194,24.194,0,0,0-12.267-3.493c-8.384,0-13.819,5.667-13.819,14.829,0,9.239,5.124,15.062,13.9,15.062a23.354,23.354,0,0,0,12.811-3.96l2.562,10.947c-3.805,2.1-10.248,3.494-15.916,3.494-15.528,0-25.776-8.928-25.776-25.233,0-15.683,10.17-25.62,26.164-25.62a37.392,37.392,0,0,1,16.071,3.649Z" fill="#fff"/>
        <path id="Path_91" data-name="Path 91" d="M373.115,345.944c0-3.26-3.494-4.347-9.938-6.133-7.064-1.941-15.605-5.2-15.605-14.906,0-9.006,6.6-14.985,18.633-14.985a36.928,36.928,0,0,1,18.167,4.271l-2.406,10.17a36.054,36.054,0,0,0-15.683-4.27c-4.27,0-6.367,1.476-6.367,4.115,0,3.183,4.426,4.425,10.249,6.056,7.453,2.018,15.216,5.434,15.216,14.673S378.239,360.7,365.506,360.7c-7.22,0-14.208-1.863-18.711-4.425l2.33-10.249a36.054,36.054,0,0,0,16.614,4.5c4.348,0,7.376-1.63,7.376-4.581" fill="#fff"/>
      </g>
    </g>
    <path id="Path_92" data-name="Path 92" d="M393.049,371.3V295.523H400.2v80.7Z" fill="#fff"/>
    <g id="Group_175" data-name="Group 175">
      <g id="Group_174" data-name="Group 174" clip-path="url(#clip-path)">
        <path id="Path_93" data-name="Path 93" d="M466.034,334.416c5.28-.389,8.152-2.563,8.152-7.221,0-4.27-2.951-6.366-9.161-6.366h-5.2v13.742ZM452.159,327.7c-.066-8.346-4.448-12.029-4.448-12.029v-4.625H467.2c12.887,0,19.641,5.978,19.641,15.373,0,6.521-3.415,11.49-9.937,13.974l12.422,19.177h-13.9l-9.7-16.3-5.669.466V359.57H447.711V340.764s4.518-4.264,4.448-13.064" fill="#fff"/>
        <path id="Path_94" data-name="Path 94" d="M514.162,319.819c-8.23,0-12.888,6.211-12.888,15.3,0,9.317,4.814,15.683,13.12,15.683,8.153,0,12.889-6.288,12.889-15.372,0-9.317-4.892-15.606-13.121-15.606m0,40.916c-14.363,0-25.311-8.929-25.311-25.31,0-15.373,11.025-25.543,25.466-25.543s25.388,8.851,25.388,25.232c0,15.373-11.1,25.621-25.543,25.621" fill="#fff"/>
        <path id="Path_95" data-name="Path 95" d="M427.069,320.828H422.1v15.14l4.968-.078c6.367-.077,9.395-2.8,9.395-7.686s-3.184-7.376-9.395-7.376m.077,24.612-4.735.078V359.57H410.066V311.047H428c13.586,0,20.729,6.831,20.729,16.847,0,11.335-7.686,17.546-21.584,17.546" fill="#fff"/>
        <path id="Path_96" data-name="Path 96" d="M93.695,360.735c-15.527,0-26.086-9.24-26.086-25.233,0-15.916,10.247-25.62,26.163-25.62,6.212,0,13.587,1.4,18.246,4.192L108.136,324.4a28.026,28.026,0,0,0-13.975-4.037c-8.695,0-14.286,5.823-14.286,14.829,0,9.705,4.891,15.45,14.13,15.45a21.273,21.273,0,0,0,7.764-1.475v-7.143H89.813v-9.782h23.136v23.99a41.211,41.211,0,0,1-19.254,4.5" fill="#fff"/>
        <path id="Path_97" data-name="Path 97" d="M135.4,334.416c5.281-.388,8.153-2.563,8.153-7.221,0-4.27-2.95-6.366-9.16-6.366h-5.2v13.742Zm65.99,20.884V311.046h17.935c13.587,0,20.729,6.833,20.729,16.848,0,11.335-7.685,17.546-21.584,17.546l-4.735.078V359.57H190.606l-3.572-10.326H169.022l-3.494,10.326H144.792l-9.706-16.3-5.668.466V359.57H117.074V311.046h19.488c12.887,0,19.642,5.978,19.642,15.373,0,6.521-3.416,11.49-9.938,13.975l8.918,13.766L170.5,311.046h15.45Zm-23.28-34.7-6.444,19.021h12.654Zm40.283.233H213.42v15.139l4.969-.077c6.367-.078,9.395-2.795,9.395-7.686s-3.183-7.376-9.395-7.376" fill="#fff"/>
      </g>
    </g>
    <path id="Path_98" data-name="Path 98" d="M67.609,280.921v5.671h3.673v11.65h6.6v-11.65h3.675v-5.671Z" fill="#fff"/>
    <path id="Path_99" data-name="Path 99" d="M83.02,280.921h6.6v5.767h4.034v-5.767h6.6v17.321h-6.6v-6.1H89.62v6.1h-6.6Z" fill="#fff"/>
    <path id="Path_100" data-name="Path 100" d="M103.056,280.921h12.275v4.7h-5.808v1.676h5.267v4.432h-5.267v1.816h5.963v4.7h-12.43Z" fill="#fff"/>
    <g id="Group_177" data-name="Group 177">
      <g id="Group_176" data-name="Group 176" clip-path="url(#clip-path)">
        <path id="Path_101" data-name="Path 101" d="M125.632,280.921H132.1l5.7,9.062a16.391,16.391,0,0,1-.208-2.766v-6.3h6.367v17.321h-6.521l-5.649-8.989a16.655,16.655,0,0,1,.2,2.741v6.248h-6.366Z" fill="#fff"/>
        <path id="Path_102" data-name="Path 102" d="M146.668,280.921h8.78c3.855,0,5.983,1.865,5.983,4.724a3.424,3.424,0,0,1-2.849,3.586c2.494.484,3.7,1.845,3.7,4.118,0,3.2-2.315,4.893-6.86,4.893h-8.755Zm6.19,6.541h.871c1.078,0,1.644-.435,1.644-1.209s-.566-1.216-1.644-1.216h-.871Zm0,6.49h1.1c1.359,0,2.056-.506,2.056-1.377s-.7-1.383-2.056-1.383h-1.1Z" fill="#fff"/>
        <path id="Path_103" data-name="Path 103" d="M179.956,291.388c-.08-.7-.159-1.769-.287-3.178a23.448,23.448,0,0,1-.822,3.37l-2.1,6.662h-3.93l-2.107-6.662a24.561,24.561,0,0,1-.822-3.37c-.1,1.193-.18,2.257-.282,3.178l-.8,6.854h-6.472l3.132-17.321h6.806l1.312,4.289a26.856,26.856,0,0,1,1.206,5.059h.1a30.534,30.534,0,0,1,1.257-5.136l1.361-4.212h6.807l2.9,17.321h-6.465Z" fill="#fff"/>
        <path id="Path_104" data-name="Path 104" d="M196.956,291.92a8.892,8.892,0,0,0,4.6,1.795c.955,0,1.466-.34,1.466-.9,0-.8-.925-.9-2.442-1.214-3.132-.63-4.725-2.249-4.725-4.771,0-3.633,3-6.3,7.681-6.3a13.328,13.328,0,0,1,6.186,1.576l-2,4.53a6.8,6.8,0,0,0-3.774-1.355c-.924,0-1.435.311-1.435.819,0,.853,1.227.972,3.414,1.43a4.708,4.708,0,0,1,4.084,4.653c0,3.706-3.135,6.518-7.936,6.518a15.122,15.122,0,0,1-7.218-1.935Z" fill="#fff"/>
      </g>
    </g>
    <path id="Path_105" data-name="Path 105" d="M211.545,280.921h6.6v5.767h4.033v-5.767h6.6v17.321h-6.6v-6.1h-4.033v6.1h-6.6Z" fill="#fff"/>
    <g id="Group_179" data-name="Group 179">
      <g id="Group_178" data-name="Group 178" clip-path="url(#clip-path)">
        <path id="Path_106" data-name="Path 106" d="M247.759,296.086a10.695,10.695,0,0,1-14.047-.023,8.906,8.906,0,0,1,0-12.916,10.779,10.779,0,0,1,14.074,0,8.651,8.651,0,0,1,2.776,6.472,8.565,8.565,0,0,1-2.8,6.467m-3.928-6.467a3.1,3.1,0,1,0-3.079,3.273,3.029,3.029,0,0,0,3.079-3.273" fill="#fff"/>
        <path id="Path_107" data-name="Path 107" d="M262.865,292.332l-1.387,5.91h-5.755l-5.366-17.321h6.625l1.439,7.632a22.035,22.035,0,0,1,.408,3.416h.159a15.683,15.683,0,0,1,.435-2.954l1.747-8.094h4.646l1.746,8.094a15.835,15.835,0,0,1,.436,2.954h.155a22.511,22.511,0,0,1,.414-3.416l1.438-7.632h6.621l-5.364,17.321h-5.754l-1.385-5.91a16.61,16.61,0,0,1-.517-2.859h-.232a16.213,16.213,0,0,1-.509,2.859" fill="#fff"/>
      </g>
    </g>
  </g>
</svg>
