<svg xmlns="http://www.w3.org/2000/svg" width="2004.462" height="1126.592" viewBox="0 0 2004.462 1126.592">
  <g id="Group_183" data-name="Group 183" transform="translate(2.061 2.415)" opacity="0.042">
    <path id="Path_155" data-name="Path 155" d="M1999.982,1612.074c-15.74-2-30-8.233-43.742-15.7-12.3-6.682-23.96-14.675-36.6-20.6-19.624-9.206-39.214-8.093-58.325,2.846-13.835,7.919-24.551,19.037-34.918,30.8-11.219,12.728-22.227,25.752-34.5,37.41-15.094,14.335-33.314,23.83-53.5,29.393a273.009,273.009,0,0,1-57.328,9.352c-18.932,1.069-37.856,2.38-56.8,3.054-19.789.7-39.614,1.361-59.4.915-13.052-.294-26.112-2.209-39.073-4.062-13.958-2-27.912-4.284-41.677-7.314-20.073-4.42-40.11-9.131-59.916-14.612-21.883-6.058-43.851-11.782-66.248-15.3-13.892-2.18-28.091-2.718-42.18-3.238-20.134-.744-40.317-.324-60.438-1.264-24.941-1.165-49.684-4.1-73.484-12.381-21.368-7.438-41.259-17.866-60.439-29.734q-32.344-20.014-64.62-40.136c-20.3-12.635-40.7-25.191-59.266-40.312-5.437-4.429-9.639-10.641-13.559-16.594-3.9-5.922-1.985-11.718,4.031-16.084,6.08-4.412,13.183-6.022,20.338-7.243,21.206-3.62,42.613-5.207,64.082-6.407,15.142-.846,30.277-2.3,45.329-4.169,15.864-1.971,31.608-4.893,47.439-7.155,13.521-1.932,27.135-3.236,40.629-5.329,14.552-2.257,29.18-2.449,43.778-1.858,11.147.452,22.249,2.2,33.354,3.522,9.22,1.1,18.384,2.8,27.629,3.521,10.213.8,20.556,1.706,30.722.945,17.665-1.323,32.556-7.781,40.78-25.288,5.406-11.509,2.529-27.768-5.234-36.633-10.285-11.744-23.4-17.911-38.146-21.248s-29.747-4.384-44.8-5.368c-12.889-.843-25.695-2.9-38.573-4-16.919-1.444-33.084-6.161-48.915-11.71-14.374-5.039-28.28-11.459-42.256-17.581-21.592-9.458-43.02-19.4-66.214-24.385-14.913-3.2-29.951-5.811-45.319-5.866-7.3-.026-14.6-1.074-21.884-.9-18.766.442-37.525,1.209-56.279,2.036-11.3.5-22.581,1.387-33.874,2.04-12.678.733-25.369,1.268-38.037,2.131-12.865.876-25.766,1.6-38.552,3.185-25.66,3.183-50.515,9.184-72.98,22.82-18.515,11.238-36.863,22.8-55.832,33.226-16.6,9.118-33.911,16.937-51,25.15-10.156,4.883-20.522,9.329-30.719,14.129a504.734,504.734,0,0,1-66.21,25.977c-19.7,6.074-39.455,12.034-59.417,17.146-23.832,6.1-47.993,10.911-71.852,16.918-18.549,4.67-36.873,10.245-55.259,15.548-30.027,8.66-58.663,20.88-87.06,33.8-29.078,13.229-58,26.861-88.54,36.61a516.623,516.623,0,0,1-64.1,16.144c-14.274,2.614-28.446,5.806-42.75,8.227-12.613,2.134-25.347,3.552-38.026,5.3-11.292,1.555-22.56,3.308-33.878,4.635-9.7,1.136-19.443,1.849-29.177,2.641-5.723.465-11.463.716-17.195,1.064" transform="translate(0 -631.351)" fill="none" stroke="#000" stroke-linecap="round" stroke-linejoin="round" stroke-width="2"/>
    <path id="Path_156" data-name="Path 156" d="M1999.982,1473.6c-9.38-2.781-18.738-5.638-28.144-8.324-18.633-5.322-37.808-4.952-56.78-3.914-13.627.746-26.856,4.6-39.681,10-22.79,9.593-41.225,24.574-56.69,43.457-12.222,14.924-24.368,29.935-35.924,45.375-19.076,25.486-44.111,41.83-74.616,49.912a275.847,275.847,0,0,1-48.961,8.446c-15.818,1.25-31.6,3.026-47.428,4.064-15.957,1.045-31.988,2.431-47.928,1.9-16.888-.565-33.736-2.966-50.548-5.007-26.588-3.228-52.176-10.817-77.634-18.763-16.935-5.285-33.545-11.678-50.617-16.435-13.453-3.749-27.34-6.044-41.125-8.466-18.776-3.3-37.8-2.886-56.785-3.321-18.841-.432-37.708-1.178-56.288-5.059-26.443-5.523-50.46-16.118-71.386-33.393-10.41-8.594-19.783-17.918-26.181-30.172-6.857-13.134-1.233-24.8,7.942-31.349,11.661-8.329,24.857-13.251,38.59-16.57,12.208-2.951,24.548-5.893,37-7.127a173.144,173.144,0,0,1,32.31-.615c22.042,1.925,43.538,6.3,65.132,10.644,17.341,3.488,34.992,4.9,52.592,2.1a76.477,76.477,0,0,0,39.039-18.216c11.968-10.519,21.546-22.781,26.187-38.489a91.286,91.286,0,0,0,3.212-38.1c-3.01-23.674-17.38-39.017-36.2-50.933-13.563-8.587-28.86-13.293-44.734-15.741-14.566-2.246-29.168-4.261-43.769-6.274-15.623-2.154-31.464-3.244-46.843-6.526a376.217,376.217,0,0,1-49.48-14.037c-24.1-8.728-47.477-19.433-71.547-28.244-13.118-4.8-27.075-6.968-41.071-8.7-23.26-2.872-46.56-1.681-69.846-1.87-10.245-.083-20.494.7-30.745.952-16.847.413-33.705,1.181-50.543.9-11.479-.193-22.956-1.7-34.389-3.023-12.882-1.486-25.763-3.125-38.552-5.25-9.634-1.6-19.092-4.233-28.685-6.117q-14.793-2.9-29.7-5.2c-8.473-1.293-16.995-2.356-25.53-3.132-15.771-1.434-30.174,3.661-44.288,9.86a155.943,155.943,0,0,0-52.568,37.07c-11.422,12.38-20.779,26.365-29.815,40.573-10.2,16.03-21.646,31.2-35.993,43.724a228.064,228.064,0,0,1-55.682,35.527,365.323,365.323,0,0,1-53.648,19.89c-12.594,3.507-24.981,7.756-37.548,11.368-17.5,5.029-35.12,9.617-52.61,14.671-33.89,9.792-67.48,20.419-99.561,35.369-21.422,9.982-42.871,19.949-64.647,29.117-21.527,9.063-43.324,17.608-66.138,23.017-18.533,4.394-37.077,8.82-55.77,12.436-19,3.676-38.178,6.456-57.3,9.478-14.048,2.22-28.11,4.391-42.215,6.21-8.46,1.091-17.018,1.409-25.523,2.175-6.782.61-13.55,1.373-20.324,2.068" transform="translate(0 -584.108)" fill="none" stroke="#000" stroke-linecap="round" stroke-linejoin="round" stroke-width="2"/>
    <path id="Path_157" data-name="Path 157" d="M1134.581,0c2.084,7.278,4.131,14.564,6.26,21.827a188.97,188.97,0,0,0,33.346,64.967,124.215,124.215,0,0,0,44.83,35.306c14.045,6.656,28.762,11.332,44.281,12.976,9.348.99,18.792,2.347,28.126,1.951a198.667,198.667,0,0,0,63.076-12.771c11.22-4.3,22.241-9.266,34.913-7.985,6.4.647,12.262,1.543,15.019,7.976,3.177,7.411,3.284,15.185-2.642,21.164a116.173,116.173,0,0,1-28.543,20.908c-18.75,9.876-37.733,19.278-54.788,32.126-14.545,10.958-26.567,24.249-37.344,38.63a256.971,256.971,0,0,0-32.41,56.053c-5.563,13.488-9.7,27.387-9.291,42.094.443,15.924,6.35,30.048,16.062,42.619,11.227,14.534,25.9,24.788,41.661,33.827,20.556,11.792,42.933,19.415,64.678,28.454,25.07,10.421,48.355,23.3,68.348,42.059,15.635,14.673,29.009,31.143,42.068,47.959,12.686,16.337,26.617,31.186,45.875,40.011a135.283,135.283,0,0,0,33.341,9.94c24.01,4.206,48.221,4.211,72.445,4.04,12.161-.086,24.347-1.336,36.471-.838,19.479.8,39.051,1.628,58.336,4.249,24.429,3.321,47.782,11.088,70.4,21.011,23.574,10.339,46.985,21.17,71.9,28.081,16.277,4.515,32.636,8.734,48.976,13.018,17.358,4.55,34.926,8.408,52.062,13.671,23.771,7.3,46.02,17.646,65.277,34.044,22.588,19.241,35.515,43.216,40.2,72.326a201.758,201.758,0,0,1,1.688,44.71c-1.986,32-11.863,61.843-27.289,89.984-5.436,9.918-10.136,20.262-12.163,31.635-1.674,9.394,1.042,17.426,6.922,24.381,6.188,7.319,14.5,11.629,23.35,15.2,21.185,8.546,43.405,10.314,65.667,8.534,32.294-2.582,63.739-9.521,92.749-24.761a141.491,141.491,0,0,0,29.233-20.193c22.431-20.257,38.474-45.292,54.278-70.644a338.943,338.943,0,0,0,32.14-67.653c5.18-14.789,9.363-29.933,14.778-44.63,4.667-12.661,12-23.972,20.7-34.359,15.835-18.9,34.245-35.159,52.622-51.467,5.69-5.05,11.182-10.326,16.686-15.58,9.762-9.319,19.345-18.828,29.218-28.027,17.392-16.208,35.052-32.136,55.768-44.143,6.368-3.689,13.165-6.645,19.766-9.937" transform="translate(-543.653)" fill="none" stroke="#000" stroke-linecap="round" stroke-linejoin="round" stroke-width="2"/>
    <path id="Path_158" data-name="Path 158" d="M1620.676,0c.7,22.194,4.754,43.8,10.9,65.111,7.968,27.651,20.374,52.973,39.749,74.369,15.327,16.925,31.644,32.95,47.274,49.607,8.709,9.281,17.345,18.722,22.456,30.679,4.223,9.882,5.61,19.888-1.139,29.09-5.608,7.647-13.4,12.913-22.323,16.177a165.272,165.272,0,0,1-33.835,8.006,210.629,210.629,0,0,1-42.218,1.713c-11.008-.661-21.879-3.4-32.847-4.96-19.047-2.705-36.493-10.732-54.75-16.042-12.578-3.659-25.252-6.953-38.509-8.1-30.212-2.618-56.365,6.557-79.756,25.136a103.779,103.779,0,0,0-32.292,43.763c-9.111,22.9-4.836,43.664,11.035,61.888,13.218,15.178,30.558,24.565,48.863,32.431,19.57,8.409,39.133,16.882,58.324,26.114a157.415,157.415,0,0,1,39.081,26.494c13.486,12.54,26.612,25.473,39.611,38.525,6.76,6.785,12.623,14.464,19.394,21.239,19.995,20.008,43.1,34.825,71.356,40.049a223.677,223.677,0,0,0,33.337,4.1c27.254.87,54.56.295,81.8,1.415a487.732,487.732,0,0,1,53.723,4.734c26.673,4.073,51.78,12.563,76.579,22.619,24.06,9.757,48.025,19.839,72.5,28.436,15.682,5.508,32.193,8.691,48.38,12.727,27.36,6.823,54.816,13.438,80.2,26.159a157.523,157.523,0,0,1,35.069,23.74,150.934,150.934,0,0,1,36.386,49.064c5.268,11.318,8.444,23.232,10.979,35.409,4.661,22.393,4.807,45.08,3.927,67.7a295.8,295.8,0,0,1-8.618,58.346c-2.529,10.4-4.832,20.978-3.586,31.742.971,8.385,5.49,14.841,12.888,19.326a51.226,51.226,0,0,0,26.6,7.163c37.117.313,69.651-12.318,98.511-35.3,23.036-18.342,39.306-41.9,53.754-67.15,14.467-25.284,22.15-53.1,31.7-80.251,7.169-20.379,16.981-39.273,31.212-55.759,14.065-16.293,30.058-30.438,46.875-43.788,8.666-6.879,17.04-14.19,25.015-21.858,26.378-25.363,52.262-51.246,78.839-76.393a203.141,203.141,0,0,1,52-36.053c.418-.2.7-.676,1.051-1.023" transform="translate(-670.189)" fill="none" stroke="#000" stroke-linecap="round" stroke-linejoin="round" stroke-width="2"/>
    <path id="Path_159" data-name="Path 159" d="M1729.724,0c.828,11.3,3.945,22.095,7.282,32.847a156,156,0,0,0,22.045,45.246,437.626,437.626,0,0,0,28.632,35.45c10.949,12.277,22.692,23.857,34.314,35.516,9.366,9.4,19.36,18.177,28.547,27.74,10.976,11.424,21.883,23.055,29.7,36.986,6.409,11.428,10.179,23.581,6.874,36.973-2.748,11.137-10.269,18.78-18.821,25.486-12.873,10.1-28.159,14.92-43.742,18.775a261.45,261.45,0,0,1-44.279,7.387c-11.653.828-23.265,2.253-34.921,3.031-13.88.926-27.785,1.524-41.685,2.115-11.112.472-22.247,1.259-33.346.955-22.746-.622-45.451-1.731-67.771-7.081-15.329-3.674-30.8-6.984-46.376-9.335-20.758-3.133-40.9-1.053-59.416,10.217-10.391,6.323-17.932,14.779-22.4,26.111-5.39,13.667-1.733,25.656,6.263,37.036,7.69,10.944,19.026,17.258,30.31,23.32,15.184,8.158,30.869,15.382,46.3,23.076,13.777,6.867,26.226,15.758,38.03,25.552,24.083,19.982,44.671,43.592,67.281,65.1,13.261,12.614,27.63,23.905,44.28,31.782,14.511,6.865,29.879,10.884,45.81,13.207,17.322,2.526,34.677,3.054,52.126,3.086,17.2.032,34.405.332,51.584,1.077,11.488.5,22.921,2.151,34.4,2.982,14.329,1.038,28.252,4.112,42.229,7.239,20.9,4.675,40.722,12.353,60.412,20.464,25.283,10.414,50.631,20.639,77.142,27.573,20.46,5.351,40.969,10.522,61.487,15.65,28.03,7.006,54.969,16.767,78.058,34.557a187.52,187.52,0,0,1,47.153,53.472c12.619,21.288,20.66,44.234,26.773,67.906,3.392,13.132,4.834,26.757,7.518,40.086,3.537,17.569,5.682,35.44,12.871,52.187,6.186,14.412,17.426,20.947,32.948,18.817,14.374-1.972,26.277-9.024,37.44-17.387,17.91-13.418,31.5-30.821,41.584-50.566,11.168-21.861,20.756-44.524,31.509-66.606a218.375,218.375,0,0,1,42.043-59.559c16.291-16.27,34.122-30.592,52.129-44.834,22.6-17.878,43.161-38.059,63.1-58.845,7.148-7.454,13.852-15.332,20.9-22.887,7.375-7.908,14.621-15.971,22.447-23.415,17.132-16.3,35.37-31.187,56.739-41.769" transform="translate(-705.241)" fill="none" stroke="#000" stroke-linecap="round" stroke-linejoin="round" stroke-width="2"/>
    <path id="Path_160" data-name="Path 160" d="M1074.55,0c5.385,12.994,10.736,26,16.161,38.983,10.521,25.17,21.44,50.11,36.929,72.812a236.081,236.081,0,0,0,39.02,44.278c10.832,9.561,22.258,18.725,30.363,31.036a48.875,48.875,0,0,1,7.868,24.954c1.113,21.005-4.987,40.632-11.021,60.292-5.131,16.717-10.33,33.5-11.8,50.955-1.258,14.989,2.566,29.251,9.693,42.622,11.594,21.752,29.57,36.89,49.98,50,23.852,15.32,50.159,25.146,76.165,35.726,21.334,8.68,42.1,18.464,59.851,33.364,16.053,13.476,29.047,29.578,39.812,47.658,7.786,13.077,15.969,26.133,25.663,37.8,8.724,10.5,21.081,16.967,34.123,21.536a132.366,132.366,0,0,0,38.04,7.787c17.02.743,34.042,1.869,51.068,1.974,22.057.135,44.119-.619,66.179-.91a236.513,236.513,0,0,1,70.8,9.571c15.814,4.7,31.181,11.1,46.4,17.548,23.058,9.777,46.015,19.761,70.405,25.837q22.317,5.559,44.813,10.4c21.923,4.747,43.883,9.272,65.136,16.65,25.557,8.869,48.257,22.253,65.51,43.278a88.765,88.765,0,0,1,19.921,47.187c.82,7.436,2.2,14.922,1.968,22.343-1.035,32.511-7.935,63.447-26.44,90.962-8.507,12.65-17.2,25.181-25.462,37.986-4.453,6.9-8.347,14.273-8.368,22.824-.026,10.453,4.933,18.808,12.521,25.4,18.369,15.967,40.7,23.121,64.022,28.209,21.382,4.666,43.053,5.022,64.62,3.829a338.647,338.647,0,0,0,64.6-10.239c25.928-6.59,50.807-15.9,71.345-33.768,12.022-10.46,22.218-22.7,31.334-35.784,14.6-20.957,29.44-41.755,43.7-62.942,12.189-18.113,24.3-36.332,35.287-55.174,6.452-11.062,10.8-23.368,15.828-35.226,9.863-23.255,21.572-45.357,39.119-63.909,12.308-13.017,24.181-26.491,37.115-38.86,16.007-15.306,33.148-29.437,53.092-39.509,7.966-4.023,16.614-6.7,24.952-10" transform="translate(-514.889)" fill="none" stroke="#000" stroke-linecap="round" stroke-linejoin="round" stroke-width="3.42"/>
    <path id="Path_161" data-name="Path 161" d="M1852.511,1867.444c1.583-13.911,5.238-27.35,9.415-40.652a55.73,55.73,0,0,0,2.569-20.342,9.718,9.718,0,0,0-8.858-8.857,58.439,58.439,0,0,0-20.347,2.519c-17.645,5.283-35.2,11.156-53.189,14.909-16.563,3.457-33.634,4.485-50.486,6.542-20.954,2.558-42.013,1.953-63.052,2.13-19.977.168-39.96,1.181-59.924.847-17.73-.3-35.481-1.463-53.142-3.115-14.83-1.387-29.638-3.518-44.281-6.253-15.23-2.845-30.257-6.78-45.36-10.292-23.8-5.535-47.516-11.494-71.423-16.529-13.726-2.892-27.776-4.222-41.654-6.426-17.646-2.8-35.418-2.111-53.156-2.008-18.587.108-37.18,1.154-55.756.875-32.216-.482-63.909-4.27-94.364-15.934-19.392-7.427-37.909-16.52-56.268-26.117-28.365-14.829-56.743-29.66-85.491-43.724-22.965-11.235-46.584-21.124-69.739-31.983-25.555-11.985-51.6-23.231-73.464-41.695-8.737-7.378-17.458-14.854-25.483-22.981-14.193-14.373-27.338-29.886-45.948-39a87.438,87.438,0,0,0-33.349-8.824c-9.366-.577-18.794-1.432-28.128-.93-14.8.8-29.622,2.044-44.278,4.18-13.664,1.992-27.15,5.262-40.663,8.209-13.585,2.963-27.054,6.468-40.668,9.28-14.877,3.074-29.874,5.567-44.8,8.426-14.085,2.7-28.135,5.584-42.215,8.311-11.1,2.15-22.257,4.053-33.34,6.306q-16.726,3.4-33.349,7.3c-14.1,3.327-28.226,6.63-42.2,10.454-23.9,6.54-47.078,15.209-69.835,24.981-14.294,6.139-28.655,12.154-42.7,18.825-20.587,9.777-41.46,18.841-63.12,25.9-16.352,5.326-32.806,10.531-49.522,14.49-16.984,4.023-34.342,6.476-51.544,9.574-11.8,2.126-23.585,4.419-35.444,6.194-11.416,1.709-22.922,2.817-34.381,4.249-10.775,1.346-21.515,3.021-32.317,4.089C20.868,1721.4,10.42,1721.834,0,1722.529" transform="translate(0 -745.444)" fill="none" stroke="#000" stroke-linecap="round" stroke-linejoin="round" stroke-width="2"/>
    <path id="Path_162" data-name="Path 162" d="M1868.467,0c3.158,15,8.721,29.112,15.617,42.756,9.847,19.481,22.475,37.007,36.413,53.754,16.088,19.33,34.3,36.586,51.556,54.78,12.879,13.58,26.248,26.813,36.629,42.615,9.608,14.623,16.033,30.222,16.106,47.987.064,15.42-5.463,28.83-15.686,40.085-15.495,17.057-35.339,26.989-57.282,32.809-12.374,3.282-24.878,6.437-37.525,8.221-13.94,1.966-28.1,2.544-42.183,3.277-18.226.948-36.478,1.368-54.711,2.177-12.166.54-24.336,1.144-36.474,2.111-14.436,1.152-28.831,2.806-43.258,4.086-9.54.846-19.118,1.275-28.654,2.155-9.223.852-18.406,2.141-27.625,3.05-5.539.546-11.131.559-16.668,1.116-10.446,1.051-21.014,1.811-30.725,6.27-7.542,3.463-9.623,10.391-5.168,17.107a74.154,74.154,0,0,0,8.84,10.945c13.434,13.667,27.256,26.956,40.539,40.767,12.952,13.467,25.563,27.27,38.065,41.158,17.05,18.943,34.865,36.983,56.306,51.069a150.27,150.27,0,0,0,56.8,22.467,243.381,243.381,0,0,0,40.135,4.15q22.41.251,44.814,1.04c14.944.521,29.929.8,44.8,2.17,25.367,2.338,50.675,5.618,75.021,13.521,21.157,6.867,42.045,14.565,63.089,21.787,16.47,5.653,32.766,12,49.555,16.489,22.7,6.064,45.91,10.2,68.7,15.984,19.14,4.856,38.319,9.8,55.837,19.595a182.7,182.7,0,0,1,32.355,22.915c15.892,14.1,28.842,30.531,40.538,48.076,15.374,23.063,27.514,47.865,39.138,72.956,5.942,12.827,12.5,25.443,21.463,36.4,6.729,8.222,15.589,13.754,26.953,12.564,8.971-.94,16.455-5.485,23.457-10.885,11.271-8.693,19.183-20.284,27.05-31.834,15.092-22.158,29.211-45.047,46.533-65.562a333.922,333.922,0,0,1,49.361-47.055c15.453-12.125,30.808-24.392,45.819-37.055a332.98,332.98,0,0,0,28.09-26.095c13.148-13.983,25.336-28.864,38.2-43.121,15.645-17.339,31.275-34.679,48.871-50.165a307.078,307.078,0,0,1,40.2-30.152" transform="translate(-779.367)" fill="none" stroke="#000" stroke-linecap="round" stroke-linejoin="round" stroke-width="2"/>
    <path id="Path_163" data-name="Path 163" d="M2036.341,0c4.864,12.164,8.99,24.692,14.767,36.4,8.27,16.767,19.23,31.908,31.609,45.964,5.045,5.728,9.766,11.783,15.187,17.127,7.876,7.764,16.514,14.757,24.366,22.545,17.992,17.843,38.3,33.485,51.742,55.667a98.545,98.545,0,0,1,13.6,36.53c1.864,12.035,2.654,23.981.845,35.986-3.182,21.112-10.985,40.084-25.968,55.825-17.751,18.648-39.7,30.031-63.569,38.661a288.58,288.58,0,0,1-49.055,12.75,253.874,253.874,0,0,1-33.326,3.179c-19.092.747-38.215.648-57.316,1.2-15.64.454-31.312.82-46.889,2.171-18.517,1.605-36.9,4.688-54.163,11.956-10.456,4.4-19.658,10.681-23.489,22.317-2.928,8.895-.8,17.5,2.75,25.478,5.13,11.51,12.422,21.746,20.622,31.407,11.939,14.065,26.468,24.93,42.422,33.564,9.662,5.229,20.566,8.355,31.162,11.611a154.762,154.762,0,0,0,38.526,6.361c16.325.743,32.656,1.373,48.983,2.105,14.592.655,29.223.919,43.761,2.2,15.162,1.34,30.234,3.7,45.347,5.6,23.224,2.92,45.716,9.174,68.247,15.183,11.039,2.943,21.93,6.454,32.84,9.862,19.477,6.084,39.126,11.454,59.416,14.022,15.09,1.91,30.229,3.43,45.329,5.268,16.93,2.061,33.993,3.056,50.576,7.706a109.3,109.3,0,0,1,39.008,19.442c13.224,10.495,24.3,23.06,33.944,36.936,16.587,23.868,33.139,47.765,50.084,71.378a100.551,100.551,0,0,0,29.125,27.646c12.128,7.407,25.025,8.1,37.983,2.578,12.362-5.267,22.946-13.461,32.81-22.4,29.654-26.872,59.5-53.426,92.16-76.753,21.05-15.033,40.729-32.039,57.841-51.545,14.162-16.144,27.292-33.2,40.749-49.955,10.534-13.117,20.8-26.447,31.3-39.589,14.213-17.786,29.718-34.513,42.3-53.635a126.529,126.529,0,0,0,18.044-43.881c.9-4.228.781-8.671,1.125-13.016,1.044-13.206,1.838-26.44,3.274-39.6.448-4.1,2.632-8.01,4.022-12.006" transform="translate(-878.456)" fill="none" stroke="#000" stroke-linecap="round" stroke-linejoin="round" stroke-width="2"/>
    <path id="Path_164" data-name="Path 164" d="M2094.3,0c3.367,13.968,9.722,26.684,16.716,39.076,9.215,16.325,20.948,30.889,33.989,44.18,9.974,10.165,21.362,18.945,32.155,28.3,16.731,14.5,34.252,28.2,48.892,44.915,12.08,13.788,19.9,29.909,21.337,48.415.956,12.29,1.958,24.764.917,36.984-2.127,24.974-8.7,48.826-24.859,68.764a137.349,137.349,0,0,1-41.582,34.513c-22.111,11.986-45.608,20.4-69.894,26.356-13.63,3.344-27.746,4.706-41.64,6.974-14.339,2.341-28.8,2-43.251,2.129-18.241.158-36.517.028-54.7,1.173-17.95,1.13-36,2.929-52.624,10.809-10.065,4.77-18.465,11.407-19.711,23.433-.882,8.508,2.235,16.3,6.688,23.434,14.858,23.817,37.58,36.7,63.614,44.11,11.8,3.357,24.2,4.871,36.432,6.33,11.385,1.357,22.907,1.616,34.377,2.2,9.374.478,18.778.454,28.134,1.128,16.343,1.178,32.66,2.725,48.988,4.111,25.18,2.137,49.936,6.892,74.5,12.579,24.215,5.6,48.224,12.113,72.485,17.492,10.724,2.378,21.817,3.336,32.8,4.238,13.515,1.11,27.084,1.906,40.639,2.069,14.063.169,28.138-.856,42.208-.859a116.732,116.732,0,0,1,53.178,12.393c12.969,6.515,23.069,16.351,32.222,27.21,11.36,13.476,18.872,29.378,27.187,44.766,12.375,22.9,24.737,45.876,43.291,64.591a63.457,63.457,0,0,0,22.336,14.672c12.851,4.95,24.86,2.6,37.065-2.994,14.626-6.7,26.826-16.816,39.489-26.273,21.547-16.092,42.6-32.849,64.2-48.866,20.76-15.394,41.188-31.256,58.133-50.793,14.578-16.808,27.986-34.678,41.247-52.57,14.839-20.019,29.064-40.5,43.3-60.952,10.939-15.71,20.318-32.252,25.08-51.053a131.206,131.206,0,0,0,4.225-28.676c.375-13.39.542-26.858,2.177-40.122,2.737-22.2,15.157-37.846,35.253-47.48.418-.2.7-.677,1.051-1.024" transform="translate(-910.366)" fill="none" stroke="#000" stroke-linecap="round" stroke-linejoin="round" stroke-width="2"/>
    <path id="Path_165" data-name="Path 165" d="M2155.349,0c3.822,8.515,7.413,17.142,11.516,25.519,6.983,14.26,16.433,26.84,27.03,38.617,20.445,22.723,45.825,39.461,69.851,57.841,13.655,10.446,27,21.2,36.986,35.463,8.443,12.057,13.408,25.34,14.084,40.137.286,6.259,1.427,12.578.883,18.755-1.272,14.464-3.4,28.851-5.041,43.284a137.819,137.819,0,0,1-9.955,37,113.845,113.845,0,0,1-20.751,32.91c-20.588,22.947-47.247,36.074-75.1,47.38a399.14,399.14,0,0,1-77.164,22.187c-14.519,2.707-29.46,3.458-44.256,4.286-15.777.883-31.639.313-47.4,1.324-12.334.792-24.823,1.73-36.482,6.628-7.242,3.043-13.4,6.639-15.469,15.546-.927,3.985.6,6.717,1.613,9.382,3.771,9.933,12.237,15.732,21.2,20.3a108.061,108.061,0,0,0,39.553,11.513c18.561,1.665,37.172,2.768,55.75,4.263,15.816,1.272,31.677,2.268,47.405,4.277,17.269,2.2,34.455,5.177,51.594,8.271,23.667,4.273,47.234,9.106,70.891,13.441,12.974,2.377,25.989,4.745,39.089,6.159a292.581,292.581,0,0,0,38.54,2c11.492-.285,22.926-2.624,34.4-3.915,10.236-1.151,20.485-2.216,30.746-3.111a166.7,166.7,0,0,1,19.275-1,136.457,136.457,0,0,1,58.942,14.925c24.984,12.754,42.725,31.744,52.528,57.994,4.959,13.28,8.954,26.933,14.229,40.079,7.686,19.156,17.021,37.5,34.332,50.02,13.086,9.462,27.26,11.311,42.723,5.4,18.83-7.2,34.566-19.365,50.961-30.444,16.091-10.874,31.584-22.63,47.511-33.754a344.224,344.224,0,0,0,37.562-30.2c19.172-17.842,34.662-38.659,49.339-60.093q20.212-29.516,39.078-59.948a186.228,186.228,0,0,0,23.367-54.72c2.118-8.777,2.6-18.005,3.233-27.07.984-14.055.547-28.268,2.4-42.19a65.1,65.1,0,0,1,22.625-41.813c11.075-9.547,24.377-14.459,37.584-19.734" transform="translate(-950.566)" fill="none" stroke="#000" stroke-linecap="round" stroke-linejoin="round" stroke-width="3.42"/>
    <path id="Path_166" data-name="Path 166" d="M1981.739,0c4.689,12.511,8.512,25.441,14.279,37.434,8.061,16.765,18.758,32.015,30.488,46.536,21.244,26.3,46.575,48.641,69.826,72.992,11.052,11.575,21.266,23.815,28.269,38.492a101.472,101.472,0,0,1,9.473,34.429c1.7,17.456-1.237,33.571-9.461,49.07-7.9,14.895-19.63,25.993-33.52,34.756A171.821,171.821,0,0,1,2042.16,335.1c-10.973,2.818-22.178,4.78-33.33,6.846-19.457,3.606-39.134,4.245-58.878,4.271-15.46.021-30.932.342-46.374,1.065-13.221.619-26.427,1.8-39.6,3.1-10.974,1.087-22.006,2.138-32.808,4.248-15.3,2.987-30.373,6.66-43.879,15.378-14.549,9.391-16.054,22.324-10.791,36.065,5.768,15.061,15.075,28.129,25.007,40.637,15.319,19.294,32.978,36.059,54.072,49.146,13.833,8.582,28.728,14.245,44.363,18.1a222.618,222.618,0,0,0,53.137,6.379c12.159.017,24.322.526,36.476,1.007,14.6.579,29.237.8,43.76,2.2a560.978,560.978,0,0,1,56.343,7.944c29.306,5.849,57.28,15.654,85.459,25.133,18.845,6.339,38.017,11.865,57.321,16.631,13.991,3.454,28.444,5.026,42.679,7.507,21.5,3.747,43.247,6.5,63.564,15.136a136.032,136.032,0,0,1,37.054,22.86c28.274,24.839,47.849,56.476,68.759,87.1,10.144,14.855,19.909,30.043,32.856,42.715,6.3,6.169,13.579,11.083,22.373,13.033a32.555,32.555,0,0,0,19.79-2.046c10.387-4.289,19.1-11.084,27.045-18.817,6.863-6.682,13.221-13.879,19.865-20.789,10.218-10.63,20.426-21.269,30.751-31.794,17.425-17.765,37.058-32.914,56.739-48.036q18.355-14.1,35.929-29.218a284.592,284.592,0,0,0,23.946-22.943c11.661-12.692,22.783-25.887,33.939-39.034,10.218-12.042,19.787-24.657,30.353-36.377,13.49-14.964,27.57-29.4,41.631-43.839,9.856-10.118,20.107-19.851,30.182-29.756" transform="translate(-849.909)" fill="none" stroke="#000" stroke-linecap="round" stroke-linejoin="round" stroke-width="3.42"/>
    <path id="Path_167" data-name="Path 167" d="M1765.487,1899.874c-7.3-2.433-14.456-5.466-21.921-7.145-9.06-2.038-18.356-3.107-27.59-4.277-9.874-1.252-19.777-2.4-29.7-3.1-9.7-.69-19.447-.857-29.177-1.1-16.847-.417-33.747-.034-50.532-1.254-16.566-1.2-33.032-3.865-49.515-6.089-26.572-3.587-52.323-10.851-78.178-17.664-17.843-4.7-35.686-9.465-53.691-13.468-15.155-3.369-30.542-5.694-45.83-8.459-15.678-2.835-31.562-3.261-47.39-4.538-14.382-1.16-28.51.709-42.761.626-16.147-.094-32.3,2.02-48.464,2.8-13.36.648-26.8,1.659-40.11.9a238.69,238.69,0,0,1-67.711-13.473c-14.642-5.284-29.171-11.078-43.225-17.752-20.765-9.861-41.078-20.677-61.555-31.142-19.3-9.865-38.329-20.3-57.909-29.573-21.784-10.315-43.965-19.812-66.139-29.275-30.862-13.171-60.358-28.67-87.57-48.47-17.894-13.02-35.33-26.832-55.713-36.032a161.868,161.868,0,0,0-35.41-11.064c-20.232-4.008-40.644-3.329-60.986-2.816-14.443.364-28.836,2.618-43.258,3.957-8.33.773-16.692,1.237-25.007,2.14-11.308,1.227-22.577,2.82-33.879,4.1-7.453.845-14.952,1.275-22.4,2.15-9.05,1.063-18.077,2.343-27.1,3.629-8,1.14-16.011,2.254-23.966,3.669-13.919,2.478-27.877,4.823-41.673,7.881-14.513,3.216-29.071,6.522-43.22,11.019-18.629,5.92-37.157,12.359-55.229,19.791-32.525,13.375-64.552,27.958-97.03,41.449-21.32,8.856-43.679,14.684-66.152,19.843-12.411,2.849-24.98,5.029-37.507,7.349-13.7,2.538-27.414,5.057-41.171,7.268-10.378,1.667-20.827,2.9-31.259,4.209-14.409,1.8-28.819,3.609-43.255,5.175-6.218.674-12.5.714-18.753,1.109-4.52.286-9.033.683-13.549,1.031" transform="translate(0 -777.874)" fill="none" stroke="#000" stroke-linecap="round" stroke-linejoin="round" stroke-width="2"/>
    <path id="Path_168" data-name="Path 168" d="M546.28,0c11.475,16.475,26.521,28.9,43.741,39.038,16.459,9.691,34.184,15.905,52.667,20.2,21.439,4.98,43.253,5.943,65.129,5.1,9.58-.367,19.093-2.194,28.669-2.947,11.966-.937,23.97-2.028,35.951-1.955,9.821.059,18.492,3.7,26.185,10.59,13.384,12,20.412,27.794,27.933,43.323,7.3,15.077,13.487,30.7,21.058,45.636,7.539,14.869,15.81,29.408,24.463,43.666,8.5,14.014,15.636,28.606,17.824,44.809,1.067,7.9,2.355,16.045.568,24.444-1.865,8.762-1.694,17.961-2.33,26.975-.428,6.059-.758,12.124-1.049,18.192-.94,19.583,5.563,36.915,16.141,53.021,14.814,22.555,35.17,39.405,57.436,53.885a487.79,487.79,0,0,0,47.4,27.021c20.127,10.089,41.008,18.671,61.371,28.308a123.4,123.4,0,0,1,46.758,38.009c7.739,10.393,12.184,22.689,15.911,35.187a215.814,215.814,0,0,0,10.49,29.06c4.96,10.714,13.528,18.546,23.779,24.539,14.4,8.423,30.061,13.049,46.4,15.5a271.065,271.065,0,0,0,28.134,3.071c16.831.745,33.692,1,50.542,1.08,9.9.049,19.8-.687,29.7-.952,15.11-.4,30.269-1.6,45.324-.84,20.974,1.062,41.747,3.743,62.1,9.928a375.4,375.4,0,0,1,44.17,16.988c22.5,10.07,45.519,18.659,69.392,24.693,11.759,2.971,23.94,4.268,35.915,6.4,29.317,5.225,58.909,9.243,87.027,19.742,22.151,8.269,40.889,21.253,54.62,40.613a66.991,66.991,0,0,1,12.538,34.244c.666,9.334,1.7,18.788.907,28.048a123.337,123.337,0,0,1-16.422,52.546c-16.717,28.529-42.585,47.187-69.368,64.932-5.859,3.882-11.974,7.4-17.666,11.507-6.463,4.663-6.735,12.3.078,18.518a141.982,141.982,0,0,0,20.793,15.612c12.944,8.036,26.029,15.953,39.6,22.854a273.611,273.611,0,0,0,72.9,25c11.714,2.236,23.568,3.91,35.429,5.179,11.064,1.183,22.236,2.208,33.336,1.994,13.216-.25,26.414-1.795,39.6-2.964,9.915-.878,19.865-1.662,29.689-3.191,10.322-1.607,20.481-4.231,30.769-6.092a163.976,163.976,0,0,0,50.041-17.671,116.51,116.51,0,0,0,35.807-30.288c16.611-21.127,31.822-43.365,48.737-64.236a286.14,286.14,0,0,1,83.671-69.911c23.846-13.328,46.918-28.029,70.454-41.918,10.153-5.992,20.716-11.288,32.3-13.983,2.8-.652,5.883-.1,8.836-.1" transform="translate(-261.759)" fill="none" stroke="#000" stroke-linecap="round" stroke-linejoin="round" stroke-width="2"/>
    <path id="Path_169" data-name="Path 169" d="M263.677,0c20.674,27.119,46.766,47.139,78.134,60.545a259.748,259.748,0,0,0,62.048,17.608c14.728,2.317,29.56,3.981,44.276,6.366,14.929,2.419,30,4.23,43.821,11.33,13.42,6.9,23.1,17.306,30.15,30.329,10.187,18.83,15.983,39.234,20.88,59.932,3.126,13.207,7.067,26.286,9.158,39.655,2.229,14.247,4.041,28.731,1.271,43.236-2.121,11.114-4.244,22.229-6.244,33.366-2.849,15.859.988,29.846,11.4,42.264,12.416,14.809,26.629,27.658,41.748,39.565,15.753,12.406,31.423,24.929,47.452,36.97,21.675,16.283,44.436,30.96,67.662,44.953,19.115,11.516,38.11,23.258,56.749,35.522,9.131,6.008,17.014,13.645,22.02,23.824a33.6,33.6,0,0,1-5.308,36.991c-13.932,15.68-31.681,22.512-52.58,22.547-31.651.052-62.09-5.941-91.721-16.748-20.286-7.4-40.551-14.875-60.99-21.831a251.832,251.832,0,0,0-48.972-11.417,146.908,146.908,0,0,0-40.1-.091,192.865,192.865,0,0,0-49.48,14.1c-14.736,6.446-29.268,13.367-43.792,20.285q-45.051,21.456-91.677,39.2c-31.155,11.792-61.992,24.417-93.847,34.278a476.438,476.438,0,0,1-56.789,14.134c-15.858,2.844-31.591,6.381-47.44,9.276-16.46,3.006-32.991,5.632-49.5,8.385-14.759,2.463-29.509,4.994-44.3,7.244-5.85.89-11.8,1.1-17.708,1.624" fill="none" stroke="#000" stroke-linecap="round" stroke-linejoin="round" stroke-width="2"/>
    <path id="Path_170" data-name="Path 170" d="M1544.541,1919.28c-5.037-1.564-10.171-2.873-15.1-4.733a927.559,927.559,0,0,0-105.323-32.617c-15.709-3.881-31.908-5.789-47.9-8.516-20.541-3.5-41.292-3.529-62.006-3-10.442.265-20.849,1.943-31.269,2.994-10.249,1.034-20.5,2.059-30.745,3.132-13.03,1.365-26.028,3.262-39.092,4-9.158.516-18.413-.364-27.606-.93-6.792-.418-13.541-1.483-20.329-2-14.2-1.083-27.68-5.355-41.14-9.494-17.766-5.464-34.849-12.711-51.64-20.717-22.358-10.659-43.875-22.794-65.159-35.424-11.89-7.056-24.156-13.508-36.457-19.835-14.99-7.709-30.056-15.3-45.345-22.392-16.509-7.657-33.487-14.309-49.94-22.078q-25.6-12.087-50.554-25.519c-27.567-14.805-52.583-33.994-81.267-46.988a173.011,173.011,0,0,0-44.38-13.281A272.662,272.662,0,0,0,667,1658.734c-19.091-.747-38.22-1.356-57.314-1-19.988.368-39.956,1.9-59.929,2.99-11.468.625-22.968,1-34.383,2.174-12.553,1.292-25.064,3.128-37.52,5.175-15.329,2.518-30.671,5.086-45.839,8.408-12.127,2.656-24,6.453-35.983,9.779-20.626,5.728-40.388,13.78-59.923,22.422-11.662,5.159-23.33,10.308-34.908,15.651-27.424,12.656-55.293,24.275-84.474,32.13-20.084,5.406-40.536,9.524-60.944,13.618-14.829,2.976-29.842,5.058-44.8,7.381-16.312,2.535-32.613,5.2-48.992,7.22-12.617,1.553-25.349,2.174-38.028,3.234-7.992.669-15.981,1.385-23.971,2.08" transform="translate(0 -797.28)" fill="none" stroke="#000" stroke-linecap="round" stroke-linejoin="round" stroke-width="2"/>
    <path id="Path_171" data-name="Path 171" d="M233.453,0c7.3,6.082,14.817,11.915,21.843,18.294,18.857,17.121,38.619,32.974,61.013,45.3a265.07,265.07,0,0,0,53.155,21.884c22.566,6.653,45.182,13.139,67.732,19.847,18.612,5.536,34.12,15.9,45.2,31.876a79.818,79.818,0,0,1,12.666,31.176c2.822,15.245,3.411,30.665.817,45.842a70.933,70.933,0,0,1-18.466,37.649c-10.478,11.053-22.273,20.145-36.07,26.441-12.882,5.879-25.936,11.406-39.072,16.7-19.95,8.04-40.108,15.578-57.84,28.177a37.761,37.761,0,0,0-11.1,11.91c-3.121,5.307-1.825,9.638.727,14.165,3.914,6.945,10.694,10.763,17.214,14.534a361.167,361.167,0,0,0,78.664,33.366c13.243,3.921,26.62,7.549,40.139,10.326,9.539,1.959,19.446,2.054,29.139,3.355,14.1,1.892,28.143,4.141,42.216,6.2,20.7,3.032,39.5,11.388,57.814,20.91,21.276,11.063,41.263,24.024,57.284,42.231a40.2,40.2,0,0,1,6.236,9.885c3.613,7.971-.624,16.3-9.847,19.159a57.4,57.4,0,0,1-14.046,2.6c-17.853.859-35.271-2.118-52.656-6.027-13.748-3.091-27.788-4.862-41.651-7.47a180.429,180.429,0,0,0-40.652-3.059c-17.845.71-34.692,5.413-51.107,12.392-20.878,8.876-39.715,21.354-59.448,32.266C375.15,550,356.54,559.45,337.61,568.077c-23.155,10.552-46.673,20.356-70.326,29.75q-30.4,12.073-61.494,22.38c-15.021,4.97-30.468,8.7-45.816,12.624-29.143,7.449-58.294,14.887-87.555,21.848-18.122,4.311-36.431,7.86-54.708,11.488-5.815,1.154-11.8,1.462-17.7,2.157" fill="none" stroke="#000" stroke-linecap="round" stroke-linejoin="round" stroke-width="3.42"/>
    <path id="Path_172" data-name="Path 172" d="M2339.5,1c6.175,18.6,16.6,34.692,29.174,49.532,19.79,23.356,45.3,39.552,70.372,56.272,15.4,10.268,30.537,20.864,43.733,33.934a81.388,81.388,0,0,1,21.862,38.565,39.361,39.361,0,0,1,1.054,8.33,262.97,262.97,0,0,1-2.577,47.438c-1.169,7.827-2.341,15.655-3.661,23.457-1.649,9.746-2.908,19.6-5.319,29.165a163.635,163.635,0,0,1-15.36,39.732c-7.073,12.742-16.4,23.316-27.246,32.758-17.118,14.9-37.085,25.161-57.335,34.895-13.8,6.633-27.941,12.566-41.6,19.459a165.377,165.377,0,0,0-21.377,13.5c-9.023,6.455-5.616,12.935.475,16.594a106.888,106.888,0,0,0,28.125,11.507c10.8,2.842,21.484,6.137,32.333,8.765,10.69,2.59,21.492,4.745,32.3,6.8q15.313,2.919,30.746,5.191a104.511,104.511,0,0,0,15.1,1.055c15.311.015,30.667.853,45.858-2.023,12.151-2.3,24.289-4.691,36.484-6.736,10.73-1.8,21.528-3.194,32.3-4.73a67.87,67.87,0,0,1,8.857-1.009,154.518,154.518,0,0,1,52.661,8.73,289.829,289.829,0,0,1,62.009,29.758c16.5,10.6,28.279,24.7,33.236,43.857,2.079,8.034,3.255,16.3,4.767,24.481,3.331,18.009,6.068,36.067,17.072,51.7,7.354,10.448,17.435,15.822,29.327,16.191,7.4.23,15.427-2.351,22.291-5.56a431.243,431.243,0,0,0,42.213-22.358c17.092-10.439,33.927-21.435,50.01-33.356,21.982-16.294,39.966-36.578,55.428-59.222,18.194-26.646,35.431-53.812,49.44-82.935,7.18-14.929,12.72-30.361,14.555-46.927.844-7.629,1.219-15.313,2.152-22.93,1.825-14.908.468-30.06,4.057-44.856,5.464-22.522,19.44-38.273,38.649-50a127.085,127.085,0,0,1,36.459-14.627c2.087-.509,4.169-1.041,6.254-1.562" transform="translate(-1114.397 -0.48)" fill="none" stroke="#000" stroke-linecap="round" stroke-linejoin="round" stroke-width="2"/>
    <path id="Path_173" data-name="Path 173" d="M1459.08,1935.715c-3.995-1.39-8.01-2.725-11.982-4.18-16.284-5.969-32.832-11.023-50.036-13.492-11.6-1.665-23.289-2.678-34.9-4.26-15.713-2.141-31.269-.442-46.914.976-19.793,1.794-39.07,6.03-58.374,10.439-12.745,2.912-25.617,5.473-38.562,7.23-10.838,1.471-21.907,2.515-32.8,2.036a226.637,226.637,0,0,1-59.919-10.791c-28.016-9.062-55.14-20.379-80.729-34.979-18.883-10.774-37.387-22.239-55.776-33.846-22.74-14.354-44.977-29.517-69.339-41.136q-33.662-16.054-67.221-32.322c-17.061-8.263-34.224-16.339-51.031-25.093-19.645-10.234-38.807-21.4-58.452-31.63a245.85,245.85,0,0,0-53.681-20.21c-12.582-3.166-25.6-4.867-38.523-6.339q-24.927-2.841-50.017-4.193c-20.821-1.114-41.685-2.075-62.526-1.993-15.464.062-30.938,1.677-46.373,3-12.189,1.048-24.4,2.246-36.461,4.232-12.256,2.018-24.37,4.951-36.492,7.719a386.883,386.883,0,0,0-58.862,18.81c-14.565,5.89-28.833,12.511-43.288,18.678-21.337,9.1-42.606,18.38-64.118,27.051-25.884,10.432-53.015,16.75-80.248,22.35-17.214,3.54-34.7,5.771-52.084,8.463-16.313,2.526-32.608,5.255-48.993,7.212-15.748,1.881-31.6,2.889-47.408,4.276q-11.984,1.052-23.97,2.086" transform="translate(0 -813.715)" fill="none" stroke="#000" stroke-linecap="round" stroke-linejoin="round" stroke-width="3.42"/>
    <path id="Path_174" data-name="Path 174" d="M0,1472.24c11.291-1.043,22.586-2.03,33.87-3.145,9.735-.961,19.481-1.879,29.176-3.169,8.374-1.114,16.673-2.789,25.023-4.093,7.281-1.137,14.594-2.068,21.882-3.157,9.039-1.351,18.108-2.549,27.088-4.221,9.777-1.821,19.5-3.964,29.185-6.23,14.274-3.342,28.647-6.394,42.7-10.509,23.264-6.811,45.69-15.995,67.761-25.983,17.276-7.818,34.353-16.075,51.618-23.917,25.926-11.773,52.8-21.13,79.755-30.147,16.461-5.506,33.446-9.435,49.953-14.817,22.193-7.236,44.468-14.4,66.129-23.045,24.677-9.849,47.9-22.657,66.214-42.584,12.241-13.316,20.36-29.044,25.623-46.34,4.164-13.684,7.726-27.472,9.35-41.716.991-8.695,3.032-17.393,2.906-26.064a64.579,64.579,0,0,0-14.922-41.169c-12.039-14.528-27.641-23.837-44.7-31.5-11.67-5.241-23.764-8.517-36.079-11.113a87.092,87.092,0,0,0-22.365-2.053c-16.07.865-32.02,3.077-47.434,8.142-17.664,5.8-34.619,13.3-51.646,20.726-26.694,11.647-53.709,22.573-80.734,33.443-21.068,8.473-42.3,16.56-63.572,24.5-12.553,4.685-25.348,8.718-38.015,13.1a341.368,341.368,0,0,1-53.153,13.559c-13.56,2.365-27.062,5.094-40.661,7.2-9.487,1.471-19.115,2.006-28.642,3.251-12.007,1.569-23.953,3.625-35.968,5.121-13,1.618-26.046,2.858-39.077,4.214-10.418,1.084-20.843,2.093-31.265,3.136" transform="translate(0 -518.684)" fill="none" stroke="#000" stroke-linecap="round" stroke-linejoin="round" stroke-width="3.42"/>
    <path id="Path_175" data-name="Path 175" d="M2387.222,0c2.039,8.972,7.349,16.335,12.029,23.954,15.114,24.6,37.276,41.816,60.94,57.349,17.12,11.238,34.428,22.189,51.559,33.41,15.23,9.976,29.014,21.6,39.043,37.026a65.98,65.98,0,0,1,10.483,34.371c.523,15.641-1.583,31.008-4.052,46.417-2.631,16.421-3.943,33.051-6.476,49.49-2.5,16.231-5.213,32.474-8.914,48.462-4.347,18.779-13.317,35.544-25.382,50.6-7.109,8.872-14.306,17.676-21.312,26.628a24.743,24.743,0,0,0-3.637,6.76c-1.777,4.907.077,8.789,4.6,12.015,6.3,4.5,13.686,5.515,20.889,6.056,17.725,1.331,35.231-1.426,52.611-4.587,20.009-3.639,40.182-5.983,60.441-4.451,18.418,1.393,36.107,6.676,53.171,13.871a671.559,671.559,0,0,0,80.77,28.67c6.575,1.83,13.356,3.04,19.769,5.31,20.085,7.112,31.345,21.64,33.825,42.673,1.777,15.072,2.613,30.255,4.343,45.334.91,7.933,2.887,15.671,7.667,22.464,4.4,6.254,10.57,8.994,17.771,9.27,13.009.5,24.693-4.544,36.5-9.239,20.553-8.172,38.978-19.878,56.191-33.507,12.328-9.761,22.57-21.7,31.788-34.374a462.146,462.146,0,0,0,44.287-75.057c7.582-16.1,13.7-32.7,16.349-50.517,2.012-13.526,2.533-27.065,3.162-40.674.694-15,2.046-29.945,9.108-43.853,8.467-16.676,21.34-29.006,36.643-38.954A153.371,153.371,0,0,1,3122,246.675c7.139-2.1,14.563-3.22,21.859-4.784" transform="translate(-1143.877)" fill="none" stroke="#000" stroke-linecap="round" stroke-linejoin="round" stroke-width="2"/>
    <path id="Path_176" data-name="Path 176" d="M2419.239,0c8.892,17.373,19.742,33.373,34.451,46.331,13.2,11.63,27.664,21.618,42.653,30.854,17.275,10.645,34.557,21.293,51.565,32.356,16.5,10.731,31.555,23.189,42.214,40.1a65.159,65.159,0,0,1,10.532,34.382,296.09,296.09,0,0,1-4.084,52.68c-1.579,9.585-.916,19.536-2.428,29.139-1.39,8.826-.063,17.411.215,26.094.552,17.21,3.214,34.122,10.016,49.985,4.321,10.079,11.986,17.418,21.647,23.158,13.737,8.161,29.021,12.487,43.369,19.079,14.134,6.494,28.545,12.385,42.683,18.87,14.121,6.477,28.577,12.183,43.825,14.907,23.4,4.179,44.952-1.427,64.013-15.551,11.456-8.489,18.649-20.5,25.714-32.7,8.2-14.151,13.968-29.735,24.861-42.322,6.74-7.787,13.862-15.3,24.031-18.1,14.2-3.9,27.656-.221,34.824,13.973,3.186,6.308,2.835,13.554.809,19.688a177.109,177.109,0,0,1-12.86,28.7c-8.406,15.471-17.394,30.683-22.667,47.549a117.331,117.331,0,0,0-5.271,34.884c-.011,13.207-.044,26.476,1.2,39.6a69.948,69.948,0,0,0,6.255,23.364c6.119,12.691,16.875,15.291,30.434,10.368,15.375-5.582,27.559-15.8,38.257-28.365,15.264-17.928,26.584-38.117,36.806-59.058,6.736-13.8,12.173-28.2,15.006-43.277,3.159-16.82,3.729-33.934,3.3-51.063-.271-10.8.9-21.524,5.844-31.207,3.822-7.48,8.052-15.066,13.576-21.3a171.137,171.137,0,0,1,47.194-37.794c19.616-10.542,40.066-18.256,62.067-21.806,3.325-.537,6.6-1.368,9.9-2.063" transform="translate(-1159.219)" fill="none" stroke="#000" stroke-linecap="round" stroke-linejoin="round" stroke-width="3.42"/>
    <path id="Path_177" data-name="Path 177" d="M0,1487.968c12.159-1.043,24.339-1.888,36.471-3.179,14.267-1.519,28.528-3.181,42.725-5.238,11.865-1.718,23.629-4.125,35.447-6.172,14.238-2.466,28.595-4.371,42.7-7.437,16.622-3.613,33.163-7.759,49.491-12.523a377.693,377.693,0,0,0,38.547-13.547c16.728-6.924,32.985-14.977,49.578-22.242,24.947-10.924,49.66-22.509,75.114-32.116,28.606-10.8,57.942-19.654,86.926-29.457,21.806-7.375,43.378-15.524,63.5-26.717,22.59-12.566,42.331-28.481,53.237-53.025a123.14,123.14,0,0,0,9.9-35.451c1.026-8.517,2.987-17.033,2.959-25.544-.1-29.16-5.583-56.324-32.706-73.44-12.5-7.886-26.241-12.212-41.1-13.86a109.472,109.472,0,0,0-26.066.362,182.922,182.922,0,0,0-44.816,11.9c-23.154,9.253-46.192,18.8-69.327,28.1-27.415,11.021-54.73,22.318-82.376,32.731-21.993,8.284-44.224,16.067-66.717,22.85-16.342,4.929-33.19,8.376-49.993,11.513-12.168,2.272-24.619,3.1-36.97,4.306-15.792,1.542-31.61,2.816-47.416,4.208q-17.718,1.56-35.435,3.131c-15.287,1.374-30.569,2.809-45.86,4.135-2.586.225-5.208.032-7.814.032" transform="translate(0 -542.52)" fill="none" stroke="#000" stroke-linecap="round" stroke-linejoin="round" stroke-width="2"/>
    <path id="Path_178" data-name="Path 178" d="M0,1501.871c13.2-1.39,26.41-2.71,39.6-4.192,11.476-1.289,22.974-2.478,34.384-4.221,13.942-2.131,27.81-4.75,41.7-7.237,17.2-3.082,34.489-5.812,51.56-9.516,12.664-2.749,25.039-6.826,37.551-10.28,24.949-6.885,48.6-17.181,71.864-28.254,28.936-13.771,57.757-27.811,87.644-39.386,18.479-7.156,37.5-12.9,56.219-19.446,24.964-8.724,50.017-17.293,73.454-29.748,12.511-6.65,24.608-14.143,34.88-23.991a94.494,94.494,0,0,0,27.691-51.021c2.18-11.02,3.688-22.13,3.064-33.363-1.062-19.127-4.892-37.609-17.813-52.526-6.7-7.735-16.074-12.02-25.878-15.331-20.1-6.785-39.792-3.672-59.425,1.677-36.322,9.9-70.316,26.034-105.263,39.611-28.354,11.016-56.639,22.209-84.946,33.347-23.137,9.1-47.108,15.393-71.425,20.162-13.542,2.656-27.38,3.975-41.143,5.288-15.074,1.438-30.211,2.249-45.329,3.2-12.847.8-25.706,1.417-38.56,2.107-13.027.7-26.058,1.335-39.081,2.1-10.254.606-20.5,1.372-30.746,2.067" transform="translate(0 -562.68)" fill="none" stroke="#000" stroke-linecap="round" stroke-linejoin="round" stroke-width="2"/>
    <path id="Path_179" data-name="Path 179" d="M0,1519.85c16.154-1.738,32.373-3.023,48.446-5.325,21.083-3.019,42.07-6.733,63.064-10.347,17.224-2.966,34.519-5.683,51.564-9.487a436.96,436.96,0,0,0,64.144-19.106c27.353-10.694,53.37-24.193,79.822-36.827,22.387-10.692,45.622-19.659,68.707-28.821,24.167-9.591,48.766-18.1,72.872-27.835,21.956-8.868,42.61-20.24,58.875-37.989,11.848-12.929,18.722-28.224,21.049-45.8a87.169,87.169,0,0,0-2.334-35.961c-5.237-18.2-15.814-31.522-35.324-36.039-13.689-3.169-27.189-2.095-40.652,1.09-36.7,8.681-71.019,23.927-105.849,37.888-30.147,12.084-59.77,25.563-91.086,34.713a509.693,509.693,0,0,1-51.626,12.4,380.84,380.84,0,0,1-57.327,6.216q-37.778,1.094-75.559,2.087c-14.416.384-28.835.653-43.251,1.068-8.514.245-17.023.676-25.534,1.024" transform="translate(0 -589)" fill="none" stroke="#000" stroke-linecap="round" stroke-linejoin="round" stroke-width="2"/>
    <path id="Path_180" data-name="Path 180" d="M0,1539.158c9.206-1.043,18.417-2.043,27.617-3.139,11.3-1.345,22.6-2.615,33.866-4.207,9.413-1.331,18.77-3.059,28.145-4.65,11.121-1.887,22.278-3.6,33.341-5.781,15.674-3.094,31.338-6.286,46.9-9.915a346.281,346.281,0,0,0,65.634-21.918q29.456-13.476,58.363-28.144a802.853,802.853,0,0,1,93.773-40.764c18.075-6.474,35.78-14.175,53.128-22.423,13.89-6.6,26.833-15.043,37.637-26.372,11.883-12.462,19.426-27.1,19.033-44.335-.524-23.02-12.008-40.1-38.333-42.85-15.586-1.629-30.177,2.341-44.816,6.386-29.166,8.059-56.707,20.364-84.494,32.13-23.116,9.789-46.445,19.326-70.834,25.579-15.463,3.965-31.152,7.218-46.892,9.884-14.3,2.423-28.822,3.523-43.224,5.38-24.951,3.217-50.018,1.874-75.041,2.019-31.265.183-62.532.044-93.8.044" transform="translate(0 -617.692)" fill="none" stroke="#000" stroke-linecap="round" stroke-linejoin="round" stroke-width="3.42"/>
    <path id="Path_181" data-name="Path 181" d="M1039.553,1950.086c-24.559-17.069-48.154-35.39-71.458-54.134-22.3-17.933-45.154-35.252-70.351-48.959-20.327-11.057-41.216-21.093-61.956-31.378-24.43-12.115-49-23.937-73.451-36.02-24.654-12.185-49.29-24.45-75.594-32.746a352.3,352.3,0,0,0-52.078-12.639c-14.109-2.182-28.091-5.239-42.234-7.12-12.425-1.653-24.984-2.386-37.505-3.209-13.709-.9-27.451-2.134-41.161-1.943-14.777.206-29.538,1.823-44.3,2.954-31.923,2.446-62.749,10.036-92.709,20.968-16.592,6.054-32.925,12.94-48.984,20.3-32.069,14.7-64.216,29.221-98.051,39.393a457.654,457.654,0,0,1-61.964,14.266c-15.858,2.447-31.581,5.773-47.443,8.192-14.009,2.136-28.114,3.676-42.2,5.263q-20.557,2.316-41.167,4.164c-11.968,1.061-23.967,1.778-35.952,2.647" transform="translate(-0.48 -828.086)" fill="none" stroke="#000" stroke-linecap="round" stroke-linejoin="round" stroke-width="2"/>
    <path id="Path_182" data-name="Path 182" d="M956.74,1965.3c-12.863-18.037-27.736-34.311-43.8-49.5a290.718,290.718,0,0,0-58.366-42.726c-14.455-8.064-28.939-16.128-43.794-23.409-26.581-13.029-53.368-25.65-80.224-38.1a595.6,595.6,0,0,0-95.9-35.331c-20.778-5.585-41.945-9.77-63.026-14.158-12.236-2.547-24.626-4.4-36.991-6.269a144.347,144.347,0,0,0-15.623-1.09c-10.419-.427-20.878-1.415-31.257-.9-14.97.742-29.9,2.464-44.819,4.04-23.553,2.487-46.142,9.1-68.222,17.291-14.656,5.437-29.02,11.732-43.267,18.188-29.615,13.42-59.036,27.224-90.155,37.029a483.147,483.147,0,0,1-60.472,15.043c-15.464,2.756-30.873,5.856-46.392,8.247-14,2.159-28.116,3.65-42.2,5.281-18.749,2.171-37.5,4.346-56.284,6.2-7.946.786-15.976.713-23.962,1.139-4,.214-7.991.671-11.986,1.019" transform="translate(0 -843.297)" fill="none" stroke="#000" stroke-linecap="round" stroke-linejoin="round" stroke-width="2"/>
    <path id="Path_183" data-name="Path 183" d="M.521,418.474c17.466-7.552,33.121-18.084,48.484-29.163,23.917-17.247,47.6-34.869,74.487-47.487,19.57-9.185,39.691-16.5,60.939-21.014a429.973,429.973,0,0,1,46.929-7.21c17.061-1.7,34.081-3.881,51.071-6.208,38.916-5.331,76.307-16.42,112.5-31.39,15.519-6.419,30.153-14.749,41.77-27.461,17.147-18.764,21.887-40.573,14.891-64.6-3.048-10.47-9.473-19.362-17.978-26.714-15.451-13.356-34.076-20.39-52.688-27.566-21.87-8.433-43.81-16.613-64.682-27.5-19.55-10.2-37.693-22.467-55.707-35.032-10.692-7.458-21.227-15.24-33.859-19.3-11.133-3.582-22.1-3.3-32.828,1.563-19.022,8.624-35.561,21.346-53.124,32.366C113.079,99.1,84.361,114.2,53.693,125.548A331.44,331.44,0,0,1,0,140.612" transform="translate(0 -21.753)" fill="none" stroke="#000" stroke-linecap="round" stroke-linejoin="round" stroke-width="2"/>
    <path id="Path_184" data-name="Path 184" d="M0,1561.772c9.206-1.043,18.42-2.02,27.616-3.145,10.778-1.318,21.555-2.662,32.306-4.185q13.061-1.851,26.054-4.173c8.886-1.586,17.729-3.412,26.581-5.187,12.859-2.579,25.778-4.91,38.544-7.891,14.151-3.3,28.384-6.53,42.164-11.064,13.668-4.5,26.958-10.249,40.158-16.036,26.482-11.609,50.543-27.8,76.2-40.936,17.764-9.1,36.348-16.6,54.635-24.655,16.448-7.246,33.308-13.636,49.393-21.6,12.816-6.346,25.4-13.663,33.954-25.876,4.272-6.1,7.591-12.448,7.971-20.312.491-10.132-7.339-18.167-15.73-20.978-11.969-4.011-23.717-2.61-35.464.167-24.961,5.9-48.408,16.066-71.928,26.008-20.648,8.728-41.792,16.149-63.606,21.227-15.444,3.595-31.162,6.212-46.882,8.357-15.022,2.049-30.226,2.729-45.312,4.355-27.573,2.972-55.23,1.9-82.859,1.982-10.421.031-20.845-.609-31.266-.989-8.512-.31-17.021-.744-25.535-1.021-12.331-.4-24.665-.708-37-1.056" transform="translate(0 -650.734)" fill="none" stroke="#000" stroke-linecap="round" stroke-linejoin="round" stroke-width="2"/>
    <path id="Path_185" data-name="Path 185" d="M2448.254,1c8.835,16.862,20.8,31.02,35.345,43.374,22.154,18.822,47.539,32.623,72.048,47.78,19.53,12.078,38.7,24.551,54.629,41.3,9.491,9.98,16.931,21.367,20.27,34.913,1.423,5.772,2.639,11.806,2.548,17.7-.285,18.426-.519,36.9-2.122,55.245-1.884,21.555.8,42.173,9.1,62.03a73.918,73.918,0,0,0,25.458,31.852c18.167,13.131,38.1,22.986,58.348,32.37,11.8,5.469,23.8,10.278,36.526,12.89,17.683,3.63,33.792-.481,48.459-10.866,14.112-9.99,23.736-24.034,33.781-37.609,11.278-15.241,23.326-29.684,38.128-41.636,16.112-13.01,34.426-16.784,54.723-13.669,15.117,2.32,28.777,8.625,42.684,14.256,16.915,6.848,32.867,6.229,48.535-3.66q23.427-14.785,47.413-28.68c22.614-13.1,46.484-23.388,71.9-29.676,8.794-2.176,17.867-3.226,26.813-4.789" transform="translate(-1173.122 -0.48)" fill="none" stroke="#000" stroke-linecap="round" stroke-linejoin="round" stroke-width="2"/>
    <path id="Path_186" data-name="Path 186" d="M877.011,1983.307a134.178,134.178,0,0,0-26.072-40.386c-18.828-20.409-41.417-35.865-65.664-48.978a795.172,795.172,0,0,0-86.526-40.587q-42.408-16.719-85.467-31.767c-22.667-7.877-45.584-15.258-68.808-21.232-16.252-4.18-32.951-7.316-49.95-7.62-10.6-.19-21.2-1.157-31.785-.9a240.767,240.767,0,0,0-48.445,6.227c-27.054,6.264-52.546,16.871-77.706,28.5-30,13.862-59.692,28.608-91.689,37.565-17.97,5.03-35.957,10.206-54.219,13.931-19.791,4.036-39.889,6.6-59.891,9.546q-23.4,3.452-46.9,6.233c-8.989,1.06-18.06,1.417-27.089,2.161-12.162,1-24.306,2.27-36.482,3.041-6.747.428-13.544.077-20.318.077" transform="translate(0 -861.568)" fill="none" stroke="#000" stroke-linecap="round" stroke-linejoin="round" stroke-width="2"/>
    <path id="Path_187" data-name="Path 187" d="M0,394.652c10.422-3.823,21.141-7,31.2-11.607,19.842-9.091,39.324-18.966,58.946-28.538,24.6-12,49.7-22.827,76.115-30.115,18.591-5.13,37.415-9.487,56.266-13.582,20.236-4.4,40.654-7.95,60.942-12.119a420.219,420.219,0,0,0,58.367-16.134c15.9-5.746,31.535-12.1,44.789-22.963,8.632-7.071,16.4-14.918,19.836-26.028,4.607-14.91,1.03-27.989-8.872-39.615-13.274-15.588-31.21-24.511-49.034-33.251a968.449,968.449,0,0,1-84.87-47.576c-12.128-7.541-24.228-15.189-38.067-19.216-15.388-4.478-30.51-2.81-44.761,4.188-26.009,12.772-51.673,26.249-77.719,38.946-22.192,10.818-45,20.26-68.761,27.14-9.992,2.893-20.126,5.3-30.221,7.822A17.632,17.632,0,0,1,0,172.05" transform="translate(0 -43.806)" fill="none" stroke="#000" stroke-linecap="round" stroke-linejoin="round" stroke-width="2"/>
    <path id="Path_188" data-name="Path 188" d="M2481.27,0c7.762,14.261,18.354,26.011,30.666,36.584,26.488,22.745,57.422,38.622,86.524,57.342,16.67,10.723,32.853,22.259,46.413,36.945,13.226,14.325,21.517,30.942,24.106,50.532,2.456,18.578,1.229,37.209,2.107,55.789,1.178,24.939,8.27,48.03,27.1,65.548a132.646,132.646,0,0,0,40.951,25.891,217.648,217.648,0,0,0,27.669,9.3c17.309,4.438,33.267.78,47.837-8.163,9.407-5.774,17.926-13.222,26.1-20.734,13.95-12.824,26.979-26.64,42.277-37.989,12.855-9.537,26.992-16.617,42.793-18.411,10.4-1.18,21.333-.311,31.709,1.483,15.792,2.731,31.218,7.52,46.965,10.582,17.1,3.328,33.884.747,49.98-5.663,13.3-5.3,26.494-10.908,39.609-16.665,20.953-9.2,42.158-17.658,64.644-22.323,10-2.076,20.137-3.533,30.212-5.27" transform="translate(-1188.942)" fill="none" stroke="#000" stroke-linecap="round" stroke-linejoin="round" stroke-width="2"/>
    <path id="Path_189" data-name="Path 189" d="M791.03,2003.713c-4.046-19.311-14.5-34.411-29.059-47.576-23.288-21.062-51.109-33.964-79.355-46.2-35.851-15.534-71.767-30.933-107.89-45.819-19.708-8.121-39.681-15.753-59.961-22.275-12.349-3.972-25.253-6.81-38.478-7.066-9.556-.185-19.109-.983-28.66-.937a170.654,170.654,0,0,0-43.732,6.333c-22.963,6.218-44.851,15.411-66.252,25.849-28.009,13.661-56.348,26.727-86.015,36.358-15.266,4.956-31.117,8.249-46.859,11.552-15,3.147-30.174,5.491-45.32,7.878-9.678,1.526-19.447,2.474-29.172,3.711-10.772,1.371-21.519,2.973-32.315,4.107-9.349.982-18.746,1.571-28.135,2.116-13.89.806-27.788,1.463-41.687,2.1-9.376.429-18.759.71-28.139,1.058" transform="translate(0 -881.713)" fill="none" stroke="#000" stroke-linecap="round" stroke-linejoin="round" stroke-width="2"/>
    <path id="Path_190" data-name="Path 190" d="M2513.287,0c6.959,9.778,13.813,19.678,22.953,27.6a369.961,369.961,0,0,0,46.31,33.983c23.447,14.672,47.145,29.044,69.676,45.039,14.831,10.528,28.1,23.3,37.816,39.283a94.172,94.172,0,0,1,12.782,33.45c2.35,13.972,3.619,28.127,5.355,42.2,2.763,22.409,9.221,43.33,26.123,59.359,14.01,13.287,31.019,21.242,49.976,24.467,14.145,2.407,27.707-.5,40.637-6.651,14.873-7.074,27.758-17.086,40.637-27.128,13.307-10.375,26.7-20.527,42.159-27.736a107.146,107.146,0,0,1,33.9-9.449c17.607-1.972,34.268,2.143,51.09,5.894,16,3.567,31.867,7.994,48.46,7.818,13.61-.145,26.771-3.235,39.565-7.4,19.428-6.327,38.539-13.617,57.9-20.158a272.734,272.734,0,0,1,49.479-12.09c5.425-.76,10.776-2.041,16.16-3.084" transform="translate(-1204.283)" fill="none" stroke="#000" stroke-linecap="round" stroke-linejoin="round" stroke-width="2"/>
    <path id="Path_191" data-name="Path 191" d="M2545.3,0c13.363,18.955,30.5,34.047,49.576,46.811,25.067,16.773,50.734,32.646,75.982,49.153,20.052,13.109,38.011,28.508,51.106,48.955,7.22,11.273,11.833,23.649,15.023,36.519,3.468,13.991,5.568,28.357,9.642,42.153,5.665,19.18,15.823,35.635,34.233,45.361,15.289,8.077,31.425,10.814,48.439,6.309,13.36-3.537,25.325-10.053,37-17.211,15.29-9.378,30.283-19.284,45.931-28.018,19.507-10.888,41.036-14.385,62.945-11.824,14.946,1.747,29.53,6.469,44.338,9.561,14.26,2.978,28.5,6.328,43.242,5.779,15.124-.562,29.82-3.788,44.267-7.912,17.483-4.991,34.644-11.131,52.175-15.93,15.1-4.135,30.513-7.179,45.831-10.509,4.789-1.041,9.716-1.444,14.579-2.14" transform="translate(-1219.624)" fill="none" stroke="#000" stroke-linecap="round" stroke-linejoin="round" stroke-width="2"/>
    <path id="Path_192" data-name="Path 192" d="M0,384.309c7.99-1.911,16.251-3.082,23.918-5.88,19.267-7.032,38.282-14.76,57.37-22.281,20.168-7.947,40.119-16.487,60.505-23.821,18.855-6.783,38.061-12.654,57.3-18.292,16.529-4.844,33.366-8.624,49.985-13.175,27.4-7.5,54.966-14.61,80.242-28.147a94.29,94.29,0,0,0,25.289-20.062c9.621-10.533,6.639-30.482-2.746-40.486-14.5-15.455-32.047-26.687-49.653-37.9-16.183-10.306-32.653-20.16-48.944-30.3-12.892-8.023-26.668-14.1-41.72-15.958a74.175,74.175,0,0,0-36.894,5.223c-20.954,8.511-41.381,18.313-62.1,27.409C88,171.415,63.4,182,37.547,189.435,25.156,193,12.9,196.931,0,198.2" transform="translate(0 -61.093)" fill="none" stroke="#000" stroke-linecap="round" stroke-linejoin="round" stroke-width="3.42"/>
    <path id="Path_193" data-name="Path 193" d="M2577.32,0c17.484,24.644,41.96,41.167,66.717,57.32,19.9,12.982,40,25.652,59.893,38.629a180.029,180.029,0,0,1,47.806,44.917c10.5,14.455,16.307,31.351,21.554,48.36,4.881,15.822,10.1,31.69,21.448,44.215,8.486,9.364,19.572,14.68,32.18,16.843,13.65,2.341,26.451-1.257,38.465-6.549,13.83-6.092,26.83-14.058,40.237-21.122,17.353-9.142,34.922-18.381,54.731-20.085,16.557-1.424,33.227-.585,49.519,4.311,13.544,4.07,27.308,7.562,41.164,10.385,10.078,2.053,20.476,3.645,30.708,3.528a145.441,145.441,0,0,0,32.783-4.086c27.245-6.7,54.159-14.74,81.383-21.528,11.038-2.752,22.541-3.633,33.828-5.391,1.748-.272,3.475-.684,5.213-1.032" transform="translate(-1234.966)" fill="none" stroke="#000" stroke-linecap="round" stroke-linejoin="round" stroke-width="3.42"/>
    <path id="Path_194" data-name="Path 194" d="M0,1067.835c10.6-2.085,21.362-3.543,31.755-6.376,29.052-7.92,56.788-19.666,85.014-30,15.049-5.511,30.52-9.877,45.817-14.7,23.66-7.467,47.286-14.9,69.879-25.436a384.033,384.033,0,0,0,81.046-50.4c11.429-9.336,22.007-20.078,28.471-34.108,3.46-7.51,2.424-14.515-1.9-20.246-7.829-10.37-19.064-15.375-32.11-15.767-21.007-.631-41.041,4.335-61,10.3-21.233,6.351-42.6,12.307-64.1,17.685-14.059,3.517-28.483,5.549-42.688,8.515-22.2,4.633-44.662,5.9-67.226,5.071-12.007-.439-23.97-2.034-35.961-3.005-11.632-.942-23.275-1.747-34.911-2.638a12.929,12.929,0,0,1-2.086-.5" transform="translate(0 -418.698)" fill="none" stroke="#000" stroke-linecap="round" stroke-linejoin="round" stroke-width="2"/>
    <path id="Path_195" data-name="Path 195" d="M2601.332,0c5.558,6.082,10.9,12.378,16.716,18.2,15.928,15.966,34.708,28.165,53.611,40.216,22.672,14.454,45.78,28.329,67.579,44.014,18.093,13.018,33.923,28.99,44.878,48.814,6.229,11.271,11.306,23.186,16.778,34.869,6.241,13.324,12.607,26.434,25.522,34.966,13.759,9.089,28.339,10.153,43.809,5.712,19.469-5.589,37.209-15.1,55.235-23.994,11.8-5.822,24.1-10.76,37.03-12.811,13.575-2.153,27.561-2.894,41.1.409,18.7,4.563,37.291,9.652,55.759,15.093a129.726,129.726,0,0,0,47.953,4.926c20.771-1.771,40.845-7.564,61.015-12.725,17.751-4.543,35.726-8.232,53.656-12.048,8.093-1.722,16.315-2.836,24.48-4.227" transform="translate(-1246.472)" fill="none" stroke="#000" stroke-linecap="round" stroke-linejoin="round" stroke-width="2"/>
    <path id="Path_196" data-name="Path 196" d="M2741.4,0c10.279,12.594,23.7,21.528,37.138,30.013,15.55,9.821,31.915,18.454,48.385,26.684,21.106,10.547,42.581,20.474,65.116,27.627,13.139,4.17,26.537,7.58,40.6,7.512,14.275-.068,27.939-3.349,41.1-8.078,19.688-7.071,39.8-10.476,60.5-8.53,19.882,1.87,38.849,7.95,55.647,18.8,12.451,8.045,23.987,17.586,35.5,26.987,14.438,11.79,29.426,22.542,48.03,26.375a95.806,95.806,0,0,0,28.664,2.037,194.363,194.363,0,0,0,41.608-8.826c12.582-4.059,25.337-8.154,35.982-16.559,2.405-1.9,4.979-3.833,6.706-6.292,3.8-5.407,3.131-11.137-2.606-16.522-6.734-6.321-14.129-11.942-21.28-17.815-10.4-8.541-21.473-16.379-31.11-25.706-14.177-13.722-23.6-30.417-26.209-50.412-.318-2.436-.691-4.866-1.038-7.3" transform="translate(-1313.589)" fill="none" stroke="#000" stroke-linecap="round" stroke-linejoin="round" stroke-width="3.42"/>
    <path id="Path_197" data-name="Path 197" d="M2631.347,0c10.347,14.816,24.285,25.824,38.554,36.5,20.2,15.116,42.264,27.292,63.54,40.719,17.174,10.839,34.118,21.94,49.692,35.212,19.046,16.229,33.262,36.037,46.2,57.016,7,11.346,14.359,22.254,26.615,28.642a45.3,45.3,0,0,0,28.661,4.728c17.56-2.742,33.477-10.084,49.516-17.194,14.04-6.224,28.6-11.2,43.777-13.45,18.637-2.761,36.868.206,54.705,6.083,18.887,6.222,37.678,12.853,56.85,18.054,13.508,3.664,27.538,3.386,41.646,1.966,26.736-2.692,52.263-10.462,78.175-16.743,11.469-2.781,23.25-4.274,34.885-6.379,5.565-1.007,11.118-2.079,16.676-3.122" transform="translate(-1260.854)" fill="none" stroke="#000" stroke-linecap="round" stroke-linejoin="round" stroke-width="2"/>
    <path id="Path_198" data-name="Path 198" d="M2657.361,0c19.173,22.334,42.817,39.073,67.74,54.222,18.255,11.1,36.423,22.333,54.733,33.335,23.325,14.016,43.928,31.333,62.486,51.142,4.376,4.671,8.244,9.817,12.563,14.545,9.791,10.719,21.133,19.46,35.457,22.757a46.634,46.634,0,0,0,24.427-1.417c16.388-5.2,32.628-10.861,49.015-16.064,16.278-5.168,32.771-7.6,50.035-5.436,15.545,1.949,29.7,7.528,43.738,13.763,16.466,7.31,33,14.709,50.609,18.5a118.519,118.519,0,0,0,44.242,1.278c12.681-2.077,25.454-3.725,38.017-6.368,15.04-3.165,29.834-7.491,44.859-10.739,12.581-2.72,25.34-4.612,38.02-6.872" transform="translate(-1273.319)" fill="none" stroke="#000" stroke-linecap="round" stroke-linejoin="round" stroke-width="2"/>
    <path id="Path_199" data-name="Path 199" d="M0,378.329c11.464-2.433,23.044-4.423,34.371-7.381,35.559-9.282,69.292-23.851,103.724-36.4,21.167-7.714,42.451-15.11,63.549-23,21.51-8.049,42.839-16.569,63.083-27.559a77.384,77.384,0,0,0,24.294-20.495c7.314-9.415,6.643-21.927-.351-32.684-10.6-16.3-25.49-28.217-41.231-38.99-10.906-7.464-22.85-13.358-35.9-16.182a81.236,81.236,0,0,0-28.118-1.145c-25.877,3.482-49.544,14.038-73.409,23.627-24.409,9.807-48.881,19.382-74.1,26.8-11.74,3.449-23.932,5.355-35.917,7.962" transform="translate(0 -83.264)" fill="none" stroke="#000" stroke-linecap="round" stroke-linejoin="round" stroke-width="2"/>
    <path id="Path_200" data-name="Path 200" d="M601.349,2051.068c-10.422-11.643-20.371-23.756-31.379-34.816-15.816-15.89-34.005-29.047-52.038-42.283-11.768-8.637-23.627-17.223-35.994-24.952a106.553,106.553,0,0,0-47.323-15.958c-19.635-1.823-37.68,2.893-55.826,9.435-23.026,8.3-44.179,20.41-66.123,30.91-21.793,10.427-43.964,20.069-67.286,26.359-14.624,3.944-29.748,6.259-44.775,8.427-16.07,2.318-32.278,3.728-48.448,5.3-9.7.943-19.444,1.541-29.179,2.1-13.717.8-27.446,2.021-41.165,1.961-17.894-.08-35.788-1.132-53.672-1.979-9.392-.445-18.762-1.346-28.142-2.041" transform="translate(0 -929.068)" fill="none" stroke="#000" stroke-linecap="round" stroke-linejoin="round" stroke-width="2"/>
    <path id="Path_201" data-name="Path 201" d="M2686.376,1c15.883,18.691,35.49,32.779,56.291,45.334,31.219,18.845,62.8,37.111,93.677,56.5,17.282,10.849,33.323,23.658,50.179,35.21,12.807,8.777,27.438,12.676,42.641,10.21,13.073-2.12,25.842-6.374,38.581-10.232,11.795-3.571,23.581-6.374,35.969-7.371,24.672-1.986,46.241,6.6,67.235,17.882,9.723,5.222,19.219,10.943,29.24,15.511,12.561,5.726,25.576,10.156,39.532,11.71a146.1,146.1,0,0,0,51.093-3.188q31.449-7.616,63.055-14.585c11.039-2.437,22.22-4.232,33.336-6.318" transform="translate(-1287.222 -0.48)" fill="none" stroke="#000" stroke-linecap="round" stroke-linejoin="round" stroke-width="2"/>
    <path id="Path_202" data-name="Path 202" d="M2713.389,0c13.872,16.5,31.142,28.83,49.556,39.532,20.1,11.681,40.507,22.84,60.943,33.926,18.987,10.3,37.944,20.713,57.386,30.1a237,237,0,0,0,36.98,14.011c9.708,2.811,20.255,2.292,30.109.07,15.441-3.481,30.455-8.929,45.947-12.089a110.831,110.831,0,0,1,39.063-.956c22.571,3.433,41.231,14.611,59.384,27.291,17.283,12.074,34.618,23.867,55.716,28.823,13.9,3.266,27.641,3.4,41.735,2.1,14.427-1.33,28.335-4.663,42.192-8.5,14.256-3.949,28.483-8.009,42.736-11.97,8.323-2.313,16.673-4.528,25.01-6.787" transform="translate(-1300.166)" fill="none" stroke="#000" stroke-linecap="round" stroke-linejoin="round" stroke-width="2"/>
    <path id="Path_203" data-name="Path 203" d="M0,1623.211c15.112-2.085,30.261-3.937,45.323-6.335,10.488-1.67,20.844-4.155,31.282-6.16,13.015-2.5,26.068-4.8,39.074-7.342,9.06-1.77,18.156-3.466,27.083-5.783,14.316-3.716,28.69-7.366,42.711-12.032,27.685-9.213,53.1-22.764,75.656-41.519,6.577-5.468,12.467-11.26,16.69-18.8,2.946-5.258,1.477-10.509-4.8-12.437a79.934,79.934,0,0,0-16.127-3.153,257.173,257.173,0,0,0-42.212-.245c-14.366,1.052-28.821.915-43.24,1.184-21.711.4-43.43,1.166-65.135.894-14.08-.177-28.14-1.948-42.212-2.953q-8.851-.632-17.717-1.044Q23.191,1506.4,0,1505.394" transform="translate(0 -723.67)" fill="none" stroke="#000" stroke-linecap="round" stroke-linejoin="round" stroke-width="2"/>
    <path id="Path_204" data-name="Path 204" d="M2765.416,0c20.281,19.01,44.022,32.8,68.84,44.719,18.3,8.793,37.028,16.636,56.707,22.146,14.237,3.986,28.528,6.982,43.282,6.006,13.371-.885,26.1-4.9,38.59-9.737,11.627-4.506,23-9.537,35.363-12.277,14.058-3.115,27.76-1.888,41.173,1.457,26.676,6.652,52.427,16,75.021,32.227a252.555,252.555,0,0,1,23.433,19.287c8.412,7.733,16.694,15.5,26.628,21.334,7.328,4.307,15.253,6.667,23.477,8.291,16.763,3.31,32.582-.74,47.864-6.96a32.986,32.986,0,0,0,13.778-10.119c4.527-5.769,3.823-11.342.747-16.721a75.334,75.334,0,0,0-10.344-13.576c-9.532-10.26-20.215-19.562-28.885-30.481a70.944,70.944,0,0,1-14.846-37.869c-.562-5.921-1.368-11.819-2.062-17.727" transform="translate(-1325.095)" fill="none" stroke="#000" stroke-linecap="round" stroke-linejoin="round" stroke-width="2"/>
    <path id="Path_205" data-name="Path 205" d="M0,376.265c11.985-1.738,24.188-2.579,35.9-5.424a488.86,488.86,0,0,0,51.57-15.115c23.573-8.564,46.711-18.358,69.873-28.014,15.9-6.628,31.492-14.074,45.284-24.538,7.228-5.483,14.6-11.289,20.175-18.321,8.293-10.456,8.35-25.819-1.908-37.308a55.458,55.458,0,0,0-34.838-18.46c-15.208-2.154-29.874-.138-44.283,3.939-17.86,5.054-35.493,10.927-53.18,16.582-16.533,5.286-32.886,11.181-49.552,16-12.651,3.658-25.667,6.048-38.521,9" transform="translate(0 -109.351)" fill="none" stroke="#000" stroke-linecap="round" stroke-linejoin="round" stroke-width="2"/>
    <path id="Path_206" data-name="Path 206" d="M2799.433,0c17.747,14.944,37.85,25.976,58.887,35.444,16.422,7.391,33.455,13.341,51.108,16.445,18.946,3.332,38.035,2.181,55.662-6.642a426.4,426.4,0,0,0,37.488-20.878c17.7-11.218,36.434-12.033,54.688-4.294q56.727,24.05,114.778,44.5a64.983,64.983,0,0,0,13.536,3.111c9.077,1.121,12.673-1.413,13.966-10.357,1.448-10.02,2.27-20.135,3.192-30.226.825-9.024,1.417-18.069,2.112-27.106" transform="translate(-1341.395)" fill="none" stroke="#000" stroke-linecap="round" stroke-linejoin="round" stroke-width="2"/>
    <path id="Path_207" data-name="Path 207" d="M0,1627.006c13.722-2.433,27.508-4.556,41.152-7.371,20.554-4.24,41.072-8.693,61.488-13.553,23.767-5.657,47.543-11.5,69.8-21.929,6.755-3.165,13.8-6.337,18.294-12.923,4.357-6.385,3.544-10.3-3.7-12.907a80.381,80.381,0,0,0-17.685-4.175c-9.846-1.161-19.786-1.523-29.688-2.21-15.111-1.048-30.249-1.807-45.329-3.2-19.481-1.8-38.907-4.185-58.373-6.155-11.968-1.211-23.967-2.117-35.953-3.159" transform="translate(0 -739.96)" fill="none" stroke="#000" stroke-linecap="round" stroke-linejoin="round" stroke-width="2"/>
    <path id="Path_208" data-name="Path 208" d="M1178.6,0c2.432,7.82,4.556,15.752,7.357,23.437a122.331,122.331,0,0,0,30.723,47.42,96.763,96.763,0,0,0,51.586,25.881c28.352,4.645,55.142-1.1,80.254-15.34a142.639,142.639,0,0,0,55.28-55.284A132.225,132.225,0,0,0,1415.183,0" transform="translate(-564.747)" fill="none" stroke="#000" stroke-linecap="round" stroke-linejoin="round" stroke-width="2"/>
    <path id="Path_209" data-name="Path 209" d="M0,378.853c33.011.814,64.531-6.254,94.784-18.9,14.378-6.011,28.519-12.866,39.661-24.366a15.9,15.9,0,0,0,2.563-2.633c2.146-3.68,5.229-7.033,2.719-12-2.483-4.92-6.735-6.41-11.54-6.683-12.987-.738-25.6,1.375-38.052,5.108-18.009,5.4-36.054,10.7-54.2,15.607-11.87,3.2-23.95,5.637-35.935,8.414" transform="translate(0 -150.516)" fill="none" stroke="#000" stroke-linecap="round" stroke-linejoin="round" stroke-width="2"/>
    <path id="Path_210" data-name="Path 210" d="M1213.621,1c6.024,18.692,14.776,35.906,29.265,49.436,12.308,11.494,26.894,18.644,43.648,22.181,21.37,4.511,41.108-.229,59.883-9.237,26.87-12.892,44.486-34.592,54.8-62.38" transform="translate(-581.527 -0.48)" fill="none" stroke="#000" stroke-linecap="round" stroke-linejoin="round" stroke-width="3.42"/>
    <path id="Path_211" data-name="Path 211" d="M582.3,0c19.341,25.642,46.5,38.564,76.652,45.661a140.772,140.772,0,0,0,53.094,2.248c26.687-3.974,51.131-13.3,71.352-31.8,5.519-5.05,10.469-10.723,15.68-16.11" transform="translate(-279.018)" fill="none" stroke="#000" stroke-linecap="round" stroke-linejoin="round" stroke-width="2"/>
    <path id="Path_212" data-name="Path 212" d="M195.934,0c-7.3,6.082-14.849,11.883-21.838,18.3a401.1,401.1,0,0,1-66.722,50.039,361.118,361.118,0,0,1-72.51,32.643c-11.34,3.7-23.226,5.715-34.864,8.5" fill="none" stroke="#000" stroke-linecap="round" stroke-linejoin="round" stroke-width="2"/>
    <path id="Path_213" data-name="Path 213" d="M168.836,0c-18.862,26.744-43.585,46.927-71.4,63.578A312.89,312.89,0,0,1,32.8,92.678C22.07,96.144,10.943,98.355,0,101.135" fill="none" stroke="#000" stroke-linecap="round" stroke-linejoin="round" stroke-width="2"/>
    <path id="Path_214" data-name="Path 214" d="M1395.673,0c-5.25,10.19-11.223,20.07-19.405,28.023-12.632,12.279-27.781,21.018-45.242,23.924-23.39,3.893-44.32-2.512-61.956-18.609A86.2,86.2,0,0,1,1246.638,0" transform="translate(-597.347)" fill="none" stroke="#000" stroke-linecap="round" stroke-linejoin="round" stroke-width="2"/>
    <path id="Path_215" data-name="Path 215" d="M779.065,0c-12.347,16.812-29.081,26.712-48.938,32.477a109.054,109.054,0,0,1-42.746,3.752C658.369,32.973,632.223,22.667,612.313,0" transform="translate(-293.4)" fill="none" stroke="#000" stroke-linecap="round" stroke-linejoin="round" stroke-width="3.42"/>
    <path id="Path_216" data-name="Path 216" d="M2358.207,1771.076c1.683,7.766,7.62,11.61,14.106,14.517a64.589,64.589,0,0,0,26.538,6.034c11.142-.08,22.522-1.239,32.818-6.5,4.889-2.5,5.7-6.68,1.5-10.308-6.015-5.2-13.171-8.4-20.7-11.224-10.541-3.951-21.068-6.56-32.38-6.141a38,38,0,0,0-17.586,5.509c-2.17,1.245-2.908,4.988-4.3,7.595" transform="translate(-1129.974 -845.091)" fill="none" stroke="#000" stroke-linecap="round" stroke-linejoin="round" stroke-width="2"/>
    <path id="Path_217" data-name="Path 217" d="M2841.455,0c20.343,14.868,43.111,24.808,67.275,31.074,19.757,5.123,39.754,5.194,58.83-3.967a106.954,106.954,0,0,0,24.972-17.248c3.373-3.026,6.3-6.557,9.422-9.858" transform="translate(-1361.531)" fill="none" stroke="#000" stroke-linecap="round" stroke-linejoin="round" stroke-width="2"/>
    <path id="Path_218" data-name="Path 218" d="M152.641,0C139.277,21.82,120.6,38.247,99.471,52.1A257.873,257.873,0,0,1,27.049,85.472C18.406,87.881,9.686,90.014,1,92.273" transform="translate(-0.48)" fill="none" stroke="#000" stroke-linecap="round" stroke-linejoin="round" stroke-width="2"/>
    <path id="Path_219" data-name="Path 219" d="M.521,1033.957c13.536,1.714,26.88,4.409,39.563,9.485,6.828,2.733,13.869,5.655,19.709,9.983,11.561,8.566,13.1,22.582.653,35.79-12.78,13.565-28.557,22.371-45.873,28.625-4.746,1.714-9.709,2.83-14.573,4.22" transform="translate(0 -496.996)" fill="none" stroke="#000" stroke-linecap="round" stroke-linejoin="round" stroke-width="2"/>
    <path id="Path_220" data-name="Path 220" d="M138.092,1c-12.819,20.368-30.338,35.78-50.518,48.53A224.35,224.35,0,0,1,38.027,73.422c-11.217,3.7-22.556,7.03-33.873,10.417C2.878,84.22,1.39,83.89,0,83.89" transform="translate(0 -0.48)" fill="none" stroke="#000" stroke-linecap="round" stroke-linejoin="round" stroke-width="2"/>
    <path id="Path_221" data-name="Path 221" d="M128.191,0c-13.248,19.88-30.83,35.179-51.115,47.361A225.77,225.77,0,0,1,26.041,69.81c-6.688,2.023-13.528,3.55-20.314,5.241C3.846,75.52,1.91,75.765,0,76.112" fill="none" stroke="#000" stroke-linecap="round" stroke-linejoin="round" stroke-width="3.42"/>
    <path id="Path_222" data-name="Path 222" d="M3651.87,0c3.1,14.581,8.606,28.234,18.364,39.511a147.374,147.374,0,0,0,35.222,29.445c14.182,8.626,29.13,15.438,44.381,21.752" transform="translate(-1749.854)" fill="none" stroke="#000" stroke-linecap="round" stroke-linejoin="round" stroke-width="2"/>
    <path id="Path_223" data-name="Path 223" d="M115.684,0C96.757,27.08,70.192,43.978,40.059,55.611,27.076,60.623,13.375,63.774,0,67.771" fill="none" stroke="#000" stroke-linecap="round" stroke-linejoin="round" stroke-width="2"/>
    <path id="Path_224" data-name="Path 224" d="M1280.656,0c6.144,8.557,12.083,17.255,21.345,22.97,10.109,6.239,20.884,10.551,32.847,10.294,14.308-.307,27.029-5.468,38.617-13.9,7.278-5.3,12.1-12.622,17.664-19.361" transform="translate(-613.648)" fill="none" stroke="#000" stroke-linecap="round" stroke-linejoin="round" stroke-width="2"/>
    <path id="Path_225" data-name="Path 225" d="M652.334,0c32.019,27.175,84.152,30.9,116.727,0" transform="translate(-312.577)" fill="none" stroke="#000" stroke-linecap="round" stroke-linejoin="round" stroke-width="2"/>
    <path id="Path_226" data-name="Path 226" d="M3341.711,0c12.876,8.622,26.34,16.247,41.212,20.7,8.607,2.578,17.682,5.079,26.528,5.018,12.515-.086,23.942-4.478,30.214-16.861,1.475-2.911,2.792-5.9,4.181-8.856" transform="translate(-1601.236)" fill="none" stroke="#000" stroke-linecap="round" stroke-linejoin="round" stroke-width="2"/>
    <path id="Path_227" data-name="Path 227" d="M102.657,1c-14.063,19.216-33.2,32.138-54.283,42.036C34.011,49.779,19.016,55.371,3.13,57.848A20.1,20.1,0,0,0,0,58.867" transform="translate(0 -0.48)" fill="none" stroke="#000" stroke-linecap="round" stroke-linejoin="round" stroke-width="2"/>
    <path id="Path_228" data-name="Path 228" d="M3673.881,0A76.385,76.385,0,0,0,3689.5,30.768c18.579,22.8,43.534,35.216,70.875,43.8.05.016.006.328.006.5" transform="translate(-1760.401)" fill="none" stroke="#000" stroke-linecap="round" stroke-linejoin="round" stroke-width="2"/>
    <path id="Path_229" data-name="Path 229" d="M89.629,0C66.064,27.791,34.444,40.517,0,47.961" fill="none" stroke="#000" stroke-linecap="round" stroke-linejoin="round" stroke-width="2"/>
    <path id="Path_230" data-name="Path 230" d="M3694.892,1c4.81,14.171,13.975,25.037,24.892,35.06,14.674,13.472,32.352,20.677,50.667,26.977" transform="translate(-1770.469 -0.48)" fill="none" stroke="#000" stroke-linecap="round" stroke-linejoin="round" stroke-width="2"/>
    <path id="Path_231" data-name="Path 231" d="M2903.487,0c9.38,3.3,18.585,7.276,28.175,9.766,20.4,5.3,39.958,3.847,57.285-9.766" transform="translate(-1391.254)" fill="none" stroke="#000" stroke-linecap="round" stroke-linejoin="round" stroke-width="2"/>
    <path id="Path_232" data-name="Path 232" d="M75.039,0c-6.982,7.8-15.7,13.445-24.557,18.656-14.7,8.648-31,13.4-47.364,17.8A12.4,12.4,0,0,1,0,36.492" fill="none" stroke="#000" stroke-linecap="round" stroke-linejoin="round" stroke-width="3.42"/>
    <path id="Path_233" data-name="Path 233" d="M1316.674,0c7.337,6.923,15.479,12.261,25.513,14.684a41.974,41.974,0,0,0,27.016-2.408c6.93-3.014,12.956-8.1,19.383-12.276" transform="translate(-630.906)" fill="none" stroke="#000" stroke-linecap="round" stroke-linejoin="round" stroke-width="2"/>
    <path id="Path_234" data-name="Path 234" d="M3715.9,0c3.3,5.561,5.961,11.647,10.017,16.587,14.363,17.5,33.059,28.558,54.594,35.043.048.015.006.328.006.5" transform="translate(-1780.536)" fill="none" stroke="#000" stroke-linecap="round" stroke-linejoin="round" stroke-width="2"/>
    <path id="Path_235" data-name="Path 235" d="M59.4,0C46.98,10.849,32.151,17.057,16.653,21.823,11.233,23.491,5.558,24.328,0,25.545" fill="none" stroke="#000" stroke-linecap="round" stroke-linejoin="round" stroke-width="2"/>
    <path id="Path_236" data-name="Path 236" d="M3735.913,0c12.131,19.609,29.383,32.693,51.061,40.16a26.8,26.8,0,0,1,3.133,1.545" transform="translate(-1790.125)" fill="none" stroke="#000" stroke-linecap="round" stroke-linejoin="round" stroke-width="2"/>
    <path id="Path_237" data-name="Path 237" d="M710.364,0c17.022,6.852,34.045,7.35,51.068,0" transform="translate(-340.383)" fill="none" stroke="#000" stroke-linecap="round" stroke-linejoin="round" stroke-width="2"/>
    <path id="Path_238" data-name="Path 238" d="M0,1630.072a32.825,32.825,0,0,0,18.712-9.429c3.508-3.627,2.708-6.574-1.481-9.9C12.121,1606.677,6.2,1604.8,0,1603.485" transform="translate(0 -770.617)" fill="none" stroke="#000" stroke-linecap="round" stroke-linejoin="round" stroke-width="2"/>
    <path id="Path_239" data-name="Path 239" d="M3755.923,0c10.88,15.754,25.879,26.045,43.512,32.843" transform="translate(-1799.713)" fill="none" stroke="#000" stroke-linecap="round" stroke-linejoin="round" stroke-width="2"/>
    <path id="Path_240" data-name="Path 240" d="M3799.7,2143.985c-10.422,1.738-20.861,3.381-31.258,5.26-4.219.762-8.346,2.039-12.515,3.082" transform="translate(-1799.713 -1030.326)" fill="none" stroke="#000" stroke-linecap="round" stroke-linejoin="round" stroke-width="2"/>
    <path id="Path_241" data-name="Path 241" d="M3779.935,0c7.015,8.534,15.9,14.652,25.533,19.812,1.919,1.028,3.823,2.083,5.733,3.126" transform="translate(-1811.219)" fill="none" stroke="#000" stroke-linecap="round" stroke-linejoin="round" stroke-width="2"/>
    <path id="Path_242" data-name="Path 242" d="M31.746,0C21.994,4.678,11.615,7.179,1,8.863" transform="translate(-0.48)" fill="none" stroke="#000" stroke-linecap="round" stroke-linejoin="round" stroke-width="2"/>
    <path id="Path_243" data-name="Path 243" d="M3807.95,0l16.675,11.469" transform="translate(-1824.643)" fill="none" stroke="#000" stroke-linecap="round" stroke-linejoin="round" stroke-width="2"/>
    <path id="Path_244" data-name="Path 244" d="M281.089,634.588c-5.559,1.043-11.111,2.117-16.677,3.122-17.478,3.156-33.049,10.468-47.479,20.775-12.247,8.748-22.164,19.214-28.645,32.9-3.339,7.054-5.241,13.967-3.218,21.951,2.06,8.13,7.985,11.877,14.768,14.453,11.435,4.343,23.259,4.465,35.414,2.871A134.351,134.351,0,0,0,282.071,715.8c21.063-11.38,40.13-25.441,54.208-45.277,3.032-4.272,5.372-9.044,4.7-14.56-.667-5.489-4.278-8.909-8.83-11.464a71.852,71.852,0,0,0-30.22-8.843c-6.763-.5-13.546-.724-20.321-1.071" transform="translate(-88.281 -305.038)" fill="none" stroke="#000" stroke-linecap="round" stroke-linejoin="round" stroke-width="2"/>
    <path id="Path_245" data-name="Path 245" d="M1903.789,1403.155c-7.3,1.391-14.6,2.757-21.885,4.178a34.377,34.377,0,0,0-18.246,9.371c-6.258,6.25-6.159,11.125-.024,17.758,7.708,8.333,17.815,12.44,28.211,15.468a212.506,212.506,0,0,0,45.275,7.715c15.161,1.027,29.992-.385,44.8-2.577,4.552-.673,8.967-3.56,13-6.133,5.317-3.393,6.865-10.89,1.145-17.662-7.882-9.333-18.324-14.632-29.232-19.233-18.686-7.881-38.34-9.614-58.354-8.89-1.387.05-2.779.006-4.169.006" transform="translate(-890.77 -674.32)" fill="none" stroke="#000" stroke-linecap="round" stroke-linejoin="round" stroke-width="2"/>
  </g>
</svg>
