<svg xmlns="http://www.w3.org/2000/svg" width="1563.213" height="1106" viewBox="0 0 1563.213 1106">
  <g id="Group_181" data-name="Group 181" transform="translate(0.1 0.3)" opacity="0.346">
    <path id="Path_108" data-name="Path 108" d="M692.574,245.715c6.5-9.282,6.312-25.8-.371-44.181-6.5-17.635-16.15-20.234-21.533-20.234a19.541,19.541,0,0,0-16.521,9.839c-11.88,21.162-15.222,37.312-10.21,48.079,3.341,7.24,10.581,12.066,21.348,14.108a51.933,51.933,0,0,0,8.91.928h0C682.364,254.254,688.49,251.469,692.574,245.715ZM674.011,252.4h0a49.786,49.786,0,0,1-8.539-.928c-10.21-2.042-16.893-6.5-20.048-13.18-4.641-10.21-1.3-25.8,10.21-46.408a17.689,17.689,0,0,1,14.851-8.725c8.168,0,15.222,6.683,19.677,19.12,6.5,17.821,6.683,33.785.557,42.51C687.376,249.8,681.622,252.4,674.011,252.4Z" transform="translate(549.581 155.509)" fill="#fff"/>
    <path id="Path_109" data-name="Path 109" d="M349.9,502.692h0c15.036,0,31-14.851,42.51-39.54,7.982-17.078,5.383-27.288,1.856-33.043-4.826-7.425-13.366-10.21-19.677-10.21a20.857,20.857,0,0,0-5.94.742c-28.959,8.168-46.223,19.491-51.235,33.228-3.341,9.282-1.3,19.677,6.311,31C331.152,496.752,340.062,502.692,349.9,502.692Zm-31-48.079c4.826-13.18,21.719-23.947,50.121-32.114a17.591,17.591,0,0,1,5.569-.742c5.94,0,13.737,2.413,18.192,9.282,3.341,5.2,5.755,14.851-1.856,31.186-11.138,23.761-26.731,38.426-40.839,38.426h0c-9.1,0-17.449-5.755-24.875-16.893C317.786,473.177,315.744,463.338,318.9,454.613Z" transform="translate(270.57 359.829)" fill="#fff"/>
    <path id="Path_110" data-name="Path 110" d="M442.862,366.5h0c18.749,0,37.683-9.653,56.061-28.587,23.018-23.761,31.372-46.965,24.875-68.87-9.1-30.815-48.265-56.8-104.7-69.612a129.414,129.414,0,0,0-28.959-3.527c-29.33,0-43.252,12.994-49.75,23.761-10.21,17.078-7.8,38.24-1.3,50.492C373.25,334.011,408.149,366.5,442.862,366.5ZM341.878,220.589c6.312-10.4,19.677-22.833,48.079-22.833a125.11,125.11,0,0,1,28.587,3.527c55.69,12.623,94.3,38.24,103.212,68.313,6.311,21.162-1.856,43.809-24.318,67.013-18.006,18.563-36.384,28.031-54.576,28.031h0c-33.971,0-68.313-32.114-102.284-95.415C334.453,257.344,332.04,237.111,341.878,220.589Z" transform="translate(285.646 168.011)" fill="#fff"/>
    <path id="Path_111" data-name="Path 111" d="M419.879,303.934h0c9.467,0,18.935-4.826,28.031-14.108,11.509-11.88,15.593-23.575,12.252-34.713-4.641-15.408-23.575-28.216-51.049-34.342A66.089,66.089,0,0,0,395,219.1c-14.851,0-22.09,6.683-25.432,12.252-5.383,8.91-4.084,19.491-.557,26.174C385.537,288.155,402.615,303.934,419.879,303.934ZM374.4,233.951c3.713-6.311,10.952-9.653,20.605-9.653A56.693,56.693,0,0,1,408,225.968c25.06,5.755,43.067,17.449,46.965,30.629,2.784,9.1-.928,18.935-10.952,29.33-7.982,8.354-16.15,12.437-24.132,12.437h0c-15.036,0-30.629-14.665-46.037-43.624C371.243,249.544,370.129,241,374.4,233.951Z" transform="translate(313.456 187.878)" fill="#fff"/>
    <path id="Path_112" data-name="Path 112" d="M751.608,256.062c0-56.061-36.2-110.08-66.271-117.691a46.243,46.243,0,0,0-10.952-1.671c-4.27,0-7.425,1.114-9.467,3.527-3.9,4.455-3.156,11.695-2.042,21.162a106.015,106.015,0,0,1,1.114,19.306c-.557,15.593-9.1,22.462-19.677,31.186-5.94,4.826-12.623,10.21-18.378,17.821-9.653,12.994-16.336,34.713-9.282,53.648,4.455,12.252,16.707,28.4,49.564,36.013,14.108,3.341,25.8,4.826,35.827,4.826C745.482,324.189,751.608,291.518,751.608,256.062ZM621.665,281.308c-6.312-17.078-.186-36.57,8.539-48.45,5.2-7.054,11.323-12.066,17.264-16.893,10.767-8.725,21.162-17.078,21.719-35.27.371-7.425-.557-14.108-1.114-20.234-.928-7.611-1.671-14.294.743-16.707.928-1.114,2.785-1.671,5.383-1.671a45.41,45.41,0,0,1,9.653,1.485c28.03,7.054,62,58.66,62,112.308,0,45.666-12.066,62.744-44.366,62.744-9.653,0-20.791-1.485-34.528-4.641C642.828,308.225,627.42,297.272,621.665,281.308Z" transform="translate(525.631 117.317)" fill="#fff"/>
    <path id="Path_113" data-name="Path 113" d="M395.532,437.983c11.695,0,27.474-16.336,34.713-31.558,6.311-12.994,6.311-24.5.186-31.929q-6.4-7.8-13.922-7.8c-5.012,0-10.024,2.6-14.851,7.611-10.581,11.138-18.378,33.043-17.635,48.821C384.765,436.127,391.448,437.983,395.532,437.983Zm10.024-59.959c2.6-2.784,6.5-5.94,10.767-5.94,3.341,0,6.5,1.856,9.653,5.755,6.311,7.8,2.228,19.677-.928,26.174-7.054,14.665-21.348,28.4-29.7,28.4-1.3,0-5.383,0-5.94-9.653C388.849,408.653,396.089,388.048,405.556,378.024Z" transform="translate(328.893 314.272)" fill="#fff"/>
    <path id="Path_114" data-name="Path 114" d="M846.461,459.719c16.893-19.491,23.39-46.408,18.749-77.966C852.4,294.32,810.82,262.762,780.376,239.558c-18.749-14.294-33.414-25.432-34.342-44.738-2.042-51.977-19.306-64.971-81.678-85.762-51.42-17.078-56.8-28.216-69.612-54.947-2.6-5.383-5.569-11.324-9.1-18.192C578.222,21.811,569.682,14.2,561.886,14.2a13.086,13.086,0,0,0-9.282,4.27c-8.539,8.725-12.809,29.887-12.066,59.4,1.114,41.4,23.575,67.385,49.75,97.457,16.707,19.306,35.456,41.025,50.492,69.427,20.791,39.725,18.006,62.558,14.479,91.331-2.784,23.2-5.94,49.378,2.413,90.4,9.1,43.809,59.959,66.642,105.439,66.642C797.825,493.133,828.083,480.881,846.461,459.719Zm-186.932-33.6c-8.353-40.654-5.2-66.828-2.413-89.661,3.341-28.031,6.312-52.163-14.665-92.445-15.036-28.773-33.971-50.492-50.678-69.8-25.8-29.887-48.079-55.5-49.193-96.158-.743-28.959,3.341-49.75,11.509-58.1a11.423,11.423,0,0,1,7.982-3.713c7.054,0,15.036,7.611,22.276,20.791,3.527,6.683,6.5,12.809,9.1,18.192C606.252,81.77,612.007,93.836,664.17,111.1c61.444,20.42,78.337,33.228,80.379,84.092.743,20.048,15.964,31.558,35.085,46.037,30.073,22.833,71.469,54.2,84.092,140.9,4.641,31.372-1.671,56.989-18.378,76.481-18.006,20.791-47.893,32.857-81.864,32.857C718.375,491.276,668.254,469,659.529,426.119Z" transform="translate(462.893 12.417)" fill="#fff"/>
    <path id="Path_115" data-name="Path 115" d="M337.42,158.045c2.042,59.031,4.455,126.045,85.948,159.459,24.689,10.21,47.151,17.264,67.013,23.39,66.271,20.791,109.895,34.342,148.506,131.8,54.2,136.626,119.919,205.867,200.669,211.25,4.084.186,7.982.371,11.695.371,35.641,0,61.816-11.88,72.954-33.414,13.18-25.8,2.97-61.444-29.144-100.056-46.037-55.69-50.306-95.415-55.69-145.722-2.228-20.977-4.641-42.7-10.024-68.127-10.952-50.678-37.683-85.205-63.486-118.619-19.12-24.5-36.941-47.708-48.079-76.109C696.99,88.618,702.374,23.647,705.344.257h-5.569c-2.97,24.5-8.168,89.661,12.809,144.051,11.324,29.144,29.516,52.72,48.821,77.594,25.432,33.043,51.792,67.013,62.558,116.392,5.383,25.06,7.8,46.594,10.024,67.385,5.2,49.193,9.839,91.7,56.989,148.692,30.444,36.941,40.654,70.355,28.4,93.93-11.138,21.719-40.1,32.671-79.265,29.887-78.337-5.383-142.38-73.325-195.843-207.909-39.54-99.87-84.277-113.793-152.033-134.955-19.677-6.126-42.139-13.18-66.642-23.2-78.151-32.114-80.379-97.086-82.421-154.632-.743-19.12-1.3-37.127-4.641-53.091C329.066,57.989,304.563,18.263,291.568-.3H284.7c11.88,16.336,38.426,57.361,48.45,105.811C336.12,121.475,336.863,139.3,337.42,158.045Z" transform="translate(243.882 0)" fill="#fff"/>
    <path id="Path_116" data-name="Path 116" d="M365.654,137.268c5.383,53.277,11.138,108.224,76.666,146.279,30.629,17.821,57.546,27.659,81.307,36.2,40.282,14.665,72.211,26.36,101.541,67.385,8.168,11.324,15.593,22.276,22.833,33.043,30.073,44.181,52.905,77.966,81.864,77.966a39.454,39.454,0,0,0,15.407-3.156c6.5-2.6,10.952-8.539,13.551-17.635,13.18-49.007-36.013-179.321-69.8-221.46-2.042-2.6-4.27-5.383-6.683-8.168C643.36,199.641,578.76,120,596.952-.1H595.1C576.9,120.561,641.69,200.569,680.858,248.834c2.228,2.784,4.455,5.569,6.683,8.168,33.6,41.953,82.421,171.153,69.427,219.789-2.228,8.539-6.5,14.108-12.437,16.336-35.27,13.737-60.331-23.2-95.044-74.253-7.24-10.581-14.665-21.719-22.833-33.043-29.7-41.582-61.816-53.277-102.284-67.942-23.761-8.725-50.678-18.378-81.122-36.2-64.786-37.683-70.355-92.259-75.738-144.979-1.3-12.994-2.784-26.36-5.012-39.354A290.959,290.959,0,0,0,327.228-.1H325c9.282,15.408,27.474,50.306,35.642,97.828C362.869,110.908,364.354,124.274,365.654,137.268Z" transform="translate(278.392 0.171)" fill="#fff"/>
    <path id="Path_117" data-name="Path 117" d="M523.087,265.455l2.97,1.114c16.336,6.126,30.073,9.282,40.654,9.282,9.282,0,15.964-2.413,19.491-7.425,7.054-10.024,0-28.587-19.491-50.678C529.4,175.052,495.428,89.661,506.195,0h-1.856c-10.767,90.032,23.39,176.166,61.073,219.232,18.378,21.162,25.617,39.169,19.306,48.265-6.868,9.839-27.845,8.91-57.917-2.6l-2.97-1.114C459.972,239.466,413.935,222.017,402.8,133.47,394.444,66.085,375.324,19.306,366.227,0H364c8.91,18.563,28.4,65.343,36.755,133.656C412.079,223.316,461.086,241.88,523.087,265.455Z" transform="translate(311.789 0.257)" fill="#fff"/>
    <path id="Path_118" data-name="Path 118" d="M530.823,265.34C544.932,290.215,558.3,313.6,574.818,313.6h0a12.257,12.257,0,0,0,2.6-.186c3.341-.557,7.425-2.785,8.725-10.952,4.455-31.186-35.827-124.188-64.6-137.74a32.88,32.88,0,0,0-14.108-3.527c-7.8,0-13.737,3.9-17.078,10.952-5.569,12.066-2.6,33.971,16.521,56.247C515.23,238.052,523.213,251.974,530.823,265.34Zm-35.27-90.96a12.314,12.314,0,0,1,11.88-7.611c3.527,0,7.425,1.114,11.695,3.156,25.989,12.252,65.528,103.954,61.444,131.8-.928,5.94-3.156,6.126-4.084,6.311-.557,0-1.114.186-1.856.186h0c-13.366,0-26.36-23.2-39.168-45.48-7.8-13.737-15.779-27.845-24.5-37.869C493.883,204.452,490.912,184.4,495.553,174.38Z" transform="translate(417.846 138.297)" fill="#fff"/>
    <path id="Path_119" data-name="Path 119" d="M302.487,400.289h1.856c23.575-1.114,79.636-56.061,85.391-78.337,1.3-5.569-.557-7.982-2.413-9.1A13.9,13.9,0,0,0,380.639,311c-10.767,0-24.689,10.767-39.354,22.276-9.467,7.425-19.306,15.036-28.216,19.677-20.977,10.767-29.7,27.1-27.288,37.127C287.265,396.577,293.391,400.289,302.487,400.289Zm11.324-45.666c9.1-4.641,18.935-12.252,28.4-19.863,14.479-11.324,28.031-21.9,38.24-21.9a11.522,11.522,0,0,1,5.755,1.485c1.856,1.114,2.413,3.527,1.485,7.054-5.569,22.09-60.516,75.924-83.72,77.038-9.282.371-15.036-2.784-16.521-8.91C285.223,380.241,293.762,364.833,313.811,354.624Z" transform="translate(244.473 266.575)" fill="#fff"/>
    <path id="Path_120" data-name="Path 120" d="M628.723,398.335c5.569,1.3,7.982-.557,9.1-2.413a13.9,13.9,0,0,0,1.856-6.683c0-10.767-10.767-24.689-22.276-39.354-7.425-9.467-15.036-19.306-19.677-28.216-10.767-20.976-27.1-29.7-37.127-27.288-6.5,1.671-10.4,7.611-10.4,16.707v1.856C551.5,336.333,606.261,392.58,628.723,398.335Zm-67.57-102.1c9.282-2.228,24.689,6.312,34.9,26.36,4.641,9.1,12.252,18.935,19.863,28.4,11.323,14.479,21.9,28.031,21.9,38.24a11.523,11.523,0,0,1-1.485,5.755c-1.114,1.856-3.527,2.413-7.054,1.485-22.09-5.569-75.924-60.516-77.038-83.72C551.685,303.662,555.026,297.722,561.152,296.237Z" transform="translate(471.237 252.008)" fill="#fff"/>
    <path id="Path_121" data-name="Path 121" d="M663.094,179.455c6.5-1.671,10.4-7.611,10.4-16.707v-1.856c-1.114-23.575-56.061-79.636-78.337-85.391-5.569-1.3-7.982.557-9.1,2.413A13.9,13.9,0,0,0,584.2,84.6c0,10.767,10.767,24.689,22.276,39.354,7.425,9.467,15.036,19.306,19.677,28.216C636.734,172.958,653.07,181.682,663.094,179.455Zm-35.456-28.216c-4.641-9.1-12.252-18.935-19.863-28.4-11.324-14.479-21.9-28.031-21.9-38.24a11.523,11.523,0,0,1,1.485-5.755c1.114-1.856,3.527-2.413,7.054-1.485,22.09,5.569,75.924,60.516,77.038,83.72.371,9.282-2.784,15.036-8.91,16.521C653.255,179.826,637.848,171.287,627.638,151.238Z" transform="translate(500.352 64.538)" fill="#fff"/>
    <path id="Path_122" data-name="Path 122" d="M212.122,946.542c-5.383-48.079-10.581-93.559,3.527-107.667,3.713-3.713,8.725-5.012,15.408-4.084,35.456,4.641,67.942,44.181,99.5,82.421,30.815,37.5,62.744,76.3,98.571,83.72,60.145,12.437,82.421-19.491,136.44-96.343,14.108-20.048,30.073-42.881,49.378-68.87,72.026-96.529,134.584-80.193,207.166-61.073,21.533,5.755,43.809,11.509,67.756,15.036,64.415,9.282,117.32-2.97,145.165-33.228,20.977-23.018,27.1-55.69,18.006-94.858-19.863-83.72.928-89.1,46.594-100.984,6.312-1.671,12.994-3.341,20.048-5.383,32.857-9.653,60.331-33.228,77.409-66.642,20.234-39.725,25.617-92.631,15.222-152.961-22.276-129.757-107.667-187.3-208.651-244.107C936.09,53.462,919.754,16.707,915.856,0H910.1c3.527,17.449,19.491,56.247,90.774,96.343,99.685,56.061,183.962,112.865,205.867,240.209,10.21,59.217,5.2,110.823-14.665,149.434-16.336,31.929-42.7,54.762-74.068,63.858-7.054,2.042-13.551,3.713-19.863,5.383-46.223,12.066-71.654,18.563-50.492,107.481,8.725,37.127,2.97,68.313-16.521,89.661-26.36,28.959-77.594,40.468-140.153,31.558-23.575-3.341-45.666-9.282-67.2-14.851-74.439-19.491-138.853-36.57-213.106,63.115-19.491,26.174-35.456,49.007-49.564,69.055-53.833,77.038-74.068,105.811-130.685,94.116-33.971-6.868-65.157-44.923-95.415-81.864-32.115-38.983-65.343-79.451-103.026-84.463-8.353-1.114-15.036.742-20.048,5.755-16.15,15.779-11.138,60.516-5.2,112.122,6.683,59.217,14.294,125.859-9.839,157.788h6.868C226.23,1070.173,218.8,1005.016,212.122,946.542Z" transform="translate(168.697 0.257)" fill="#fff"/>
    <path id="Path_123" data-name="Path 123" d="M67.485,401.524c21.348,31.558,47.708,70.912,90.96,70.912,27.288,0,47.522-7.611,67.2-14.851,26.917-10.024,50.306-18.749,86.691-5.94,22.833,8.168,44.737,23.575,67.942,39.911,34.342,24.318,69.8,49.378,109.709,49.193a93.738,93.738,0,0,0,21.162-2.413c34.528-7.8,58.1-25.06,68.127-49.75,12.623-30.815,3.713-71.283-25.8-117.134-38.8-60.516-34.342-112.865-29.33-168.555,1.856-22.276,3.9-45.48,3.341-70.169C526,67.942,496.668,20.605,481.26,0h-7.054c13.922,17.635,46.223,65.714,47.708,132.913.557,24.5-1.485,47.336-3.341,69.612-5.012,56.618-9.653,110.08,30.258,172.082,28.4,44.181,37.127,82.978,25.432,112.122-9.282,22.833-31.558,38.983-64.229,46.408-46.408,10.581-87.062-18.192-126.416-46.037-22.462-15.779-45.666-32.3-69.241-40.654-38.426-13.551-63.672-4.084-90.589,5.94-19.12,7.24-38.8,14.479-65.157,14.479-40.282,0-65.714-37.869-86.319-68.5-11.695-17.449-21.9-32.486-33.228-38.8-16.15-9.1-29.7-12.809-38.983-14.108v5.569A108.493,108.493,0,0,1,36.3,364.4C46.137,369.966,55.975,384.631,67.485,401.524Z" transform="translate(0.171 0.257)" fill="#fff"/>
    <path id="Path_124" data-name="Path 124" d="M113.793,616.523c37.312-8.91,61.073-35.085,83.906-60.331,21.719-23.947,42.139-46.594,72.768-52.905,23.018-4.641,54.2-1.856,90.4,1.485,61.816,5.755,138.668,12.809,202.9-18.749,42.51-20.791,67.385-48.45,80.565-67.942,16.521-24.132,24.318-49.564,20.977-67.942-2.6-15.036-12.252-24.132-27.1-25.617-25.246-2.6-44.552,14.294-64.971,32.114-22.462,19.491-45.666,39.54-78.337,35.827-31-3.527-64.971-20.048-97.828-36.2C362.541,339.373,326.9,321.924,294.6,319.882c-21.162-1.485-44.738,4.826-69.612,11.324-49.007,12.809-99.87,25.989-134.027-19.12C53.648,262.893,18.563,249.527,0,246v5.755c17.821,3.9,51.235,17.264,86.319,63.486,36.57,48.265,91.517,33.785,139.967,21.162,24.5-6.5,47.708-12.437,67.942-11.138,31.186,2.042,66.457,19.306,100.427,35.827,33.228,16.336,67.756,33.043,99.685,36.57,35.27,3.9,60.516-18.006,82.607-37.127,19.491-16.893,38.055-33.043,60.888-30.629,15.408,1.671,20.605,12.252,22.09,21.162,5.569,31.372-25.617,94.116-98.571,129.943C498.424,511.826,422.5,504.772,361.427,499.2c-36.57-3.341-68.313-6.312-92.074-1.485-32.3,6.683-53.462,30.073-75.738,54.762s-45.294,50.121-81.122,58.66C62.187,623.02,20.048,618.008,0,614.11v5.569a269.071,269.071,0,0,0,48.636,4.27A268.611,268.611,0,0,0,113.793,616.523Z" transform="translate(0.086 210.914)" fill="#fff"/>
    <path id="Path_125" data-name="Path 125" d="M298.6,647.974c-3.156-30.444-6.683-64.786-1.485-100.984,8.91-62.93,7.054-93.559-6.683-109.338-7.24-8.353-18.006-12.252-33.043-12.252-23.947,0-43.624,19.863-66.457,42.881C172.924,486.288,152.5,506.893,128,518.4,86.976,537.708,26.274,535.295.1,533.253v5.569c26.917,2.228,87.8,4.455,130.314-15.407,25.432-11.881,46.223-32.857,64.6-51.235,21.9-22.09,41.025-41.211,62.558-41.211,13.551,0,22.647,3.341,28.773,10.4,12.252,14.108,13.922,44.552,5.383,104.883-5.2,36.755-1.671,71.654,1.485,102.284,3.9,38.612,7.24,69.984-7.24,92.26h6.5C305.652,716.844,302.31,684.543,298.6,647.974Z" transform="translate(0.171 364.539)" fill="#fff"/>
    <path id="Path_126" data-name="Path 126" d="M258.03,495.522c-3.527-18.749-9.839-29.516-18.192-31.186-23.575-4.641-50.121,23.018-78.151,52.348-17.449,18.192-35.27,36.941-52.905,47.893C75.553,585.183,24.132,590.752,0,592.052v1.856c24.318-1.485,76.109-6.868,109.895-28.031,17.635-11.138,35.827-29.887,53.277-48.265,27.659-28.959,53.833-56.247,76.3-51.792,7.611,1.485,13.366,11.88,16.707,29.7,10.767,58.66-7.054,171.153-47.893,211.993h2.6C253.389,663.52,267.682,547.5,258.03,495.522Z" transform="translate(0.086 397.442)" fill="#fff"/>
    <path id="Path_127" data-name="Path 127" d="M222.017,540.359c-.186-12.994-3.713-21.719-10.21-25.06-18.192-9.467-23.2-3.9-39.725,14.294A480.126,480.126,0,0,1,122.889,577.3,264.294,264.294,0,0,1,0,633.732v1.856c23.761-3.9,75.738-16.707,124-56.989a483.793,483.793,0,0,0,49.378-47.893c16.521-18.192,20.605-22.462,37.5-13.737,5.755,2.97,9.1,11.138,9.282,23.39.557,34.342-23.39,98.757-55.875,127.344h2.784C199,638,222.574,574.515,222.017,540.359Z" transform="translate(0.086 437.626)" fill="#fff"/>
    <path id="Path_128" data-name="Path 128" d="M383.87,647.628c23.761,34.713,46.223,67.57,77.78,67.57,38.24,0,75.738-44.181,119.362-95.415,29.33-34.528,59.588-69.984,92.816-95.044,22.276-16.707,47.893-24.875,78.337-24.875,33.414,0,65.343,9.839,90.96,17.821,16.336,5.012,29.33,9.1,38.055,9.1h0c4.27,0,7.611-.928,9.839-2.97,2.6-2.228,3.713-5.383,3.713-9.653,0-20.605-23.761-39.911-53.833-64.229-22.647-18.378-48.45-39.354-70.169-65.528-26.917-32.671-37.5-65.9-45.294-90.218-6.869-21.719-11.509-36.013-23.575-37.683h-1.3c-8.91,0-17.078,10.767-28.587,25.8-19.306,25.432-45.666,60.145-90.4,60.145h0c-3.9,0-7.982-.371-12.252-.742a18.007,18.007,0,0,0-3.156-.186c-15.036,0-17.821,15.036-21.9,35.827-6.126,31.558-15.222,79.265-72.211,115.835-34.713,22.276-82.607,32.671-150.734,32.671-23.018,0-45.48-1.114-65.343-2.228-16.521-.928-30.629-1.671-42.7-1.671-20.42,0-31.372,2.228-36.57,7.24-7.054,7.054-6.683,12.994-5.2,16.893,7.24,17.821,57.361,29.33,127.53,29.33C334.492,575.6,359.552,612.172,383.87,647.628ZM176.889,544.045c-.557-1.3-2.042-5.012,3.9-10.952,5.2-5.012,21.162-5.755,32.671-5.755,12.066,0,26.174.743,42.51,1.485,19.863,1.114,42.324,2.228,65.528,2.228,69.055,0,118.062-10.767,153.7-33.6,59.031-37.869,68.5-87.062,74.624-119.547,4.455-22.833,6.868-32.671,18.749-31.186a104.412,104.412,0,0,0,12.994.928h0c47.522,0,75-36.013,94.858-62.373C686.08,272.65,694.248,261.7,700.56,261.7h.743c8.725,1.114,12.994,14.851,19.12,33.785,7.8,24.689,18.563,58.66,46.223,92.074,22.09,26.545,48.079,47.708,70.912,66.271,28.959,23.39,51.792,41.953,51.792,59.959,0,2.6-.557,4.455-1.856,5.383-1.3,1.114-3.341,1.485-6.312,1.485h0c-7.982,0-21.162-4.084-36.57-8.725-25.989-7.982-58.289-18.006-92.631-18.006-31.743,0-58.474,8.539-81.678,25.989-33.785,25.432-64.229,61.259-93.745,95.786-40.839,48.079-79.451,93.373-115.092,93.373-28.587,0-50.307-31.743-73.325-65.157-25.06-36.57-51.049-74.439-89.1-74.439C222.555,570.034,182.087,556.668,176.889,544.045Z" transform="translate(146.197 219.905)" fill="#fff"/>
    <path id="Path_129" data-name="Path 129" d="M94.487,538.816c35.27-6.683,63.486-31.186,88.547-52.905,18.006-15.593,35.085-30.444,51.977-36.013,22.09-7.24,57.546-4.641,95.23-2.042,31.558,2.228,64.043,4.641,94.487,2.042,35.085-2.97,58.289-12.623,59.031-24.5.557-9.467-12.623-17.821-36.2-22.647-31-6.5-53.277-19.12-74.624-31.372-16.15-9.282-32.857-18.749-52.905-25.246-17.821-5.755-46.037,1.114-78.894,8.91C187.489,367.848,126.787,382.513,93,346.315,55.133,305.847,18.749,288.768,0,281.9v2.042c18.749,6.868,54.39,23.761,91.7,63.672,34.528,36.941,95.787,22.09,149.806,9.1,31.186-7.425,60.7-14.479,77.966-8.91,19.863,6.5,36.57,15.964,52.534,25.06,21.533,12.252,43.809,25.06,75.181,31.558,22.276,4.641,35.27,12.437,34.713,20.791-.557,9.1-18.378,19.491-57.361,22.833-30.258,2.6-62.93.186-94.3-2.042-37.683-2.784-73.325-5.2-95.786,2.042-17.264,5.569-34.342,20.605-52.534,36.2-24.875,21.533-53.091,45.851-87.8,52.348A194.119,194.119,0,0,1,0,530.277v1.856a196.814,196.814,0,0,0,60.145,9.282A147.953,147.953,0,0,0,94.487,538.816Z" transform="translate(0.086 241.656)" fill="#fff"/>
    <path id="Path_130" data-name="Path 130" d="M104.14,446.731c21.9-5.94,38.983-17.264,55.319-28.216,25.989-17.449,53.091-35.642,100.427-32.114,45.851,3.341,72.582-.928,79.636-12.809,3.341-5.569,2.228-12.437-2.97-20.791-8.539-13.551-53.648-7.8-105.625-.928-30.258,3.9-61.444,7.982-87.99,8.539C89.1,361.526,26.545,335.537,0,323.1v2.042c26.545,12.252,86.691,37.312,139.781,37.312h3.341c26.546-.557,57.917-4.641,88.176-8.539,49.193-6.311,95.787-12.437,103.769.186,4.826,7.611,5.755,13.922,2.97,18.749-6.683,11.138-32.857,15.222-77.966,11.88C211.993,381.2,184.7,399.4,158.345,417.216c-16.336,10.952-33.228,22.276-54.762,28.031-40.1,10.767-82.607,6.126-103.583,2.6V449.7a302.388,302.388,0,0,0,48.45,4.084C65.9,453.6,85.205,451.929,104.14,446.731Z" transform="translate(0.086 276.936)" fill="#fff"/>
    <path id="Path_131" data-name="Path 131" d="M111.28,393.751a6.485,6.485,0,0,0,.928-7.054c-3.527-9.282-24.318-19.306-46.223-22.647C34.8,359.409,12.709,351.8-.1,346.6v2.042c12.994,5.383,34.9,12.623,65.714,17.264,20.977,3.156,41.4,12.994,44.737,21.533a4.819,4.819,0,0,1-.743,5.2c-3.713,4.641-22.09,13.551-109.709.371v1.856c33.6,5.012,57.175,6.868,73.882,6.868C99.4,401.733,108.31,397.463,111.28,393.751Z" transform="translate(0 297.06)" fill="#fff"/>
    <path id="Path_132" data-name="Path 132" d="M368.765,602.954h0c19.491,0,39.354-13.18,58.66-39.354,12.066-16.336,30.073-34.342,49.193-53.462,41.025-41.21,83.535-83.906,75.738-116.763-7.8-32.671-39.725-57.175-63.115-57.175-10.21,0-17.45,4.826-20.048,13.737C435.407,457.6,375.262,477.466,326.626,482.85c-22.276,2.413-34.156,7.8-38.426,16.893-5.383,11.88,1.485,29.7,24.5,63.858C330.339,589.774,349.273,602.954,368.765,602.954ZM289.871,500.671c3.9-8.539,15.593-13.551,36.941-15.964,32.3-3.527,57.175-12.994,78.894-29.7,28.773-22.276,50.121-56.432,65.157-104.7,3.156-10.21,11.695-12.437,18.378-12.437,20.048,0,53.091,21.162,61.259,55.69,7.611,31.929-34.528,74.253-75.181,115.092-19.12,19.12-37.127,37.312-49.193,53.648-18.935,25.617-38.24,38.612-57.175,38.612h0c-18.935,0-37.312-12.994-54.576-38.612C291.727,529.629,284.673,511.623,289.871,500.671Z" transform="translate(245.394 288.154)" fill="#fff"/>
    <path id="Path_133" data-name="Path 133" d="M565.87,431.427h0c22.462,0,27.288-8.168,27.288-15.222.371-19.12-11.88-25.8-27.288-34.342-13.922-7.8-31.186-17.449-47.151-39.54-8.725-12.066-14.108-21.162-18.192-27.845-6.5-10.767-9.467-15.779-15.964-15.779-4.084,0-8.539,2.042-16.893,5.94-1.856.928-3.9,1.671-5.94,2.784-5.755,2.6-11.324,4.641-16.707,6.5-13.18,4.826-24.689,8.91-28.587,18.749-3.156,8.168-.928,19.12,7.054,34.528C441.125,401.541,524.66,431.427,565.87,431.427ZM421.634,334.9c2.97-7.611,12.809-11.138,25.246-15.593,5.2-1.856,11.138-4.084,17.078-6.683q3.341-1.392,6.126-2.784c7.054-3.341,11.695-5.383,14.479-5.383,3.156,0,5.2,3.156,11.138,13.18,4.084,6.683,9.653,15.964,18.378,28.216,16.521,23.2,34.528,33.043,48.821,41.025,14.851,8.353,24.689,13.737,24.5,29.516-.186,8.539-13.737,9.653-21.719,9.653h0c-39.725,0-121.033-29.516-137.368-61.073C421.262,351.048,419.035,341.21,421.634,334.9Z" transform="translate(355.511 256.042)" fill="#fff"/>
    <path id="Path_134" data-name="Path 134" d="M63.572,325.143c22.09,23.947,44.738,48.821,79.265,60.331,36.755,12.252,63.115,9.653,90.96,7.054,23.018-2.228,46.965-4.455,77.409,2.413,26.731,6.126,57.917,28.773,88.176,50.678,35.456,25.8,69.612,50.306,96.9,50.306a37.208,37.208,0,0,0,21.533-6.5c32.671-22.462,14.851-53.833-5.755-90.218-11.138-19.863-22.833-40.282-28.216-61.816-8.91-35.827-6.126-68.127-2.97-105.439,2.413-27.288,4.826-55.5,2.97-88.918C480.689,81.407,437.808,22.933,419.059.1h-2.413c18.006,21.719,62,80.75,65.343,142.937,1.671,33.228-.743,61.444-2.97,88.547-3.156,37.5-5.94,69.984,2.97,106.182,5.383,21.9,17.078,42.51,28.4,62.373,20.234,35.641,37.683,66.457,6.311,87.8a34.782,34.782,0,0,1-20.42,6.126c-26.731,0-60.516-24.5-95.786-49.935-30.444-21.9-61.816-44.738-88.918-50.863-30.629-7.054-54.762-4.641-77.966-2.413-27.659,2.6-53.834,5.2-90.218-6.868-33.971-11.324-56.618-36.013-78.523-59.774C46.123,303.8,26.817,282.819-.1,269.268v2.042C26.074,284.3,45.194,304.909,63.572,325.143Z" transform="translate(0 0.343)" fill="#fff"/>
    <path id="Path_135" data-name="Path 135" d="M131.242,285.132c35.827,56.618,76.481,57.732,119.362,59.031,15.964.371,32.486.928,49.007,4.27,26.917,5.569,54.019,22.276,78.151,36.941,24.132,14.851,45.48,28.031,62.558,28.031a25.719,25.719,0,0,0,13.366-3.527c15.036-8.91,7.611-25.617-3.713-50.863-13.737-30.629-34.342-77.038-28.031-140.524C432.71,107.853,406.536,50.863,359.571,0h-2.6c47.336,50.863,73.882,107.481,63.115,218.49-6.311,64.043,14.479,110.637,28.216,141.638,11.138,25.246,18.006,40.468,4.455,48.45-17.264,10.21-43.624-5.94-73.882-24.5-24.132-14.851-51.606-31.558-78.708-37.312-16.707-3.527-33.228-3.9-49.378-4.455-42.324-1.3-82.421-2.413-117.877-58.1C94.858,224.244,28.216,198.07,0,189.16v1.856C28.216,199.926,93.93,226.1,131.242,285.132Z" transform="translate(0.086 0.257)" fill="#fff"/>
    <path id="Path_136" data-name="Path 136" d="M142.38,194.272c8.353,12.623,14.479,24.5,19.863,34.9,15.779,30.629,26.36,51.049,72.4,58.1,24.875,3.9,47.522,11.695,67.57,18.749,20.977,7.24,38.8,13.551,53.833,13.551a40.093,40.093,0,0,0,18.192-3.9c20.605-10.21,16.521-36.384,10.024-79.822-3.341-22.09-7.425-49.378-9.467-81.493C370.337,81.407,319.1,22.933,296.084.1H293.3c22.09,21.533,75,80.565,79.451,154.261,1.856,32.114,6.126,59.588,9.467,81.678,6.5,42.51,10.4,68.313-8.91,77.966-17.635,8.725-41.025.743-70.54-9.653C282.719,297.3,259.886,289.5,234.825,285.6c-45.109-6.868-55.5-26.917-71.1-56.989a386.755,386.755,0,0,0-19.863-35.085C118.062,153.99,33.043,138.211,0,133.57v1.856C33.043,140.067,116.949,155.66,142.38,194.272Z" transform="translate(0.086 0.343)" fill="#fff"/>
    <path id="Path_137" data-name="Path 137" d="M206.795,219.047c14.294,24.318,49.935,44.181,83.906,44.181a76.034,76.034,0,0,0,29.516-5.755c9.282-4.084,15.964-11.695,19.491-22.833,10.767-32.3-5.569-87.99-27.474-126.23-23.018-40.1-62-87.99-79.08-108.41h-2.413c16.521,19.677,56.618,68.684,79.822,109.338,21.533,37.869,37.869,92.816,27.288,124.56-3.527,10.581-9.839,17.821-18.563,21.719-39.354,17.078-92.816-6.683-111.008-37.683C193.058,192.13,144.794,119.176,104.326,93,76.109,74.81,24.318,62.558,0,57.732v1.856C24.318,64.6,75.367,76.481,103.4,94.673,143.494,120.661,191.573,193.244,206.795,219.047Z" transform="translate(0.086 0.257)" fill="#fff"/>
    <path id="Path_138" data-name="Path 138" d="M222.388,152.219c23.018,30.258,40.468,53.091,56.618,53.091a14.8,14.8,0,0,0,6.311-1.3c3.156-1.3,7.054-4.455,7.425-12.809,1.3-19.491-16.15-60.888-43.067-103.212C225.544,49.935,198.813,19.12,173.938,0h-9.467c25.8,18.006,54.576,50.306,80.565,91.146,25.989,40.654,43.252,81.678,42.139,99.87-.186,4.455-1.671,7.054-3.9,7.982-14.294,5.569-32.857-18.935-56.618-50.121-19.491-25.617-43.809-57.546-74.067-83.535C99.87,19.677,29.144,12.623,0,11.695v5.569c28.587.928,97.457,7.8,149.063,52.163C178.764,95.23,202.9,126.787,222.388,152.219Z" transform="translate(0.086 0.257)" fill="#fff"/>
    <path id="Path_139" data-name="Path 139" d="M456.871,185.533a2.683,2.683,0,0,0,1.3-.371c6.5-2.97,2.042-28.773-6.5-74.067C444.805,74.71,436.452,30.344,436.823.086h-1.856c-.371,30.629,7.982,75,14.851,111.38,6.683,35.827,12.994,69.612,7.611,72.026-1.114.557-3.9,0-10.767-9.1C413.619,132.071,397.84,31.458,393.756-.1H391.9c4.27,31.372,20.048,132.913,53.462,175.609C450.374,182.377,454.087,185.533,456.871,185.533Z" transform="translate(335.681 0.171)" fill="#fff"/>
    <path id="Path_140" data-name="Path 140" d="M230.767,947.348c-12.437-71.469-.557-84.649,5.2-86.876,7.982-3.156,20.048,6.312,33.228,25.989,22.647,33.785,97.828,135.7,179.136,135.7A90.767,90.767,0,0,0,472.461,1019c51.606-13.551,91.888-82.235,127.344-142.937,23.947-41.025,46.594-79.636,69.241-94.858,27.845-18.935,77.78-7.982,135.512,4.641,56.247,12.437,120.1,26.36,175.423,14.108,46.965-10.4,76.852-39.354,88.732-86.134,10.024-39.169,5.569-82.978,2.6-111.937l-.371-4.641c-2.785-27.845,21.9-38.055,53.277-50.863,31.929-13.18,68.313-28.031,88.176-66.085,42.51-81.121,46.594-174.124,11.324-255.616-21.162-48.636-23.575-83.535-7.8-110.266,20.234-34.342,71.283-55.69,155.746-65.157V47.4c-85.02,9.653-136.626,31.372-157.231,66.085-16.15,27.288-13.737,62.929,7.611,111.937,35.085,80.936,31,173.381-11.324,253.946-19.677,37.5-55.5,52.163-87.247,65.157-30.815,12.623-57.361,23.575-54.39,52.72l.371,4.641c2.97,28.773,7.24,72.4-2.6,111.194-11.695,46.037-41.025,74.624-87.433,84.834-54.947,12.066-118.619-1.856-174.68-14.108-58.1-12.809-108.41-23.761-137-4.455-22.833,15.593-45.666,54.39-69.8,95.415-35.27,60.331-75.367,128.644-126.23,142.009-89.1,23.39-176.722-94.858-201.412-131.8-13.922-20.791-26.546-30.258-35.456-26.545-13.18,5.2-15.408,36.941-6.312,88.918,11.695,67.2,11.695,101.912,10.581,116.763h1.856C242.647,1049.446,242.647,1014.918,230.767,947.348Z" transform="translate(191.077 40.847)" fill="#fff"/>
    <path id="Path_141" data-name="Path 141" d="M683.126,72.026c26.545,13.922,46.037,28.216,61.63,39.725,21.533,15.964,36.941,27.288,55.69,27.288,7.054,0,14.665-1.671,23.2-5.383,12.809-5.569,23.761-14.108,36.57-24.318,33.043-26.174,73.882-58.66,178.022-59.959V47.522c-104.883,1.485-147.578,35.27-179.136,60.331-12.623,10.024-23.39,18.563-36.2,23.947-30.073,12.809-47.893-.186-77.223-21.719-15.779-11.509-35.27-25.989-62-39.911C631.334,42.7,617.783,14.294,614.442,0H612.4C615.37,14.479,628.736,43.438,683.126,72.026Z" transform="translate(524.501 0.257)" fill="#fff"/>
    <path id="Path_142" data-name="Path 142" d="M697.567,56.618c27.288,13.737,50.121,22.276,71.469,22.276,18.935,0,36.755-6.683,55.69-22.647,17.45-14.665,51.606-21.9,84.834-28.959C942.416,20.42,973.788,13.737,989.2,0h-9.282c-15.964,10.21-43.995,16.15-71.469,21.9C874.66,29.144,839.761,36.57,821.2,51.977c-38.055,31.929-70.541,24.875-121.218-.371C664.71,34.156,659.7,11.88,659.883,0H654.5C654.5,13.551,660.255,38.055,697.567,56.618Z" transform="translate(560.552 0.257)" fill="#fff"/>
    <path id="Path_143" data-name="Path 143" d="M746.357,45.666c31.372,0,58.474-30.258,70.355-45.666H814.3c-12.066,15.593-38.055,43.809-67.942,43.809S692.894,15.408,682.128,0H679.9C690.481,15.593,714.984,45.666,746.357,45.666Z" transform="translate(582.303 0.257)" fill="#fff"/>
    <path id="Path_144" data-name="Path 144" d="M290.774,564.5C273.51,546.868,262,535.173,254.39,535.915a6.549,6.549,0,0,0-4.826,2.97c-12.066,17.078,9.282,82.235,18.192,107.3H269.8c-8.539-24.318-30.073-89.846-18.563-106.182a4.912,4.912,0,0,1,3.527-2.228c6.683-.557,19.12,12.066,34.9,28.031,24.5,24.875,59.4,60.331,103.954,80.379h4.641C351.847,626.5,315.834,590.12,290.774,564.5Z" transform="translate(210.706 459.147)" fill="#fff"/>
    <path id="Path_145" data-name="Path 145" d="M1048.753,549.093c-59.217-51.977-146.093-44.552-209.579-38.983-5.94.557-11.88.928-17.449,1.485-51.42,3.9-99.685-13.551-142.195-28.959-38.426-13.922-71.469-25.989-98.014-19.12-49.75,12.809-74.81,66.642-101.355,123.817-3.341,7.24-6.868,14.851-10.4,22.09-23.018,48.079-62.93,85.391-80.565,100.427h8.539c19.677-17.45,55.5-53.091,77.038-98.014,3.527-7.425,7.054-15.036,10.4-22.276C511.161,533.685,535.85,481.151,583,468.9c24.875-6.5,57.361,5.383,94.673,18.935,43.067,15.593,91.888,33.414,144.608,29.33,5.569-.371,11.323-.928,17.449-1.485,62.373-5.383,147.949-12.623,205.5,37.683,36.57,32.114,57.732,84.648,62.558,156.488h5.569C1108.341,636.34,1086.622,582.321,1048.753,549.093Z" transform="translate(333.368 395.478)" fill="#fff"/>
    <path id="Path_146" data-name="Path 146" d="M819.317,544.368c-18.378.743-37.127,1.485-54.576.928-48.821-1.3-87.99-18.563-122.518-33.6-17.264-7.611-33.6-14.665-49.193-19.12-13.737-3.9-26.731-2.413-38.8,4.455-29.516,16.707-46.779,61.63-56.061,96.158-11.695,43.438-45.851,76.852-63.672,91.888h2.784c18.378-15.779,51.049-48.821,62.558-91.517,9.282-34.342,26.36-78.708,55.133-95.044,11.509-6.5,24.132-7.982,37.312-4.27,15.593,4.455,31.929,11.509,49.007,19.12,34.713,15.222,74.068,32.671,123.26,33.785,17.449.371,36.384-.186,54.762-.928,59.217-2.228,120.661-4.455,152.033,30.258,32.114,35.456,37.869,87.619,38.8,108.781H1012c-.928-21.348-6.868-74.068-39.354-109.895C940.906,539.727,879.091,541.955,819.317,544.368Z" transform="translate(372.16 420.251)" fill="#fff"/>
    <path id="Path_147" data-name="Path 147" d="M871.253,564.844c-23.947-5.2-53.648-4.084-84.834-3.156-45.294,1.671-96.715,3.341-141.266-13.922-5.383-2.042-10.4-4.084-15.407-6.126-42.324-16.707-70.169-27.845-90.774-17.635-12.437,6.126-21.162,19.677-27.659,42.881-13.551,47.708-31.186,79.265-39.911,93h6.683c9.282-15.222,25.617-45.851,38.612-91.331,6.126-21.533,13.922-33.971,24.875-39.354,18.378-9.1,45.48,1.671,86.319,17.821,5.012,2.042,10.024,4.084,15.407,6.126,45.48,17.821,97.643,15.964,143.494,14.294,31-1.114,60.145-2.042,83.535,2.97,44.552,9.653,51.235,66.642,51.977,89.475h5.569C926.757,635.942,919.517,575.24,871.253,564.844Z" transform="translate(403.759 445.626)" fill="#fff"/>
    <path id="Path_148" data-name="Path 148" d="M720.093,585.926c-9.839,0-20.048-.186-31-.371-57.917-.928-91.888-17.45-114.35-28.4-18.006-8.91-28.959-14.108-39.354-5.383C517.2,566.806,511.071,615.813,509.4,636.6h1.856c1.856-20.605,8.168-69.055,25.432-83.349,9.467-7.982,20.048-2.784,37.312,5.755,22.647,10.952,56.8,27.659,115.092,28.773,10.952.186,21.162.186,31,.371,54.576.371,90.589.743,106.739,18.006,6.683,7.054,10.024,16.892,10.4,30.629h1.856c-.371-14.108-3.9-24.5-10.952-31.929C811.424,586.483,775.226,586.3,720.093,585.926Z" transform="translate(436.299 468.911)" fill="#fff"/>
    <path id="Path_149" data-name="Path 149" d="M763.3,597.344c-6.868-5.569-18.006-4.27-36.755-2.042-12.066,1.3-27.1,2.97-45.666,3.341-45.109.928-72.211-5.569-93.93-10.952-9.653-2.413-17.821-4.27-26.36-5.569-7.425-.928-12.994.557-16.707,4.826-4.826,5.2-5.755,13.365-5.569,19.863h1.856c-.186-6.126.557-13.922,5.012-18.563,3.341-3.713,8.539-5.012,15.222-4.27,8.354,1.114,16.707,3.156,26.174,5.383,21.9,5.383,49.193,11.881,94.487,10.952a429.608,429.608,0,0,0,45.851-3.527c18.192-2.042,29.144-3.341,35.27,1.671a16.445,16.445,0,0,1,5.012,7.982h2.042C767.752,602.356,765.9,599.386,763.3,597.344Z" transform="translate(461.037 498.517)" fill="#fff"/>
    <path id="Path_150" data-name="Path 150" d="M750.447,815.2c-32.115-5.569-59.774-10.4-67.385-26.731-8.725-19.12,3.156-38.8,16.892-61.816,12.066-19.863,25.617-42.51,26.546-67.942.557-13.18-.557-25.432-1.671-37.127-3.341-35.827-5.569-61.816,40.839-80.193l2.97-1.114C828.6,516.7,875.935,498.134,894.684,378.4c10.4-67.2-1.3-118.434-10.581-159.644-7.8-34.156-13.922-61.073-6.5-86.5C890.6,88.443,954.086,84.173,982.117,84.359V82.5c-28.4-.186-93,4.27-106.182,49.193-7.611,25.989-1.114,54.576,6.312,87.619,9.282,41.025,20.976,92.259,10.581,159.087C874.264,496.835,829.712,514.47,768.082,538.788l-2.97,1.114C717.4,558.651,720,586.681,723.159,621.951c1.114,11.695,2.228,23.761,1.671,36.941-.928,25.06-14.294,47.336-26.36,67.2-14.108,23.39-26.36,43.438-17.078,63.486,7.982,17.264,36.2,22.276,68.684,27.845,39.54,6.868,84.277,14.665,112.679,45.109,43.624,46.779,56.247,141.823,59.4,172.267h1.856c-2.97-30.258-15.779-126.23-59.774-173.567C835.281,830.046,788.316,821.878,750.447,815.2Z" transform="translate(580.811 70.901)" fill="#fff"/>
    <path id="Path_151" data-name="Path 151" d="M905.345,132.58c-11.138,9.1-17.264,22.647-17.635,40.1-.557,21.348,5.2,45.294,12.066,72.954,12.809,51.606,28.588,116.02,1.3,184.333-23.2,58.474-54.762,74.253-82.607,88.176-21.533,10.767-40.1,20.048-49.935,46.223-9.467,25.246-12.252,41.953-14.665,56.618-3.156,19.491-5.383,33.6-22.461,57.36-14.851,20.791-19.491,37.5-14.108,51.235,5.94,15.222,24.132,25.989,55.5,32.486l2.97.557c52.534,10.952,137,28.587,174.68,166.7V910.381c-15.593-47.151-38.426-83.535-68.313-108.409-36.57-30.444-76.3-38.612-105.254-44.738l-2.97-.557c-28.959-6.126-46.223-15.779-51.42-29.144-4.641-11.695,0-27.1,13.551-46.037,17.821-24.689,20.234-40.1,23.39-59.774,2.413-14.479,5.012-30.815,14.294-55.5,9.1-24.132,26.731-33.043,47.336-43.252,27.288-13.737,61.259-30.629,85.391-91.146,27.845-69.984,11.88-135.326-1.114-187.86-6.683-27.288-12.437-50.863-11.88-71.469.557-15.964,5.755-28.031,15.593-36.013,12.438-10.024,29.887-11.695,41.582-11.509V119.4C937.83,119.586,919.081,121.442,905.345,132.58Z" transform="translate(612.475 102.502)" fill="#fff"/>
    <path id="Path_152" data-name="Path 152" d="M825.984,375.519c-30.629,34.528-49.378,76.3-57.917,98.2-10.581,27.288-12.623,41.953-7.24,52.163,7.611,14.479,29.516,19.677,69.612,29.516l9.653,2.413c40.282,9.839,62,41.582,73.511,69.427V622.6c-12.066-27.288-33.971-57.175-73.139-66.642l-9.653-2.413c-39.54-9.653-61.259-14.851-68.5-28.587-5.2-9.839-3.156-23.947,7.24-50.678,12.623-32.486,59.031-135.326,143.865-150.919V321.5C882.045,327.255,852.529,345.261,825.984,375.519Z" transform="translate(649.14 275.566)" fill="#fff"/>
    <path id="Path_153" data-name="Path 153" d="M806.431,415.415c-13.737,26.731-17.264,44.552-11.509,56.432,6.312,12.809,23.2,17.635,40.468,20.977,21.719,4.084,38.426,19.491,48.821,32.114v-2.784c-10.767-12.623-27.1-27.1-48.636-31.186-23.019-4.455-34.342-10.21-39.168-19.863-5.569-11.324-1.856-28.773,11.509-54.762,19.677-38.612,56.432-56.247,76.3-63.3V351C864.349,357.868,826.665,375.875,806.431,415.415Z" transform="translate(678.531 300.828)" fill="#fff"/>
    <path id="Path_154" data-name="Path 154" d="M820.536,425.606c-1.671,16.893,23.575,28.216,39.725,33.6v-2.042c-15.779-5.383-39.354-16.15-37.869-31.372s23.019-36.384,37.869-49.378V374C845.225,386.809,822.021,409.27,820.536,425.606Z" transform="translate(702.666 320.523)" fill="#fff"/>
  </g>
</svg>
